<?xml version="1.0" encoding="UTF-8" standalone="no"?>
<svg
   xmlns:dc="http://purl.org/dc/elements/1.1/"
   xmlns:cc="http://creativecommons.org/ns#"
   xmlns:rdf="http://www.w3.org/1999/02/22-rdf-syntax-ns#"
   xmlns:svg="http://www.w3.org/2000/svg"
   xmlns="http://www.w3.org/2000/svg"
   xml:space="preserve"
   enable-background="new 0 0 1331 1007"
   viewBox="0 0 130 100"
   height="100"
   width="130"
   y="0px"
   x="0px"
   id="Layer_1"
   version="1.1"><metadata
   id="metadata1934"><rdf:RDF><cc:Work
       rdf:about=""><dc:format>image/svg+xml</dc:format><dc:type
         rdf:resource="http://purl.org/dc/dcmitype/StillImage" /><dc:title></dc:title></cc:Work></rdf:RDF></metadata><defs
   id="defs1932">
	
	
	
	

		
		
		
	
			
			
			
			
		</defs>



<g
   transform="matrix(0.09777238,0,0,0.09777238,0,89.320535)"
   id="g1017"><g
     id="g1876"
     transform="translate(0,-907)">
				<path
   style="fill:#ffffff"
   id="path1874"
   d="m 84.609,432.352 v -12.561 l -9.006,-9.006 H 46.689 l -9.244,9.006 v 11.376 H 0 v -26.78 l 31.047,-31.285 h 59.961 l 31.047,31.285 v 46.688 l -84.609,62.806 v 9.479 h 84.609 v 37.446 H 0 V 494.92 Z" />
			</g><g
     id="g1880"
     transform="translate(0,-907)">
				<path
   style="fill:#ffffff"
   id="path1878"
   d="M 268.045,404.148 V 529.76 l -31.047,31.047 H 176.799 L 145.752,529.76 V 404.148 l 31.047,-31.047 h 60.199 z m -84.609,15.643 v 94.326 l 9.006,9.243 h 28.914 l 9.006,-9.243 v -94.326 l -9.006,-9.006 h -28.914 z" />
			</g><g
     id="g1884"
     transform="translate(0,-907)">
				<path
   style="fill:#ffffff"
   id="path1882"
   d="m 1183.101,560.807 h -37.446 V 428.561 h -15.404 V 406.52 l 1.422,-0.475 c 8.372,-2.211 14.812,-6.199 19.314,-11.969 4.504,-5.766 7.307,-12.123 8.414,-19.078 l 0.236,-1.896 h 23.464 z" />
			</g><path
     id="litovel"
     d="m 543.852,76.705 -39.36,-13.404 28.085,-82.47 15.619,5.319 -22.766,66.851 23.74,8.085 z m 36.053,-80.584 15.983,4.094 -21.616,84.396 -15.984,-4.095 z m 67.327,30.257 -15.09,-2.464 -11.379,69.697 -16.284,-2.658 11.378,-69.697 -15.199,-2.482 2.659,-16.284 46.573,7.604 z M 691.769,99 667.248,98.333 653.983,84.327 l 1.629,-59.818 14.005,-13.264 24.521,0.667 13.374,14.009 -1.628,59.818 z m -2.171,-21.297 1.217,-44.754 -4.602,-4.746 -9.457,-0.258 -4.967,4.598 -1.215,44.643 4.709,4.859 9.457,0.258 z m 77.027,-72.014 -8.463,88.772 -15.29,1.843 -29.321,-84.215 16.708,-2.016 15.202,43.372 4.346,-45.729 z m 78.563,69.313 -50.112,13.578 -22.784,-84.09 50.113,-13.577 4.314,15.927 -34.188,9.263 4.92,18.155 15.926,-4.316 4.315,15.927 -15.927,4.315 4.92,18.154 34.188,-9.263 z m 54.678,-21.527 -38.511,15.68 -32.85,-80.689 15.281,-6.222 26.629,65.407 23.229,-9.457 z"
     style="fill:#ffffff" /><path
     id="obruc"
     d="m 1097.846,-635.049 c -21.946,-51.889 -53.362,-98.485 -93.374,-138.497 -40.012,-40.012 -86.609,-71.427 -138.496,-93.374 -53.729,-22.725 -110.794,-34.248 -169.611,-34.248 -58.817,0 -115.881,11.523 -169.609,34.248 -30.101,12.731 -58.406,28.67 -84.693,47.604 2.181,-1.22 4.396,-2.424 6.668,-3.596 30.066,-15.507 65.93,-26.193 105.072,-34.838 48.783,-10.774 103.648,-16.779 163.072,-17.848 1.688,-0.135 10.517,-0.38 24.35,6.87 38.952,4.265 76.828,14.112 113.064,29.438 48.312,20.435 91.703,49.69 128.97,86.958 37.267,37.266 66.522,80.658 86.957,128.97 21.152,50.011 31.878,103.144 31.878,157.923 0,54.78 -10.726,107.913 -31.878,157.924 -20.435,48.312 -49.69,91.704 -86.957,128.971 -37.267,37.266 -80.658,66.522 -128.97,86.957 -50.011,21.152 -103.145,31.878 -157.924,31.878 -54.779,0 -107.913,-10.726 -157.924,-31.878 -48.312,-20.435 -91.703,-49.691 -128.97,-86.957 -37.266,-37.267 -66.523,-80.658 -86.957,-128.971 -21.153,-50.011 -31.878,-103.144 -31.878,-157.924 0,-54.779 10.725,-107.912 31.878,-157.923 6.359,-15.034 13.575,-29.592 21.618,-43.637 -0.503,0.273 -1.021,0.539 -1.518,0.815 -25.097,13.938 -45.588,30.912 -56.081,52.424 -17.191,47.425 -25.897,97.211 -25.897,148.32 0,58.816 11.522,115.882 34.248,169.61 21.947,51.889 53.362,98.485 93.374,138.497 40.012,40.012 86.609,71.428 138.498,93.374 53.729,22.726 110.793,34.248 169.609,34.248 58.816,0 115.882,-11.522 169.61,-34.248 51.888,-21.946 98.484,-53.362 138.496,-93.374 40.012,-40.012 71.428,-86.608 93.374,-138.497 22.726,-53.729 34.248,-110.794 34.248,-169.61 0,-58.816 -11.522,-115.88 -34.247,-169.609 z"
     style="fill:#ffffff" /><g
     id="mic"
     transform="translate(0,-907)">
		<path
   style="fill:#ffffff"
   id="path1892"
   d="m 1003.229,574.329 c -4.649,-3.935 -21.883,-18.238 -40.739,-30.521 v 65.375 l -45.654,51.425 -41.897,5.774 v 78.925 l -88.789,12.238 v -24.408 l -24.892,27.838 -80.221,11.056 -37.661,-31.742 -37.966,42.166 -39.465,5.439 v 0 l 10.777,-1.485 c 13.358,9.339 29.671,15.109 48.709,17.17 18.842,2.039 39.882,3.073 62.538,3.073 35.081,0 62.678,-2.521 65.453,-2.783 19.477,-3.801 51.599,-10.81 59.05,-14.238 l 17.54,-22.955 c -0.197,-0.09 -0.414,-0.189 -0.619,-0.284 -8.471,-3.598 -16.154,-7.562 -23.084,-11.624 l 17.236,-2.376 c 7.276,3.707 12.914,6.204 15.154,7.169 7.989,-0.984 66.099,-10.242 118.6,-71.778 l 0.175,-0.194 c 0.578,-0.611 57.096,-61.034 45.755,-113.26 z" />
		<path
   style="fill:#ffffff"
   id="path1894"
   d="m 1007.939,565.059 c 39.446,-32.613 47.106,-93.232 47.181,-93.857 3.957,-39.583 -7.608,-73.574 -18.01,-95.103 -11.577,-23.964 -24.038,-37.605 -28.737,-40.712 -5.941,4.657 -21.363,13.646 -36.935,22.34 -7.967,4.604 -19.317,11.071 -28.036,15.511 v 109.33 l -3.243,21.632 22.33,18.848 v 8.71 c 21.005,12.472 38.486,27.163 45.45,33.301 z" />
		<path
   style="fill:#ffffff"
   id="path1896"
   d="M 477.222,534.157 V 354.494 c -8.383,7.024 -16.156,14.723 -22.676,23.064 -3.106,12.468 -19.908,86.07 2.104,137.377 2.268,2.55 9.172,9.958 20.572,19.222 z" />
		<path
   style="fill:#ffffff"
   id="path1898"
   d="m 463.183,715.079 c 3.542,2.774 7.438,5.665 11.638,8.556 V 585.637 l 22.992,-25.883 -2.729,3.071 c -19.765,-11.566 -38.621,-25.304 -49.142,-39.946 l -61.863,40.41 c -0.853,3.693 -2.57,14.104 0.179,30.134 3.233,18.85 13.462,49.493 43.834,88.467 0.836,0.997 14.277,16.883 35.091,33.189 z" />
		<path
   style="fill:#ffffff"
   id="path1900"
   d="m 380.138,553.919 51.152,-33.413 9.845,-6.431 c -5.035,-13.12 -17.719,-57.227 -1.334,-138.703 -5.597,-3.782 -18.564,-12.719 -31.685,-22.983 -10.796,-8.248 -21.057,-16.706 -26.443,-22.79 -4.045,3.285 -10.998,9.85 -18.216,20.849 -18.802,28.653 -24.902,64.797 -26.708,90.071 l -0.09,1.26 c -10e-4,8.568 1.71,75.4 43.479,112.14 z" />
		<path
   style="fill:#ffffff"
   id="path1902"
   d="m 590.42,205.73 c -4.28,0.016 -8.441,0.062 -12.415,0.131 -16.264,15.496 -43.115,38.789 -51.911,38.789 -0.285,0 -0.553,-0.02 -0.806,-0.059 -7.277,-1.096 -47.879,-14.984 -50.5,-29.168 -0.392,-2.119 -0.088,-4.957 2.688,-7.783 -15.188,0.928 -31.991,2.605 -49.158,5.492 -1.336,0.225 -2.649,0.465 -3.97,0.7 -23.047,33.484 -32.112,59.458 -35.575,76.057 -3.536,16.945 -2.036,27.385 -1.429,30.428 6.384,7.343 16.421,15.938 26.513,23.845 8.576,6.574 18.98,14.166 30.847,22.388 10.368,-10.649 21.442,-20.045 32.518,-28.264 v -51.102 l 87.399,-12.045 c 5.768,-26.458 17.354,-50.896 28.043,-69.41 -0.745,0 -1.476,0 -2.244,10e-4 z" />
		<path
   style="fill:#ffffff"
   id="path1904"
   d="m 964.658,214.105 -0.464,-0.464 -0.329,-0.567 c -5.673,-9.807 -19.056,-22.852 -35.495,-35.197 -0.101,0.244 -0.187,0.5 -0.303,0.73 1.104,1.355 2.267,3.145 3.134,5.404 1.608,4.186 1.771,8.783 0.482,13.664 -0.479,1.816 -1.168,3.689 -2.047,5.562 l -0.17,0.363 -0.239,0.32 c -0.15,0.203 -3.758,5.02 -9.032,8.133 -1.356,0.799 -2.729,1.432 -4.081,1.881 -1.723,0.574 -6.837,1.822 -13.026,3.18 -16.116,3.535 -69.934,14.525 -89.669,8.498 -3.997,-0.443 -8.698,-0.953 -13.756,-1.487 1.991,5.589 3.923,11.521 5.79,17.822 l -10.026,1.382 c -2.028,-6.722 -4.319,-13.613 -6.861,-20.355 -20.448,-2.08 -42.682,-4.109 -48.391,-3.865 -6.819,0.305 -88.77,-1.826 -100.735,-9.895 -0.484,-0.328 -5.212,-2.859 -35.091,-3.39 -10.551,17.558 -22.767,41.736 -29.104,67.851 l 368.158,-50.739 v 138.756 c 8.869,-4.8 17.634,-9.622 25.606,-14.099 14.872,-8.585 29.059,-17.193 33.195,-20.103 15.248,-59.713 -37.013,-112.85 -37.546,-113.385 z" />
	</g><g
     id="minicup_x5F_text"
     transform="translate(0,-907)">
		<polygon
   style="fill:#ffffff"
   id="polygon1907"
   points="742.174,528.201 742.174,687.917 730.484,700.994 707.099,704.218 695.406,694.362 695.406,534.646 654.622,540.267 654.622,718.381 688.338,746.798 749.244,738.404 782.961,700.695 782.961,522.58 " />
		<polygon
   style="fill:#ffffff"
   id="polygon1909"
   points="811.461,476.525 851.432,471.016 851.432,259.838 810.645,265.459 810.645,368.915 764.148,271.866 723.906,277.413 723.906,488.591 764.693,482.97 764.693,379.247 " />
		<polygon
   style="fill:#ffffff"
   id="polygon1911"
   points="696.717,492.338 696.717,281.16 655.931,286.781 655.931,497.959 " />
		<polygon
   style="fill:#ffffff"
   id="polygon1913"
   points="551.298,725.69 539.606,715.836 539.606,607.579 551.298,594.502 574.682,591.279 586.646,601.098 586.646,616.295 627.432,610.674 627.432,577.077 593.443,548.698 532.536,557.092 498.82,594.802 498.82,739.854 524.405,761.419 534.691,767.975 593.443,759.877 627.432,722.129 627.432,688.532 586.646,694.153 586.646,709.353 574.682,722.467 " />
		<polygon
   style="fill:#ffffff"
   id="polygon1915"
   points="587.959,296.148 564.847,365.727 542.007,302.482 501.222,308.104 501.222,519.282 542.007,513.661 542.007,427.269 564.847,490.515 587.959,420.936 587.959,507.328 628.744,501.707 628.744,290.528 " />
		<polygon
   style="fill:#ffffff"
   id="polygon1917"
   points="919.402,461.648 919.402,250.471 878.617,256.091 878.617,467.271 " />
		<path
   style="fill:#ffffff"
   id="path1919"
   d="m 904.774,505.793 -94.626,13.038 v 211.18 l 40.789,-5.622 v -78.925 l 53.837,-7.42 33.715,-37.977 v -65.86 z m -6.797,81.728 -11.965,13.113 -35.074,4.833 v -52.26 l 35.074,-4.834 11.965,9.55 z" />
	</g><g
     id="ryba"
     transform="translate(0,-907)">
		<path
   style="fill:#ffffff"
   d="m 559.138,217.656 c 4.604,-3.992 9.035,-7.998 12.979,-11.672 l 8.524,-8.162 c 3.68,-3.641 6.162,-6.299 6.801,-7.273 0.267,-0.408 0.207,-0.559 0.172,-0.648 -0.592,-1.51 -4.551,-3.184 -11.765,-4.975 -0.659,-0.164 -1.2,-0.301 -1.573,-0.406 -0.327,-0.025 -1.076,-0.072 -2.029,-0.072 -3.397,0 -7.447,0.676 -7.682,2.586 -0.443,3.592 -13.631,5.949 -32.239,8.166 -25.166,3 -48.808,12.887 -48.808,12.887 -7.525,3.781 -4.959,5.738 -4.798,6.611 0.571,3.091 4.322,6.869 10.616,10.849 l 18.49,8.986 18.057,6.104 2.301,-0.481 c 3.601,-1.335 12.054,-6.108 30.954,-22.5 z"
   id="ploutev" />
		<path
   style="fill:#ffffff"
   id="path1923"
   d="m 923.732,186.879 c -0.615,-1.604 -1.492,-2.812 -2.216,-3.625 -6.321,1.688 -18.642,2.902 -34.75,4.359 -9.129,0.826 -17.752,1.605 -20.887,2.32 -0.037,0.008 -0.075,0.016 -0.113,0.023 -1.539,0.303 -19.857,3.818 -41.904,3.818 -23.653,0 -51.598,-4.045 -67.722,-20.438 -1.549,-1.574 -1.528,-4.107 0.047,-5.656 1.573,-1.549 4.106,-1.529 5.656,0.047 27.86,28.324 100.062,14.824 102.325,14.389 3.691,-0.826 12.123,-1.59 21.877,-2.473 12.905,-1.166 30.579,-2.766 34.892,-4.588 0.521,-0.654 0.692,-4.75 -2.458,-12.43 -2.704,-6.594 -6.422,-12.439 -8.454,-14.283 -3.841,-3.482 -18.563,-10.125 -26.997,-13.518 -3.347,-1.198 -21.851,-7.923 -37.161,-15.461 7.543,5.141 20.658,12.077 43.225,19.781 0.784,0.268 1.203,1.121 0.936,1.904 -0.213,0.625 -0.796,1.016 -1.42,1.016 -0.16,0 -0.324,-0.025 -0.484,-0.08 -39.891,-13.619 -51.067,-25.016 -53.943,-29.032 -3.729,-2.352 -6.676,-4.656 -8.28,-6.774 -1.938,-2.561 -3.607,-5.714 -5.374,-9.054 -5.785,-10.938 -11.763,-22.253 -28.777,-18.55 -0.063,0.014 -0.127,0.026 -0.191,0.037 -0.516,0.087 -12.728,1.971 -23.578,-9.277 -30.289,-31.413 -50.23,-29.99 -50.412,-29.966 -0.136,0.017 -0.271,0.026 -0.407,0.028 -73.373,1.31 -178.794,11.327 -264.345,51.609 -40.865,19.242 -68.804,41.066 -75.572,49.277 l -1,1 c 0.088,-0.108 0.494,-0.602 1.169,-1.389 -43.192,44.05 -68.513,88.949 -89.396,149.266 0.279,-0.616 0.562,-1.23 0.85,-1.842 0.055,-0.118 0.109,-0.235 0.165,-0.353 0.272,-0.577 0.549,-1.151 0.829,-1.724 0.07,-0.143 0.14,-0.286 0.211,-0.429 0.281,-0.569 0.565,-1.138 0.854,-1.703 0.057,-0.112 0.116,-0.224 0.174,-0.336 1.285,-2.496 2.648,-4.948 4.098,-7.354 0.089,-0.148 0.177,-0.297 0.267,-0.445 0.298,-0.489 0.601,-0.977 0.906,-1.463 0.13,-0.207 0.261,-0.415 0.392,-0.622 0.295,-0.463 0.593,-0.925 0.896,-1.385 0.144,-0.219 0.289,-0.437 0.434,-0.655 0.304,-0.456 0.609,-0.912 0.92,-1.365 0.138,-0.201 0.28,-0.401 0.42,-0.603 0.327,-0.47 0.653,-0.939 0.988,-1.405 0.011,-0.015 0.022,-0.029 0.033,-0.044 0.75,-1.044 1.523,-2.075 2.313,-3.098 0.156,-0.202 0.31,-0.406 0.468,-0.608 0.305,-0.39 0.617,-0.775 0.928,-1.162 0.216,-0.269 0.431,-0.537 0.65,-0.804 0.3,-0.366 0.605,-0.73 0.911,-1.094 0.239,-0.283 0.479,-0.566 0.721,-0.848 0.301,-0.351 0.604,-0.7 0.911,-1.048 0.26,-0.295 0.523,-0.588 0.787,-0.881 0.3,-0.333 0.6,-0.666 0.905,-0.997 0.292,-0.316 0.59,-0.63 0.887,-0.943 0.287,-0.305 0.572,-0.61 0.864,-0.913 0.562,-0.581 1.131,-1.157 1.709,-1.729 0.263,-0.261 0.533,-0.517 0.799,-0.775 0.359,-0.349 0.718,-0.697 1.083,-1.043 0.29,-0.273 0.585,-0.544 0.879,-0.815 0.354,-0.328 0.71,-0.655 1.07,-0.979 0.299,-0.269 0.601,-0.536 0.903,-0.804 0.372,-0.327 0.746,-0.652 1.124,-0.977 0.299,-0.256 0.598,-0.513 0.901,-0.767 0.408,-0.343 0.821,-0.683 1.236,-1.021 0.28,-0.229 0.558,-0.459 0.841,-0.686 0.526,-0.422 1.061,-0.839 1.599,-1.254 0.182,-0.141 0.359,-0.283 0.542,-0.423 0.715,-0.546 1.442,-1.086 2.178,-1.621 0.242,-0.176 0.489,-0.349 0.733,-0.523 0.514,-0.368 1.03,-0.735 1.554,-1.098 0.295,-0.205 0.595,-0.407 0.894,-0.61 0.487,-0.331 0.977,-0.66 1.473,-0.987 0.313,-0.206 0.628,-0.411 0.945,-0.616 0.502,-0.324 1.009,-0.646 1.521,-0.966 0.311,-0.194 0.621,-0.39 0.935,-0.583 0.56,-0.344 1.127,-0.684 1.697,-1.021 0.271,-0.161 0.539,-0.324 0.812,-0.483 0.847,-0.495 1.703,-0.985 2.574,-1.468 23.571,-13.078 53.293,-22.689 88.343,-28.568 24.752,-4.152 48.756,-5.836 68.378,-6.383 13.681,-4.258 30.401,-6.641 43.597,-8.521 9.203,-1.311 19.599,-2.791 21.545,-4.176 0.455,-2.297 2.644,-5.691 11.587,-5.691 1.494,0 2.553,0.102 2.597,0.105 l 0.406,0.084 c 0.314,0.098 0.862,0.232 1.564,0.406 6.229,1.547 13.003,3.523 14.523,7.396 0.388,0.986 0.606,2.533 -0.549,4.299 -0.488,0.746 -2.105,2.535 -4.533,5.018 1.114,-0.01 2.224,-0.018 3.322,-0.021 13.524,-0.059 23.609,0.219 31.165,0.67 -1.119,-0.504 -2.274,-1.043 -3.495,-1.66 -3.241,-1.629 -6.796,-3.701 -10.517,-6.275 -3.698,-2.6 -7.561,-5.711 -11.291,-9.48 -3.72,-3.766 -7.352,-8.168 -10.432,-13.271 -1.567,-2.535 -2.984,-5.246 -4.196,-8.111 -0.645,-1.414 -1.171,-2.896 -1.728,-4.375 -0.499,-1.502 -0.977,-3.02 -1.364,-4.576 -0.805,-3.096 -1.447,-6.285 -1.739,-9.521 -0.364,-3.232 -0.392,-6.5 -0.252,-9.74 0.355,-6.477 1.597,-12.84 3.604,-18.717 0.971,-2.949 2.09,-5.805 3.38,-8.512 0.636,-1.357 1.257,-2.71 1.958,-3.999 0.673,-1.304 1.367,-2.587 2.119,-3.809 2.895,-4.966 6.097,-9.439 9.376,-13.412 0.806,-1.008 1.636,-1.966 2.466,-2.897 0.83,-0.93 1.613,-1.872 2.449,-2.74 1.695,-1.711 3.244,-3.432 4.885,-4.931 3.207,-3.068 6.28,-5.706 9.093,-7.922 2.796,-2.234 5.339,-4.039 7.455,-5.485 1.045,-0.737 2.018,-1.349 2.865,-1.877 0.841,-0.535 1.566,-0.976 2.156,-1.331 1.187,-0.699 1.819,-1.071 1.819,-1.071 0,0 -0.396,0.621 -1.137,1.785 -0.738,1.162 -1.884,2.799 -3.286,4.909 -1.399,2.087 -3.099,4.622 -5.048,7.529 -0.975,1.438 -1.986,2.976 -3.031,4.607 -1.071,1.609 -2.156,3.317 -3.268,5.104 -2.25,3.551 -4.577,7.424 -6.856,11.55 -2.32,4.103 -4.52,8.504 -6.528,13.073 -0.533,1.133 -0.947,2.314 -1.443,3.471 -0.506,1.152 -0.92,2.34 -1.354,3.525 -0.461,1.18 -0.812,2.389 -1.197,3.594 -0.435,1.193 -0.727,2.416 -1.092,3.627 -1.334,4.875 -2.135,9.852 -2.41,14.793 -0.124,2.469 -0.125,4.936 0.072,7.373 0.062,1.225 0.241,2.43 0.354,3.645 0.199,1.201 0.338,2.414 0.615,3.596 0.963,4.76 2.512,9.367 4.499,13.721 1.986,4.35 4.384,8.449 6.97,12.213 2.572,3.775 5.331,7.221 8.028,10.332 5.421,6.213 10.6,11.076 14.319,14.439 0.61,0.547 1.167,1.039 1.696,1.506 11.181,1.164 13.569,2.768 14.654,3.5 5.313,3.584 37.254,6.281 63.215,7.631 -0.87,-0.219 -1.744,-0.449 -2.637,-0.674 -2.505,-0.615 -5.055,-1.414 -7.683,-2.215 -5.227,-1.703 -10.674,-3.771 -16.077,-6.467 -5.415,-2.66 -10.848,-5.785 -16.088,-9.396 -5.242,-3.607 -10.105,-7.979 -14.36,-12.834 -4.253,-4.859 -8.064,-10.01 -11.326,-15.375 -1.639,-2.678 -3.142,-5.41 -4.515,-8.182 -0.725,-1.369 -1.324,-2.787 -1.998,-4.172 -0.608,-1.41 -1.202,-2.822 -1.738,-4.25 -2.198,-5.684 -3.562,-11.582 -3.823,-17.229 -0.282,-5.65 0.424,-10.973 1.41,-15.75 1.029,-4.777 2.429,-9.023 3.926,-12.659 1.497,-3.639 3.072,-6.679 4.523,-9.087 1.422,-2.423 2.71,-4.22 3.615,-5.419 0.916,-1.191 1.469,-1.791 1.469,-1.791 l 0.684,0.414 c 0,0 -0.256,0.743 -0.736,2.135 -0.478,1.39 -1.142,3.436 -1.931,6.03 -1.518,5.205 -3.599,12.614 -4.853,21.567 -0.322,2.236 -0.558,4.57 -0.75,6.98 -0.168,2.414 -0.267,4.902 -0.331,7.465 -0.064,2.564 -0.035,5.197 0.068,7.908 0.086,2.715 0.365,5.49 0.832,8.305 0.924,5.623 2.929,11.363 6.206,16.463 3.176,5.166 7.499,9.678 12.29,13.477 1.18,0.971 2.444,1.848 3.651,2.77 1.273,0.85 2.507,1.732 3.792,2.541 2.538,1.662 5.121,3.215 7.707,4.715 5.163,3.016 10.494,5.559 15.742,7.818 5.266,2.229 10.446,4.193 15.367,6.082 2.477,0.91 4.876,1.826 7.234,2.631 2.342,0.85 4.625,1.627 6.827,2.357 2.186,0.783 4.309,1.457 6.328,2.109 2.018,0.654 3.935,1.295 5.748,1.854 1.813,0.578 3.51,1.119 5.079,1.619 1.389,0.43 2.661,0.828 3.842,1.219 2.212,0.016 3.982,-0.002 5.203,-0.055 11.046,-0.484 72.262,6.299 74.862,6.588 l 0.407,0.045 0.39,0.127 c 0.404,0.132 0.837,0.252 1.287,0.366 0.447,0.111 0.916,0.214 1.404,0.31 l 9.647,0.647 23.323,-1.268 c 0.006,-0.001 0.011,-0.001 0.017,-0.002 10.016,-1.147 20.92,-2.873 31.527,-4.846 0.041,-0.008 0.082,-0.016 0.123,-0.022 0.955,-0.179 1.906,-0.358 2.855,-0.54 0.117,-0.022 0.235,-0.045 0.353,-0.067 0.879,-0.168 1.754,-0.34 2.627,-0.511 0.18,-0.035 0.361,-0.07 0.541,-0.105 0.789,-0.156 1.572,-0.313 2.354,-0.472 0.259,-0.052 0.521,-0.104 0.778,-0.156 0.728,-0.147 1.448,-0.297 2.169,-0.446 0.301,-0.062 0.604,-0.123 0.904,-0.186 0.618,-0.129 1.229,-0.26 1.842,-0.39 0.396,-0.084 0.798,-0.167 1.191,-0.251 0.99,-0.212 1.972,-0.425 2.942,-0.638 7.174,-1.572 11.235,-2.629 12.215,-2.955 0.819,-0.273 1.675,-0.672 2.543,-1.184 3.212,-1.895 5.707,-4.807 6.447,-5.721 0.586,-1.301 1.047,-2.578 1.37,-3.807 0.855,-3.223 0.782,-6.168 -0.213,-8.756 z m -569.241,27.318 c -6.075,0 -11,-4.926 -11,-11 0,-6.076 4.925,-11 11,-11 6.075,0 11,4.924 11,11 0.001,6.074 -4.925,11 -11,11 z m 35.166,-66.498 c 6.075,0 11,4.924 11,11 0,6.074 -4.925,11 -11,11 -6.075,0 -11,-4.926 -11,-11 0,-6.076 4.925,-11 11,-11 z m 2.335,53.334 c -6.075,0 -11,-4.926 -11,-11 0,-6.076 4.925,-11 11,-11 6.075,0 11,4.924 11,11 0,6.074 -4.925,11 -11,11 z m 34.499,-58.168 c 6.075,0 11,4.924 11,11 0,6.074 -4.925,11 -11,11 -6.075,0 -11,-4.926 -11,-11 0,-6.076 4.925,-11 11,-11 z m 1.667,51.5 c -6.075,0 -11,-4.926 -11,-11 0,-6.076 4.925,-11 11,-11 6.075,0 11,4.924 11,11 0,6.074 -4.925,11 -11,11 z m 6.499,-61.166 c -6.075,0 -11,-4.926 -11,-11 0,-6.076 4.925,-11 11,-11 6.075,0 11,4.924 11,11 0,6.074 -4.925,11 -11,11 z m 31.501,53.834 c -6.075,0 -11,-4.926 -11,-11 0,-6.076 4.925,-11 11,-11 6.075,0 11,4.924 11,11 0,6.074 -4.925,11 -11,11 z m 0,-33.668 c -6.075,0 -11,-4.926 -11,-11 0,-6.076 4.925,-11 11,-11 6.075,0 11,4.924 11,11 0,6.074 -4.925,11 -11,11 z m 7.334,-35.664 c -6.075,0 -11,-4.926 -11,-11 0,-6.077 4.925,-11 11,-11 6.075,0 11,4.924 11,11 0,6.074 -4.925,11 -11,11 z m 29.666,6.164 c 6.075,0 11,4.924 11,11 0,6.074 -4.925,11 -11,11 -6.075,0 -11,-4.926 -11,-11 0,-6.076 4.925,-11 11,-11 z m 2.834,59.002 c -6.075,0 -11,-4.926 -11,-11 0,-6.076 4.925,-11 11,-11 6.075,0 11,4.924 11,11 0,6.074 -4.925,11 -11,11 z m 9,-79.834 c -6.075,0 -11,-4.925 -11,-11 0,-6.076 4.925,-11 11,-11 6.075,0 11,4.924 11,11 0,6.074 -4.925,11 -11,11 z m 30.167,12 c 6.075,0 11,4.924 11,11 0,6.074 -4.925,11 -11,11 -6.075,0 -11,-4.926 -11,-11 0,-6.076 4.925,-11 11,-11 z m 0.833,62.832 c -6.075,0 -11,-4.926 -11,-11 0,-6.076 4.925,-11 11,-11 6.075,0 11,4.924 11,11 0,6.074 -4.925,11 -11,11 z m 12,-82.832 c -6.075,0 -11,-4.925 -11,-11 0,-6.075 4.925,-11 11,-11 6.075,0 11,4.925 11,11 0,6.075 -4.925,11 -11,11 z m 184.073,39.205 c -1.855,0.539 -3.777,0.812 -5.71,0.812 -10.548,0 -20.228,-7.971 -23.539,-19.381 -1.916,-6.588 -1.482,-13.454 1.219,-19.329 2.77,-6.022 7.574,-10.291 13.529,-12.02 1.854,-0.54 3.776,-0.813 5.71,-0.813 10.545,0 20.224,7.97 23.538,19.38 0.267,0.919 0.482,1.839 0.656,2.758 3.205,3.156 10.449,8.545 25.269,12.777 4.002,1.145 9.003,2.523 14.795,4.119 28,7.721 70.312,19.389 79.384,26.475 0.652,0.51 0.769,1.453 0.258,2.105 -0.295,0.379 -0.736,0.576 -1.183,0.576 -0.323,0 -0.648,-0.104 -0.923,-0.318 -8.599,-6.717 -52.252,-18.754 -78.334,-25.945 -5.799,-1.6 -10.807,-2.98 -14.821,-4.127 -12.319,-3.519 -19.687,-7.833 -23.957,-11.221 0.359,11.168 -5.887,21.246 -15.891,24.152 z" />
		<path
   style="fill:#ffffff"
   id="path1925"
   d="m 751.051,104.562 c -2.574,-8.864 -9.885,-15.054 -17.776,-15.054 -1.366,0 -2.725,0.193 -4.037,0.575 -4.258,1.236 -7.721,4.349 -9.751,8.764 -2.099,4.565 -2.421,9.944 -0.908,15.149 2.572,8.865 9.883,15.055 17.777,15.055 1.366,0 2.725,-0.193 4.036,-0.574 8.951,-2.602 13.732,-13.329 10.659,-23.915 z m -13.357,12.227 c -3.277,0.941 -6.693,-0.951 -7.633,-4.225 -0.941,-3.275 0.951,-6.693 4.227,-7.635 3.275,-0.939 6.693,0.953 7.633,4.227 0.941,3.276 -0.953,6.694 -4.227,7.633 z" />
	</g><path
     d="m 1253.8099,-383.94337 h 29.2331 l 8.7911,-9.03089 v -20.20057 l -0.024,-7.97331 -53.288,-0.43296 -31.5301,-30.33598 v -51.33069 l 31.1341,-31.13323 h 60.3661 l 31.1329,31.13323 v 51.33069 23.05673 51.57472 l -31.1329,31.13011 h -60.3661 l -31.1338,-31.13011 v -23.3504 l 37.7874,0.0454 v 7.6164 z m 29.7069,-75.33754 8.3173,-8.31703 v -19.96431 l -8.7911,-9.03204 h -29.2331 l -9.0309,9.03204 v 19.96431 l 8.3171,8.31703 z"
     style="fill:#ffffff;fill-opacity:1;fill-rule:evenodd;stroke-width:3.87957835"
     id="path848" /></g></svg>