<svg version="1.1" class="header__top__toggle--younger" xmlns="http://www.w3.org/2000/svg"  x="0px" y="0px"
	 width="25px" height="62px" viewBox="0 0 25 62" enable-background="new 0 0 25 62" xml:space="preserve">
	<path fill="#FFFFFF" d="M24.29,25.406c-0.379-0.736-1.281-1.027-2.021-0.648l-9.248,4.75c-0.1,0.051-0.191,0.111-0.276,0.183
		l-0.311,0.259l0.671-0.893l6.946-7.441c0.565-0.605,0.532-1.555-0.073-2.12c-0.604-0.565-1.555-0.532-2.119,0.073l-6.552,7.02
		c0-0.02,0.002-0.037,0.002-0.058c0-3.739-2.537-6.781-5.655-6.781C2.536,19.75,0,22.791,0,26.53c0,3.035,1.672,5.61,3.969,6.473
		L3.918,44.167L1.131,60.245c-0.142,0.815,0.406,1.593,1.222,1.732C2.44,61.993,2.526,62,2.611,62c0.716,0,1.35-0.515,1.476-1.244
		l1.744-10.063l3.679,9.303c0.233,0.59,0.798,0.949,1.396,0.949c0.184,0,0.37-0.033,0.551-0.105c0.77-0.305,1.148-1.176,0.843-1.946
		l-2.989-7.559L6.94,39.27l0.004-0.832l7.595-6.337l9.104-4.675C24.378,27.049,24.669,26.143,24.29,25.406z M5.655,22.75
		c1.439,0,2.655,1.73,2.655,3.78s-1.216,3.78-2.655,3.78S3,28.579,3,26.53S4.216,22.75,5.655,22.75z"/>
	</svg>