<svg version="1.1" class="header__top__toggle--younger--active" id="Layer_1" xmlns="http://www.w3.org/2000/svg"  x="0px" y="0px"
	 width="31px" height="62px" viewBox="0 0 31 62" enable-background="new 0 0 31 62" xml:space="preserve">
	<g>
		<path fill="#FFFFFF" d="M22.262,29.592l-4.457,3.607c-0.609-0.29-1.359-0.144-1.803,0.402l-2.115,2.591l-6.926-1.426l0.008-1.648
			c2.485-0.713,4.341-3.393,4.341-6.588c0-3.739-2.537-6.781-5.655-6.781C2.537,19.749,0,22.791,0,26.53
			c0,3.035,1.672,5.61,3.97,6.473L3.918,44.162L1.131,60.245c-0.141,0.815,0.406,1.592,1.222,1.733C2.44,61.993,2.526,62,2.611,62
			c0.716,0,1.35-0.515,1.476-1.244L5.832,50.69l3.678,9.305c0.234,0.589,0.798,0.948,1.396,0.948c0.183,0,0.37-0.033,0.551-0.106
			c0.77-0.304,1.148-1.175,0.843-1.946l-2.989-7.559L7.37,41.451l2.005,2.262c0.285,0.32,0.693,0.504,1.122,0.504
			c0.01,0,0.021,0,0.031,0.002c0.439-0.011,0.853-0.211,1.131-0.552l3.926-4.81l8.563-6.934c0.646-0.521,0.744-1.466,0.224-2.109
			C23.852,29.17,22.906,29.07,22.262,29.592z M5.655,22.749c1.439,0,2.655,1.731,2.655,3.781c0,2.049-1.216,3.78-2.655,3.78
			S3,28.579,3,26.53C3,24.48,4.216,22.749,5.655,22.749z M10.45,40.403l-2.014-2.271l3.311,0.682L10.45,40.403z"/>
		<path fill="#FFFFFF" d="M25.566,15.535c-2.974,0-5.395,2.395-5.396,5.339c0,2.943,2.421,5.338,5.396,5.338
			c2.976,0,5.396-2.395,5.396-5.338C30.962,17.93,28.541,15.535,25.566,15.535z M25.566,23.212c-1.32,0-2.396-1.048-2.396-2.338
			s1.076-2.339,2.396-2.339c1.322,0,2.396,1.05,2.396,2.339S26.889,23.212,25.566,23.212z"/>
	</g>
	</svg>