<svg version="1.1" class="header__top__toggle--older" xmlns="http://www.w3.org/2000/svg"  x="0px" y="0px"
		 width="28px" height="62px" viewBox="0 0 28 62" enable-background="new 0 0 28 62" xml:space="preserve">
	<path fill="#FFFFFF" d="M22.098,35.615L22.02,18.417c3.339-0.989,5.857-4.643,5.899-8.999c0.022-2.43-0.712-4.737-2.068-6.495
		C24.411,1.058,22.452,0.02,20.271,0c-4.196,0-7.65,4.159-7.7,9.272c-0.022,2.43,0.712,4.737,2.068,6.495
		c1.177,1.526,2.705,2.486,4.38,2.801l0.02,4.234L8.449,11.146l-4.923-7.97C3.09,2.469,2.164,2.253,1.462,2.688
		c-0.705,0.436-0.924,1.36-0.488,2.064L5.97,12.84c0.049,0.079,0.104,0.152,0.166,0.221l8.459,9.311l-6.41-3.395l-5.7-4.957
		c-0.626-0.543-1.572-0.477-2.116,0.147c-0.544,0.625-0.478,1.573,0.147,2.116l5.83,5.07c0.087,0.075,0.182,0.14,0.282,0.194
		l12.436,6.585l0.042,9.189l-8.058,20.373c-0.305,0.77,0.072,1.641,0.843,1.945c0.181,0.072,0.368,0.105,0.552,0.105
		c0.597,0,1.162-0.359,1.395-0.947l6.421-16.234l3.034,17.508c0.126,0.73,0.76,1.244,1.476,1.244c0.085,0,0.172-0.006,0.258-0.021
		c0.816-0.141,1.363-0.918,1.222-1.734L22.098,35.615z M17.015,13.935c-0.947-1.228-1.46-2.874-1.443-4.633
		C15.604,5.827,17.714,3,20.305,3c1.18,0.011,2.306,0.635,3.171,1.756c0.947,1.228,1.46,2.874,1.443,4.633
		c-0.033,3.475-2.144,6.301-4.702,6.301v0.031c-0.011,0.002-0.021,0.005-0.032,0.007l-0.001-0.039
		C19.005,15.679,17.88,15.056,17.015,13.935z"/>
	</svg>