<svg version="1.1" class="header__top__toggle--older--active" xmlns="http://www.w3.org/2000/svg"  x="0px" y="0px"
		 width="38px" height="62px" viewBox="0 0 38 62" enable-background="new 0 0 38 62" xml:space="preserve">
	<g>
		<path fill="#FFFFFF" d="M37.598,38.746l-2-5.667c-0.063-0.182-0.162-0.349-0.289-0.493l-6.714-7.609l-0.028-6.218
			c3.339-0.989,5.857-4.643,5.899-8.999c0.022-2.431-0.712-4.737-2.068-6.495c-1.439-1.865-3.398-2.903-5.579-2.923
			c-4.196,0-7.65,4.159-7.7,9.272c-0.022,2.43,0.712,4.736,2.068,6.494c1.177,1.526,2.705,2.486,4.38,2.801l0.016,3.254l-6.738-5.757
			L15.465,3.855c-0.215-0.8-1.045-1.275-1.838-1.059c-0.8,0.216-1.274,1.038-1.059,1.838l3.499,13
			c0.078,0.292,0.244,0.554,0.474,0.751l9.058,7.74l0.053,11.536l-8.057,20.374c-0.305,0.771,0.072,1.642,0.843,1.946
			c0.182,0.072,0.368,0.105,0.552,0.105c0.597,0,1.162-0.359,1.394-0.948l6.421-16.234l3.034,17.509
			c0.126,0.729,0.76,1.244,1.476,1.244c0.085,0,0.172-0.007,0.258-0.022c0.816-0.141,1.363-0.917,1.222-1.733l-4.149-23.945
			l-0.029-6.423l4.251,4.817l1.903,5.393c0.217,0.615,0.796,1.001,1.414,1.001c0.166,0,0.334-0.028,0.499-0.086
			C37.464,40.383,37.874,39.526,37.598,38.746z M26.764,16.031v0.031c-0.011,0.002-0.021,0.005-0.032,0.008l-0.001-0.039
			c-1.179-0.011-2.304-0.634-3.169-1.755c-0.947-1.229-1.46-2.874-1.443-4.634c0.033-3.475,2.143-6.301,4.733-6.301
			c1.18,0.011,2.306,0.635,3.171,1.756c0.947,1.228,1.46,2.873,1.443,4.633C31.433,13.205,29.322,16.032,26.764,16.031z"/>
		<path fill="#FFFFFF" d="M5.711,1.354c-2.976,0-5.396,2.396-5.396,5.339s2.42,5.339,5.396,5.339c2.975,0,5.396-2.396,5.396-5.339
			S8.686,1.354,5.711,1.354z M5.711,9.032c-1.321,0-2.396-1.049-2.396-2.339c0-1.289,1.074-2.339,2.396-2.339s2.396,1.05,2.396,2.339
			C8.107,7.983,7.033,9.032,5.711,9.032z"/>
	</g>
	</svg>