<?xml version="1.0" standalone="no"?>
<!DOCTYPE svg PUBLIC "-//W3C//DTD SVG 20010904//EN"
 "http://www.w3.org/TR/2001/REC-SVG-20010904/DTD/svg10.dtd">
<svg version="1.0" xmlns="http://www.w3.org/2000/svg"
 width="772.000000pt" height="772.000000pt" viewBox="0 0 772.000000 772.000000"
 preserveAspectRatio="xMidYMid meet">
<metadata>
Created by potrace 1.11, written by Peter Selinger 2001-2013
</metadata>
<g transform="translate(0.000000,772.000000) scale(0.100000,-0.100000)"
fill="#000000" stroke="none">
<path d="M3698 7645 c-2 -2 -39 -6 -83 -10 -90 -7 -142 -12 -194 -20 -20 -2
-54 -7 -76 -11 -22 -3 -87 -14 -145 -26 -58 -11 -109 -21 -115 -22 -5 -1 -16
-5 -22 -9 -7 -5 -13 -6 -13 -3 0 2 -33 -4 -72 -16 -40 -11 -82 -22 -92 -24
-48 -9 -329 -107 -401 -139 -65 -29 -126 -54 -133 -55 -4 -1 -22 -10 -39 -22
-18 -11 -33 -16 -33 -11 0 4 -4 3 -8 -3 -4 -6 -38 -26 -77 -44 -38 -19 -71
-37 -73 -42 -2 -4 -12 -8 -22 -8 -10 0 -21 -4 -24 -9 -3 -5 -32 -24 -64 -41
-57 -33 -271 -171 -301 -196 -9 -7 -68 -53 -131 -102 -63 -50 -142 -115 -175
-146 -33 -30 -63 -56 -67 -56 -5 0 -8 -5 -8 -11 0 -6 8 -8 18 -5 9 3 40 8 67
11 28 3 61 7 75 10 14 3 45 8 70 10 25 3 61 7 80 10 19 3 53 8 75 10 22 2 51
7 65 10 14 3 43 7 65 10 22 3 56 7 75 10 19 2 58 7 85 10 28 3 61 8 75 10 14
2 45 7 70 10 25 3 56 8 70 10 14 3 45 7 70 11 25 3 56 7 70 9 14 2 48 6 75 10
88 11 110 14 110 15 0 1 16 3 35 6 58 7 103 13 140 19 19 3 55 7 80 10 25 4
56 8 70 10 56 8 117 17 145 19 17 2 50 7 75 11 59 9 86 13 140 20 25 3 61 8
80 11 19 2 51 7 70 9 19 2 51 7 70 10 53 9 100 15 150 20 25 3 56 7 70 10 14
3 45 7 70 10 25 3 56 8 70 10 27 5 109 16 150 20 14 1 45 5 70 9 61 10 85 14
149 21 30 4 63 8 74 11 34 6 120 17 150 18 15 0 27 3 27 6 0 3 10 5 23 6 23 0
121 12 153 18 29 5 143 21 234 31 30 4 57 8 60 10 3 2 34 6 70 10 36 3 72 8
80 10 8 2 40 7 70 10 30 3 62 8 70 10 8 2 40 7 70 10 30 3 66 8 80 10 14 3 43
7 65 10 61 7 188 25 210 30 11 2 34 4 50 5 25 1 12 10 -78 56 -112 57 -369
164 -399 167 -10 1 -18 5 -18 9 0 4 -7 8 -16 8 -10 0 -42 9 -73 19 -68 23
-131 42 -151 44 -8 2 -20 5 -25 9 -6 3 -44 13 -85 22 -41 9 -93 20 -115 26
-22 5 -42 9 -45 10 -5 0 -45 7 -95 15 -16 3 -46 8 -65 10 -19 3 -44 7 -55 10
-18 3 -50 7 -201 22 -60 5 -541 13 -546 8z"/>
<path d="M6487 6923 c-3 -2 -89 -14 -132 -18 -16 -2 -30 -4 -30 -5 0 -1 -16
-3 -35 -4 -19 -2 -51 -6 -70 -9 -47 -8 -129 -19 -160 -21 l-25 -2 -3 -1333 -2
-1333 27 6 c16 3 51 8 78 11 28 3 61 7 75 10 34 6 97 15 145 20 22 3 51 7 65
10 14 2 45 7 70 11 25 3 47 9 50 14 4 6 5 2614 1 2642 -1 7 -48 8 -54 1z"/>
<path d="M5629 6806 c-2 -2 -26 -6 -54 -10 -63 -7 -201 -26 -236 -32 -50 -8
-114 -16 -129 -16 -8 -1 -20 -4 -26 -9 -7 -6 -10 -209 -10 -649 1 -352 0 -640
-1 -640 -3 0 -37 63 -38 70 -1 3 -30 64 -64 135 -35 72 -85 175 -111 230 -26
55 -80 168 -120 250 -138 286 -170 355 -170 365 0 5 -4 10 -10 10 -5 0 -10 5
-10 11 0 6 -14 40 -31 75 l-32 64 -56 -7 c-31 -3 -64 -6 -73 -7 -10 0 -18 -4
-18 -9 0 -4 -4 -5 -10 -2 -5 3 -36 2 -67 -4 -32 -5 -80 -13 -108 -16 -27 -3
-66 -9 -85 -12 -19 -3 -48 -7 -63 -7 -27 -1 -28 -3 -25 -38 2 -21 0 -38 -5
-38 -4 0 -5 -5 -1 -11 9 -15 9 -132 1 -146 -4 -6 -4 -13 0 -17 8 -8 8 -130 0
-143 -4 -6 -4 -13 0 -17 9 -9 9 -66 0 -66 -5 0 -5 -5 -1 -11 9 -15 8 -244 -1
-258 -3 -6 -3 -11 2 -11 4 0 8 -41 8 -90 0 -50 -3 -90 -7 -90 -4 0 -5 -10 -2
-22 7 -32 7 -225 0 -236 -3 -5 -3 -12 1 -16 8 -8 8 -130 0 -143 -4 -6 -4 -13
0 -17 8 -8 8 -130 0 -143 -4 -6 -4 -13 0 -17 8 -8 8 -130 0 -143 -4 -6 -4 -13
0 -17 9 -9 9 -66 0 -66 -5 0 -5 -5 -1 -11 9 -15 8 -244 -1 -258 -3 -6 -3 -11
2 -11 4 0 8 -41 8 -90 0 -50 -3 -90 -7 -90 -4 0 -5 -10 -2 -22 7 -32 7 -225 0
-236 -3 -5 -3 -12 1 -16 4 -3 6 -41 6 -83 -1 -43 0 -81 3 -84 2 -3 27 -3 56 2
29 4 73 10 98 13 93 12 127 16 190 26 36 6 85 12 110 15 24 3 46 9 50 14 3 5
5 297 5 649 0 352 3 638 8 635 4 -2 7 -11 7 -19 0 -8 4 -14 8 -14 4 0 14 -16
21 -35 7 -20 58 -129 113 -243 55 -114 114 -236 131 -272 17 -36 29 -66 27
-66 -3 -1 2 -10 10 -20 9 -11 61 -113 115 -229 125 -263 150 -310 162 -308 8
1 65 9 143 18 14 2 39 5 55 8 17 4 53 9 80 12 28 3 66 8 85 10 19 3 55 8 80
12 l45 9 1 1327 1 1327 -27 0 c-15 0 -29 -2 -31 -4z"/>
<path d="M3669 6536 c-2 -2 -29 -7 -59 -10 -30 -3 -66 -8 -80 -10 -29 -5 -113
-17 -150 -21 -46 -5 -125 -17 -140 -21 -13 -3 -15 -157 -14 -1326 1 -728 2
-1326 3 -1330 0 -4 11 -5 24 -2 44 9 73 13 122 19 28 3 61 8 75 10 14 3 45 7
70 10 25 3 56 7 70 10 14 3 49 7 78 10 29 2 57 7 62 10 5 3 9 588 9 1330 l0
1325 -33 0 c-18 0 -35 -2 -37 -4z"/>
<path d="M2755 6409 c-22 -4 -62 -10 -90 -13 -71 -9 -126 -17 -155 -21 -14 -2
-45 -7 -70 -10 -25 -4 -51 -8 -59 -9 -10 -2 -45 -91 -75 -191 -2 -5 -6 -17 -9
-25 -20 -50 -211 -636 -209 -642 1 -5 -1 -8 -6 -8 -8 0 -21 32 -142 370 -50
140 -94 262 -97 270 -4 8 -7 17 -8 20 -1 3 -4 12 -8 20 -3 8 -13 36 -22 62
-10 25 -22 45 -29 43 -12 -4 -72 -12 -146 -20 -25 -3 -54 -7 -65 -10 -11 -2
-42 -7 -70 -10 -27 -4 -61 -8 -75 -10 -14 -3 -50 -7 -82 -11 -31 -4 -58 -12
-60 -18 -2 -6 -4 -603 -3 -1326 l0 -1315 55 0 c30 0 64 3 75 6 11 4 44 9 73
13 28 3 67 8 85 11 57 9 111 16 157 21 25 3 51 7 57 9 10 3 13 125 15 542 l3
538 34 -100 c18 -55 39 -113 47 -130 15 -35 65 -175 68 -190 1 -5 11 -35 23
-65 12 -30 33 -89 48 -130 45 -123 62 -163 67 -154 5 9 61 173 63 184 2 10 37
116 45 135 4 11 46 134 92 274 l83 254 3 -542 c1 -324 6 -540 11 -536 5 3 31
8 58 11 26 3 59 7 73 9 14 3 50 7 80 11 30 3 64 8 75 11 19 4 53 8 135 18 58
7 71 11 78 22 4 6 7 602 6 1325 l0 1313 -45 1 c-24 0 -62 -3 -84 -7z"/>
<path d="M6939 5055 c0 -605 -1 -1108 -1 -1117 1 -13 -7 -18 -26 -19 -15 0
-36 -2 -47 -4 -11 -2 -37 -6 -58 -8 -21 -3 -40 -7 -43 -9 -2 -3 26 -29 64 -59
37 -29 69 -56 72 -59 5 -5 42 -36 124 -105 49 -41 81 -68 129 -111 l28 -25 0
-580 -1 -581 -31 -36 c-18 -21 -64 -73 -103 -116 -39 -44 -80 -90 -91 -102
-11 -12 -40 -46 -65 -74 -25 -28 -62 -70 -82 -93 -21 -23 -84 -94 -140 -159
-105 -118 -109 -121 -198 -134 -44 -6 -62 -8 -150 -18 -25 -3 -67 -10 -94 -15
-27 -5 -55 -7 -62 -4 -6 2 -15 0 -18 -5 -3 -6 -14 -8 -25 -5 -38 10 -46 -16
-45 -148 0 -69 3 -130 8 -137 4 -7 4 -12 -1 -12 -10 0 -10 -211 1 -228 4 -7 4
-12 -1 -12 -6 0 -9 -250 -4 -327 1 -11 92 45 111 67 3 3 21 17 40 30 141 98
423 363 570 536 39 45 183 228 200 254 8 12 20 28 25 34 16 19 75 106 75 112
0 5 40 64 50 74 5 5 26 41 57 100 10 19 21 37 24 40 7 6 15 21 88 167 30 59
75 158 101 218 46 108 144 386 153 435 3 14 10 36 15 50 5 14 10 28 11 33 0 4
1 8 2 10 1 4 8 33 17 77 6 25 13 56 16 70 4 14 8 36 11 50 3 14 7 36 10 50 2
13 7 40 10 60 3 20 7 45 9 55 2 11 7 45 11 75 4 30 9 62 10 71 19 99 26 608
12 765 -13 136 -33 285 -52 374 -3 14 -8 40 -11 59 -6 35 -70 294 -80 321 -3
8 -5 15 -4 15 7 0 -119 340 -160 430 -10 22 -18 42 -19 45 0 5 -95 192 -119
235 -88 160 -245 405 -264 413 -4 2 -8 8 -8 13 0 6 -11 22 -25 37 l-25 27 -1
-1100z"/>
<path d="M865 6090 c3 -6 -1 -13 -9 -16 -9 -3 -16 -12 -16 -20 0 -8 -4 -14
-10 -14 -5 0 -10 -6 -10 -14 0 -8 -3 -16 -7 -18 -5 -1 -21 -23 -38 -48 -16
-25 -36 -51 -42 -58 -7 -7 -25 -34 -40 -60 -15 -26 -30 -49 -33 -52 -9 -7
-178 -289 -219 -365 -18 -33 -36 -64 -39 -70 -4 -5 -7 -12 -7 -15 -1 -3 -14
-30 -30 -60 -16 -30 -30 -57 -30 -60 -1 -3 -15 -34 -32 -70 -16 -36 -30 -67
-30 -70 0 -3 -9 -23 -20 -45 -20 -39 -102 -256 -108 -285 -2 -8 -9 -28 -15
-45 -6 -16 -13 -37 -15 -45 -2 -8 -11 -44 -20 -80 -9 -36 -18 -72 -20 -80 -2
-8 -9 -37 -15 -65 -16 -71 -17 -73 -25 -140 -3 -32 -8 -62 -10 -65 -11 -18
-20 -190 -19 -370 1 -171 8 -315 14 -315 1 0 3 -9 4 -20 13 -100 20 -139 33
-195 8 -36 17 -76 19 -90 10 -54 12 -65 14 -67 2 -2 3 -6 4 -10 2 -5 8 -28 15
-53 7 -25 15 -52 16 -60 11 -49 105 -301 152 -410 26 -59 193 -393 215 -430
12 -19 26 -44 32 -55 7 -11 27 -46 46 -78 19 -32 40 -66 45 -75 34 -60 120
-188 127 -190 4 -2 8 -10 8 -18 0 -8 5 -14 10 -14 6 0 10 -6 10 -13 0 -8 9
-22 20 -32 11 -10 20 -22 20 -27 0 -5 9 -19 20 -30 l20 -22 0 543 c-1 424 2
547 12 560 17 21 159 182 178 201 8 8 47 51 85 94 l70 79 -55 -7 c-90 -12
-123 -17 -155 -21 -16 -2 -46 -7 -66 -9 -29 -5 -36 -3 -37 12 -1 9 -1 103 -1
207 0 105 0 197 0 205 -1 8 -1 62 0 120 0 58 0 112 0 120 0 8 0 56 0 105 0 50
0 99 -1 110 -5 115 -3 255 3 255 5 0 5 5 2 11 -4 5 -6 202 -6 437 1 235 2 434
1 442 0 8 0 62 1 120 0 58 0 110 0 115 0 6 0 123 0 260 0 138 -1 259 -1 270 0
11 0 64 0 118 0 61 -4 97 -11 97 -5 0 -7 -5 -4 -10z"/>
<path d="M6339 3716 c-2 -3 -24 -7 -49 -10 -25 -3 -112 -15 -195 -27 -82 -11
-163 -23 -180 -24 -16 -2 -43 -6 -60 -10 -16 -3 -54 -8 -83 -10 -29 -3 -65 -7
-80 -10 -35 -8 -66 -12 -127 -19 -28 -4 -70 -9 -95 -12 -25 -4 -54 -8 -65 -9
-11 -1 -20 -4 -20 -5 0 -1 -16 -3 -35 -5 -19 -1 -53 -5 -75 -9 -22 -4 -52 -9
-67 -10 -15 -1 -31 -5 -34 -9 -8 -7 -10 -2645 -3 -2651 2 -2 27 0 54 4 28 4
75 11 105 14 30 4 66 8 80 11 22 3 107 15 220 31 19 2 40 10 45 18 8 10 12
171 5 171 -1 0 -3 8 -5 18 -2 9 0 17 3 17 4 0 7 41 7 90 0 50 -3 90 -6 90 -4
0 -4 15 0 33 5 27 6 212 1 227 -6 19 -7 40 -2 40 6 0 7 177 2 190 -1 3 -1 10
0 15 1 6 2 27 2 47 -1 44 0 45 64 53 27 4 60 8 74 11 14 2 45 7 70 9 25 3 57
8 72 11 27 5 50 9 143 20 28 3 59 7 70 9 11 2 45 6 75 10 30 4 65 8 77 10 24
4 72 35 73 47 0 4 17 25 38 47 20 22 54 60 75 85 21 24 52 60 70 79 61 65 157
174 179 203 23 28 23 29 23 438 0 281 -3 413 -11 420 -6 6 -33 30 -60 52 -27
23 -110 93 -185 156 -140 119 -183 151 -190 144z m-146 -593 c40 -31 74 -60
77 -64 4 -6 5 -345 1 -370 -1 -3 -15 -21 -32 -40 -80 -89 -120 -129 -131 -130
-7 0 -20 -2 -28 -3 -8 -2 -39 -6 -69 -10 -30 -4 -64 -9 -75 -11 -31 -6 -191
-26 -231 -29 -15 -1 -20 5 -19 22 0 12 -3 22 -8 22 -5 0 -6 5 -2 11 5 9 9 204
4 219 -6 19 -7 40 -2 40 4 0 7 41 7 90 0 50 -4 90 -8 90 -5 0 -5 5 -1 11 3 6
6 42 6 79 l0 68 51 7 c29 4 59 9 68 10 9 2 40 6 69 10 69 9 88 13 100 20 6 3
10 1 10 -5 0 -7 6 -8 18 -2 9 5 35 10 57 11 22 2 42 5 44 7 10 10 26 1 94 -53z"/>
<path d="M4799 3505 c-6 -5 -59 -15 -118 -20 -25 -3 -55 -6 -66 -9 -11 -2 -42
-7 -70 -10 -27 -4 -61 -8 -75 -11 -14 -2 -47 -7 -75 -10 -27 -3 -58 -8 -67
-11 -16 -5 -17 -73 -17 -1006 l1 -1000 -34 -40 c-108 -131 -109 -132 -217
-143 -31 -4 -63 -8 -71 -10 -8 -3 -40 -7 -70 -10 -52 -5 -57 -3 -92 27 -21 18
-53 46 -71 61 l-34 29 1 1005 1 1005 -50 -7 c-85 -11 -99 -13 -147 -19 -26 -3
-76 -10 -110 -15 -35 -5 -85 -13 -113 -16 -75 -9 -84 -11 -90 -17 -10 -10 -10
-2235 0 -2244 6 -5 37 -32 70 -59 63 -53 111 -94 129 -110 6 -6 36 -30 66 -55
30 -25 64 -53 75 -64 48 -44 83 -65 101 -62 10 2 48 7 84 11 36 4 68 9 71 11
3 2 30 6 60 8 30 3 63 7 75 10 18 4 71 11 149 21 45 5 132 17 156 21 15 2 47
6 70 9 24 3 53 8 64 12 21 6 26 10 125 122 36 40 74 83 85 95 11 13 49 56 85
96 36 40 74 83 85 95 11 11 29 31 40 44 20 23 20 38 20 1138 0 1069 -2 1153
-26 1128z"/>
<path d="M2429 3176 c-2 -3 -29 -7 -59 -10 -30 -3 -64 -8 -76 -10 -12 -2 -45
-7 -75 -11 -30 -4 -69 -9 -88 -11 -19 -2 -46 -6 -60 -9 -32 -5 -93 -13 -146
-20 -22 -2 -51 -7 -65 -9 -14 -3 -47 -8 -75 -11 -27 -4 -63 -8 -80 -10 -34 -5
-66 -37 -285 -285 -41 -47 -93 -104 -115 -128 -22 -24 -44 -52 -50 -62 -6 -12
-9 -334 -9 -917 1 -494 2 -903 3 -909 1 -7 34 -38 73 -70 40 -32 80 -65 88
-74 9 -8 38 -33 65 -55 27 -22 65 -54 85 -71 19 -17 46 -39 59 -50 13 -10 30
-25 37 -32 9 -8 25 -11 42 -8 15 3 54 8 87 11 33 3 67 8 75 10 8 2 34 6 58 9
76 10 117 16 137 20 11 2 45 7 76 10 31 4 67 9 80 11 13 3 49 8 79 11 98 10
149 23 167 42 10 10 36 38 57 62 59 68 187 210 221 246 17 18 52 58 80 89 l50
57 0 209 0 210 -55 -5 c-30 -3 -66 -7 -80 -10 -14 -2 -45 -7 -70 -10 -103 -13
-136 -18 -160 -22 -14 -3 -45 -7 -69 -9 -82 -8 -79 -5 -79 -110 0 -90 -1 -95
-31 -127 -100 -111 -121 -129 -148 -134 -71 -11 -91 -14 -138 -20 -27 -3 -69
-9 -92 -14 -23 -4 -44 -4 -45 0 -2 4 -33 33 -69 64 -36 30 -66 61 -67 68 -6
70 -6 118 1 118 5 0 6 4 2 9 -5 9 -9 163 -5 186 1 6 2 14 0 20 -6 30 -4 105 3
105 5 0 5 4 2 10 -3 5 -6 45 -5 87 0 77 0 96 0 131 -1 14 -1 154 -1 200 0 6 0
33 0 60 0 26 0 75 0 109 0 34 2 66 5 71 2 4 1 14 -4 21 -4 8 -4 27 1 43 4 16
4 39 0 51 -4 11 -5 36 -1 54 5 18 4 35 0 38 -13 8 -1 38 28 71 111 127 121
135 159 139 21 2 52 6 68 9 17 3 57 8 90 11 33 4 68 9 79 12 10 3 21 1 25 -4
3 -5 36 -32 74 -62 73 -57 70 -49 69 -173 -1 -78 -5 -76 118 -58 36 5 83 11
105 14 58 7 111 15 185 27 36 5 74 11 85 11 20 2 20 8 20 216 l0 214 -25 20
c-67 53 -93 74 -104 83 -6 6 -51 45 -101 86 -108 89 -133 111 -149 124 -6 6
-21 18 -32 28 -11 9 -23 15 -25 13z"/>
<path d="M3014 563 c-32 -37 -68 -77 -79 -89 -11 -12 -51 -56 -90 -99 -38 -43
-76 -83 -82 -91 -28 -28 -28 -28 247 -99 139 -36 144 -38 220 -50 25 -4 54 -9
65 -11 11 -3 35 -7 53 -9 17 -3 49 -7 70 -11 20 -3 57 -7 82 -10 25 -2 70 -7
100 -10 77 -9 571 -10 650 -1 36 4 88 9 115 12 28 3 61 7 75 10 14 2 45 7 70
10 25 4 63 10 86 15 22 5 58 12 80 15 21 2 84 16 139 30 151 39 171 44 190 48
6 2 15 6 21 9 6 4 21 9 35 12 23 4 157 49 189 63 8 3 20 7 25 9 58 15 457 201
463 216 2 5 8 8 13 8 5 0 23 9 41 20 l33 20 -45 -5 c-25 -2 -61 -7 -80 -10
-51 -8 -131 -19 -216 -30 -42 -5 -108 -14 -144 -20 -14 -2 -52 -7 -85 -11 -33
-3 -63 -8 -66 -10 -3 -1 -32 -5 -65 -9 -33 -3 -68 -7 -79 -9 -28 -5 -91 -14
-145 -21 -25 -4 -56 -8 -70 -10 -14 -2 -47 -6 -75 -10 -27 -3 -78 -10 -113
-16 -34 -5 -84 -12 -110 -15 -26 -3 -74 -9 -107 -14 -33 -5 -82 -12 -110 -16
-27 -3 -59 -8 -70 -10 -11 -3 -41 -7 -67 -9 -25 -2 -59 -6 -75 -9 -15 -2 -48
-7 -73 -11 -25 -4 -56 -8 -70 -10 -14 -2 -48 -7 -76 -10 -28 -3 -61 -8 -75
-10 -13 -3 -47 -8 -75 -10 -28 -3 -62 -8 -75 -10 -21 -5 -86 -14 -131 -18 -9
-1 -35 14 -58 33 -23 19 -63 53 -89 75 -27 22 -59 49 -72 60 -13 11 -42 35
-64 54 -22 18 -60 50 -84 70 -25 20 -53 44 -63 54 -10 9 -20 17 -21 17 -2 0
-30 -30 -63 -67z"/>
</g>
</svg>
