<?xml version="1.0" standalone="no"?>
<!DOCTYPE svg PUBLIC "-//W3C//DTD SVG 20010904//EN"
 "http://www.w3.org/TR/2001/REC-SVG-20010904/DTD/svg10.dtd">
<svg version="1.0" xmlns="http://www.w3.org/2000/svg"
 width="400.000000pt" height="400.000000pt" viewBox="0 0 400.000000 400.000000"
 preserveAspectRatio="xMidYMid meet">
<metadata>
Created by potrace 1.11, written by Peter Selinger 2001-2013
</metadata>
<g transform="translate(0.000000,400.000000) scale(0.100000,-0.100000)"
fill="#000000" stroke="none">
<path d="M0 2000 l0 -2000 2000 0 2000 0 0 2000 0 2000 -2000 0 -2000 0 0
-2000z m2294 1335 c485 -100 852 -480 933 -967 l16 -97 28 14 c15 8 33 28 41
45 10 23 19 30 40 30 l28 0 0 -250 0 -250 -50 0 -50 0 0 181 c0 166 -1 180
-17 177 -15 -3 -19 -19 -24 -113 -48 -813 -895 -1331 -1647 -1007 -131 56
-254 142 -363 251 -150 150 -243 307 -300 506 -13 44 -25 82 -26 84 -2 3 -23
-14 -46 -37 l-43 -42 -84 0 c-84 0 -84 0 -122 37 l-38 37 0 175 0 175 37 38
37 38 85 0 c82 0 86 -1 118 -32 18 -17 34 -30 36 -27 2 2 11 47 21 99 10 52
24 109 31 125 7 17 19 47 25 69 18 56 106 146 144 146 3 0 -15 -43 -40 -95
-25 -52 -57 -138 -71 -192 -24 -88 -27 -115 -27 -273 0 -158 3 -185 27 -275
53 -197 159 -376 305 -517 165 -158 343 -250 565 -293 99 -19 303 -19 399 -1
271 52 516 203 679 419 165 218 248 509 219 772 -55 511 -430 903 -943 985
-104 17 -307 8 -412 -19 -44 -11 -128 -31 -187 -45 -60 -14 -143 -39 -185 -55
-75 -29 -77 -29 -49 -6 42 34 209 119 293 149 65 23 179 48 273 60 63 8 268
-3 344 -19z m-131 -91 c18 -9 49 -32 70 -52 28 -28 48 -37 84 -42 41 -4 50
-10 77 -48 36 -49 112 -103 134 -94 11 4 13 2 7 -8 -5 -9 -4 -11 3 -6 21 13
99 -30 117 -63 9 -18 13 -35 11 -40 -22 -35 -389 -49 -461 -18 -31 13 -36 13
-20 2 11 -9 38 -20 60 -26 50 -14 292 -13 364 1 71 13 71 13 71 -10 0 -54
-156 -80 -372 -61 -221 19 -364 75 -403 158 -17 35 -17 92 0 173 3 16 -2 11
-15 -15 -48 -97 1 -210 120 -275 l55 -30 -60 6 c-117 11 -161 39 -210 133 -26
51 -16 114 31 197 52 92 52 91 11 60 -132 -101 -138 -271 -13 -347 l31 -19
-48 0 c-36 0 -46 3 -40 13 9 15 -66 -44 -91 -72 -23 -25 -44 -28 -25 -3 13 15
12 16 -3 3 -10 -7 -16 -17 -13 -21 6 -10 -14 -26 -40 -33 l-20 -5 20 -1 c11 0
46 20 79 47 32 26 65 51 72 57 23 17 26 -2 6 -42 -11 -21 -28 -64 -38 -96 -10
-31 -20 -53 -24 -48 -3 6 -44 4 -105 -4 -55 -8 -103 -15 -107 -15 -5 0 -8 -31
-8 -68 l0 -68 -46 -38 c-54 -45 -60 -44 -152 40 l-57 51 14 64 c7 35 31 98 52
140 43 83 53 89 150 89 33 0 36 -2 32 -24 -4 -20 2 -29 28 -45 19 -12 39 -21
44 -21 6 0 -4 9 -21 19 -66 40 -53 60 49 81 34 7 76 16 92 21 42 12 -53 2
-118 -12 -47 -11 -74 -6 -49 9 6 5 13 19 14 32 3 24 1 25 -52 21 -30 -1 -59
-5 -63 -8 -14 -8 13 -31 44 -38 46 -10 29 -16 -61 -22 -81 -5 -82 -5 -71 16
11 19 9 21 -19 21 -34 0 -42 -26 -12 -38 12 -4 6 -8 -23 -13 -30 -5 -42 -3
-51 9 -7 10 -18 13 -30 8 -18 -7 -18 -8 -1 -21 17 -12 16 -14 -12 -20 -39 -8
-146 -78 -155 -100 -3 -10 -9 -15 -12 -12 -7 7 68 156 114 224 68 103 230 201
442 267 248 77 551 116 623 80z m627 -447 c67 -82 102 -158 107 -232 2 -33 0
-65 -4 -71 -8 -11 -147 -94 -157 -94 -3 0 -6 83 -6 185 0 102 -4 185 -8 185
-11 0 -289 -38 -328 -45 -21 -4 -33 -1 -37 8 -3 9 13 13 67 14 39 1 107 9 151
18 96 19 128 46 118 96 l-6 31 28 -18 c15 -10 49 -44 75 -77z m-820 -15 c36
-6 126 -13 200 -17 110 -5 137 -9 148 -23 8 -11 9 -18 2 -20 -5 -2 -10 -13
-10 -25 -1 -21 -1 -21 -14 -4 -15 19 19 22 -469 -44 -43 -6 -81 -8 -84 -5 -7
7 23 88 49 132 20 34 1 33 178 6z m700 -372 c0 -216 -3 -282 -12 -284 -7 -3
-32 -7 -55 -10 l-43 -6 0 284 c0 317 -6 292 73 295 l37 1 0 -280z m-190 -24
l0 -283 -31 -7 c-72 -14 -71 -15 -137 122 l-62 127 0 -137 c0 -154 8 -138 -77
-152 l-33 -5 0 285 c0 219 3 286 13 288 6 3 30 7 53 10 l40 6 60 -128 59 -127
5 135 5 135 35 6 c77 14 70 41 70 -275z m-420 -60 l0 -283 -37 -7 c-80 -13
-74 -39 -71 276 l3 283 30 6 c17 4 40 7 53 8 l22 1 0 -284z m-180 -27 c0 -215
-3 -281 -12 -283 -7 -3 -32 -7 -55 -10 l-43 -6 -1 117 -1 118 -29 -84 c-16
-46 -30 -86 -33 -88 -2 -2 -17 31 -32 74 l-29 78 -3 -117 c-2 -104 -5 -118
-20 -118 -9 0 -34 -3 -54 -6 l-38 -7 0 285 0 285 38 7 c71 11 78 9 91 -34 6
-22 20 -59 30 -82 l18 -43 28 85 c15 47 31 89 36 94 9 10 89 25 102 19 4 -3 7
-130 7 -284z m-524 21 c-16 -99 -17 -208 -4 -272 l14 -66 -79 -51 c-89 -58
-90 -58 -134 16 -90 155 -81 361 24 500 l24 33 80 -62 c79 -61 81 -64 75 -98z
m1594 99 c36 -50 68 -133 82 -213 19 -104 -20 -241 -90 -325 l-28 -34 -62 43
c-34 24 -62 49 -62 56 0 7 -12 21 -27 32 l-28 20 0 182 1 183 84 48 c47 27 88
49 92 49 5 0 21 -18 38 -41z m-1480 -251 l-1 -243 -33 36 c-28 30 -36 50 -46
109 -20 119 1 264 46 311 15 16 29 29 31 29 2 0 3 -109 3 -242z m-1009 150
c35 -40 38 -47 39 -105 l0 -61 -115 -84 c-70 -50 -114 -89 -112 -98 2 -12 23
-15 115 -15 l112 0 0 -47 0 -48 -165 0 -165 0 0 85 0 85 115 86 c91 67 115 90
115 109 0 31 -24 42 -75 35 -29 -3 -43 -11 -50 -27 -8 -19 -18 -23 -57 -23
-47 0 -48 0 -48 32 0 24 10 43 42 75 l42 43 84 0 84 0 39 -42z m3328 -3 c29
-32 41 -53 41 -75 0 -29 -1 -30 -48 -30 -39 0 -49 4 -57 23 -8 17 -20 23 -53
25 -55 4 -72 -10 -72 -59 l0 -39 67 0 c67 0 68 0 115 -47 47 -46 48 -49 48
-108 0 -58 -2 -62 -43 -103 l-43 -42 -79 0 -79 0 -43 42 -43 42 0 165 0 165
42 43 42 43 82 0 81 0 42 -45z m-1089 -265 c0 -5 -4 -10 -9 -10 -6 0 -13 5
-16 10 -3 6 1 10 9 10 9 0 16 -4 16 -10z m-24 -87 l44 -37 0 -89 0 -88 -50
-53 c-49 -52 -52 -54 -120 -60 l-70 -7 0 -108 0 -108 -37 -7 c-80 -13 -73 -39
-73 278 l0 285 58 7 c31 3 77 10 102 14 85 14 99 12 146 -27z m-376 -249 l0
-235 -51 -54 c-49 -52 -52 -53 -122 -61 -40 -5 -75 -8 -79 -9 -5 0 -28 16 -53
35 l-44 35 -1 241 0 242 31 6 c17 3 42 6 55 6 l24 0 0 -212 c0 -238 2 -247 64
-240 61 7 65 23 68 264 l3 213 45 5 c25 3 48 4 53 2 4 -2 7 -109 7 -238z
m-856 184 l65 -51 -24 -29 c-25 -29 -25 -33 -25 -214 0 -165 -2 -184 -16 -176
-37 21 -129 122 -165 182 -39 66 -73 173 -67 213 2 14 29 40 78 74 41 29 78
52 82 53 4 0 37 -23 72 -52z m108 -10 c-9 -9 -15 -9 -24 0 -9 9 -7 12 12 12
19 0 21 -3 12 -12z m1344 -127 c-13 -138 -161 -322 -322 -402 -66 -33 -137
-48 -148 -31 -4 7 18 13 59 17 l65 7 0 108 0 109 55 6 c53 7 58 10 120 80 l65
72 0 87 0 87 56 -43 56 -43 -6 -54z m-1064 85 c34 -28 38 -36 38 -77 0 -44 -2
-47 -31 -53 -49 -10 -69 -7 -69 8 0 43 -82 63 -114 27 -14 -16 -17 -41 -17
-166 0 -98 4 -151 12 -161 29 -35 119 1 119 48 0 20 7 24 63 32 l37 5 0 -47
c0 -41 -6 -53 -43 -96 -42 -48 -45 -49 -125 -61 l-81 -12 -45 36 -45 36 0 200
-1 200 44 50 c43 49 45 50 122 60 88 12 85 13 136 -29z m478 -507 c0 -17 5
-20 28 -15 18 4 37 0 55 -12 l28 -19 -25 -30 c-43 -51 -133 -68 -356 -68 -153
0 -194 3 -237 18 -60 21 -69 37 -21 37 27 0 41 10 84 57 l51 58 38 -30 c20
-17 45 -35 54 -42 13 -10 38 -9 121 3 91 13 109 19 134 44 32 31 46 31 46 -1z
m-657 -385 c3 -3 -7 -43 -24 -89 -16 -46 -29 -86 -29 -90 0 -3 14 -11 30 -16
32 -12 35 -16 22 -36 -6 -10 -18 -9 -53 4 -24 9 -46 18 -48 19 -3 3 57 190 66
207 5 8 27 9 36 1z m847 -80 c32 -80 35 -85 59 -79 43 11 46 11 46 -9 0 -13
-14 -24 -45 -36 l-46 -18 -43 105 c-33 83 -40 108 -29 114 7 5 15 9 18 9 3 0
21 -39 40 -86z m-93 32 c-4 -9 -13 -16 -21 -16 -8 0 -26 -4 -39 -9 -20 -8 -23
-15 -20 -36 4 -20 10 -24 25 -19 13 4 24 1 29 -7 13 -20 11 -29 -5 -29 -20 0
-29 -16 -21 -41 5 -16 12 -19 31 -15 13 3 35 9 49 12 20 5 25 2 25 -14 0 -15
-13 -23 -61 -36 -33 -10 -62 -16 -64 -14 -4 4 -52 175 -57 202 -2 15 8 22 57
36 62 17 82 13 72 -14z m-627 -2 c0 -9 -7 -44 -16 -78 -38 -151 -35 -145 -61
-128 -9 6 -6 31 13 102 14 52 27 101 29 108 6 18 35 15 35 -4z m150 -35 c0
-11 -9 -19 -22 -21 -21 -3 -24 -12 -37 -90 -11 -74 -17 -88 -32 -88 -11 0 -19
6 -19 13 0 13 16 113 25 153 3 16 -1 23 -15 27 -11 3 -20 14 -20 24 0 18 4 19
60 10 47 -8 60 -14 60 -28z m316 -41 c-14 -153 -17 -168 -36 -168 -20 0 -21 1
-61 119 -34 100 -34 101 -11 101 13 0 24 -16 37 -52 17 -48 20 -51 26 -28 4
14 7 39 8 57 1 21 7 33 19 36 9 3 19 5 21 6 2 0 1 -32 -3 -71z m-174 35 c25
-23 26 -167 1 -195 -22 -25 -84 -24 -108 2 -15 17 -17 31 -11 102 4 45 12 88
18 95 15 18 78 16 100 -4z"/>
<path d="M684 2257 c-11 -6 -14 -37 -14 -147 0 -127 2 -140 19 -150 30 -16 76
-12 94 8 24 26 25 263 2 282 -18 15 -79 19 -101 7z"/>
<path d="M1622 3138 c-19 -19 -14 -28 14 -28 29 0 64 16 64 30 0 14 -64 12
-78 -2z"/>
<path d="M2126 3119 c-42 -33 -31 -100 21 -120 30 -11 68 8 78 41 4 11 11 18
16 15 5 -3 -1 10 -14 29 -18 28 -54 56 -71 56 -2 0 -15 -9 -30 -21z m64 -19
c24 -24 26 -53 4 -74 -20 -20 -33 -20 -56 1 -22 20 -23 56 -2 77 20 21 30 20
54 -4z"/>
<path d="M2152 3048 c5 -15 28 -18 29 -3 0 6 -7 12 -17 13 -10 3 -15 -1 -12
-10z"/>
<path d="M1465 3094 c-51 -19 -73 -40 -58 -55 13 -13 113 38 113 59 0 15 -4
14 -55 -4z"/>
<path d="M1549 3061 c-32 -26 -16 -45 22 -26 16 9 29 19 29 24 0 18 -30 19
-51 2z"/>
<path d="M1340 3010 c-13 -8 -13 -11 1 -25 15 -15 17 -15 33 0 9 9 16 21 16
26 0 12 -31 11 -50 -1z"/>
<path d="M1235 2980 c-10 -11 -15 -23 -11 -27 8 -8 59 20 64 36 6 19 -34 12
-53 -9z"/>
<path d="M1440 2994 c0 -18 24 -44 40 -44 25 0 25 12 2 33 -18 17 -42 23 -42
11z"/>
<path d="M1594 2986 c-29 -22 -6 -39 40 -31 40 8 46 19 17 35 -26 13 -33 13
-57 -4z"/>
<path d="M1327 2933 c-14 -13 -6 -23 18 -23 28 0 34 15 9 24 -19 7 -19 7 -27
-1z"/>
<path d="M1522 2933 c-6 -3 -10 -9 -6 -14 7 -12 44 -12 44 0 0 11 -21 19 -38
14z"/>
<path d="M1147 2903 c-12 -12 -7 -22 8 -17 8 4 15 10 15 15 0 11 -14 12 -23 2z"/>
<path d="M1611 2896 c-17 -21 9 -37 48 -30 39 8 47 20 22 33 -27 15 -56 14
-70 -3z"/>
<path d="M1203 2888 c2 -7 10 -13 17 -13 7 0 15 6 18 13 2 7 -5 12 -18 12 -13
0 -20 -5 -17 -12z"/>
<path d="M1090 2785 c-14 -16 -10 -18 14 -9 9 3 16 10 16 15 0 14 -16 11 -30
-6z"/>
<path d="M3600 2021 c0 -48 20 -66 69 -62 46 4 61 16 61 50 0 39 -18 51 -77
51 l-53 0 0 -39z"/>
<path d="M2513 1883 l-33 -4 0 -76 c0 -64 2 -74 16 -69 9 3 29 6 45 6 43 0 69
31 69 85 0 45 -19 67 -52 63 -7 0 -28 -3 -45 -5z"/>
<path d="M1995 817 c-4 -13 -5 -46 -3 -73 3 -45 5 -49 28 -49 24 0 25 2 25 70
0 65 -2 70 -22 73 -16 2 -24 -3 -28 -21z"/>
</g>
</svg>
