<?xml version="1.0" encoding="UTF-8" standalone="no"?>
<!-- Created with Inkscape (http://www.inkscape.org/) -->

<svg
   xmlns:dc="http://purl.org/dc/elements/1.1/"
   xmlns:cc="http://creativecommons.org/ns#"
   xmlns:rdf="http://www.w3.org/1999/02/22-rdf-syntax-ns#"
   xmlns:svg="http://www.w3.org/2000/svg"
   xmlns="http://www.w3.org/2000/svg"
   xmlns:sodipodi="http://sodipodi.sourceforge.net/DTD/sodipodi-0.dtd"
   xmlns:inkscape="http://www.inkscape.org/namespaces/inkscape"
   version="1.1"
   id="svg885"
   width="29.440001"
   height="28.639999"
   viewBox="0 0 29.440001 28.639999"
   sodipodi:docname="horka-nad-moravou.svg"
   inkscape:version="0.92.4 (33fec40, 2019-01-16)"
   inkscape:export-filename="/home/thejoeejoee/mc/litovel-minicup/www/assets/img/logos/2019/horka-nad-moravou.png"
   inkscape:export-xdpi="834.78003"
   inkscape:export-ydpi="834.78003">
  <metadata
     id="metadata891">
    <rdf:RDF>
      <cc:Work
         rdf:about="">
        <dc:format>image/svg+xml</dc:format>
        <dc:type
           rdf:resource="http://purl.org/dc/dcmitype/StillImage" />
        <dc:title></dc:title>
      </cc:Work>
    </rdf:RDF>
  </metadata>
  <defs
     id="defs889" />
  <sodipodi:namedview
     pagecolor="#ffffff"
     bordercolor="#666666"
     borderopacity="1"
     objecttolerance="10"
     gridtolerance="10"
     guidetolerance="10"
     inkscape:pageopacity="0"
     inkscape:pageshadow="2"
     inkscape:window-width="1920"
     inkscape:window-height="1136"
     id="namedview887"
     showgrid="false"
     fit-margin-top="0"
     fit-margin-left="0"
     fit-margin-right="0"
     fit-margin-bottom="0"
     inkscape:zoom="10.634223"
     inkscape:cx="5.9732597"
     inkscape:cy="9.4107089"
     inkscape:window-x="1280"
     inkscape:window-y="27"
     inkscape:window-maximized="1"
     inkscape:current-layer="svg885" />
  <g
     id="g1032"
     transform="translate(-34.165227,-2.9445763)">
    <path
       sodipodi:nodetypes="sscccccccscssscssccsscccsscccccsscccssscsscsssccsccssc"
       style="fill:#916dc4;stroke-width:0.31999999"
       d="m 34.165227,31.439632 c 0,-0.985524 3.874835,-5.793555 4.314638,-5.353752 0.100934,0.100934 1.187432,-0.812707 2.414439,-2.030312 1.330141,-1.548231 2.139069,-1.978996 3.573046,-3.46441 0.666169,-1.585412 0.718071,-1.698169 0.455221,-3.032759 -0.19394,-1.46199 0.651051,-2.580245 -0.569817,-3.059815 -1.234767,-0.101574 -2.211076,0.104604 -3.175017,0.07377 -1.207868,0.115189 -1.276753,0.06865 -1.886055,-1.27411 C 38.943863,12.531725 38.65612,11.625857 38.652255,11.2852 38.648355,10.944544 38.344914,10.346156 37.977864,9.9554493 L 37.310501,9.2450736 37.977864,9.0332609 c 0.36705,-0.1164973 0.667363,-0.4181092 0.667363,-0.670249 0,-0.2521395 0.148511,-0.4584358 0.330025,-0.4584358 0.181513,0 0.304396,0.468 0.273074,1.04 -0.03132,0.5719999 0.311566,1.8574239 0.761973,2.8564969 0.794418,1.762144 0.850879,1.811498 1.886925,1.649432 1.8749,-0.293287 3.148003,-0.976589 3.148003,-1.689601 -0.718307,-0.575851 -0.781066,-1.776968 -0.64,-2.6867318 0,-1.2793369 0.907047,-2.2296316 1.973611,-2.0677132 0.770265,0.116936 1.209272,0.3977336 0.84472,1.6002657 -0.173853,0.573481 -0.781065,2.4869043 -0.143689,2.6468763 7.148167,5.383494 2.583478,-0.463666 6.765358,1.158223 0.352,0.0267 0.75147,0.03033 0.88771,0.0081 0.136241,-0.02226 0.817957,0.121393 1.543658,0.491618 0.841746,0.429427 1.239817,0.609134 1.803692,0.496359 0.582242,-0.116448 1.364007,0.112704 1.473947,0.399203 0.09179,0.239209 0.102664,0.499158 0.02416,0.577664 -0.606736,-0.789627 -0.474532,0.268894 -4.0199,-0.575003 -7.4206,-0.563494 -2.825197,11.50545 -3.451514,13.909714 -0.09996,1.130184 -0.333737,2.104847 -0.5195,2.165917 -0.185762,0.06107 -0.662976,-0.467627 -1.060475,-1.174881 -0.397499,-0.707254 -0.835193,-1.285917 -0.972654,-1.285917 -0.341218,0 -1.165742,0.990491 -1.420649,1.706611 -0.320197,0.899538 -1.006124,0.440766 -1.027504,-0.687232 -0.01047,-0.55226 -0.118468,-1.103545 -0.24,-1.225078 -0.121535,-0.121555 -0.220971,-0.41299 -0.220971,-0.647657 0,-0.495147 1.147379,-0.580138 1.44,-0.106667 0.383222,0.620066 0.457217,0.569269 1.018831,-0.284471 0.30506,-0.463739 1.006896,0.595898 1.393227,0.379694 0.921738,-0.51583 -1.238732,-2.655223 -2.884868,-2.655223 -1.782805,0 -5.394248,1.729616 -6.870506,3.143961 -0.555904,0.532589 -1.434449,1.057011 -1.761816,0.931389 -0.677632,-0.260032 -1.56785,0.157136 -1.56785,0.782745 0,0.755938 -2.004195,2.821905 -2.660574,2.821905 -0.322544,0 -0.586444,-0.06522 -0.586444,-0.144943 z M 53.826783,13.054419 c 0.09863,-0.159587 -0.108872,-0.214792 -0.461114,-0.122679 -0.747196,0.195397 -0.841647,0.412836 -0.179327,0.412836 0.253613,0 0.541811,-0.130571 0.640441,-0.290157 z M 35.978561,8.3312426 c -0.384058,-0.3840572 -0.223738,-1.6196668 0.262511,-2.0232178 1.126319,-0.9347622 2.99273,0.6617856 2.071411,1.7719074 -0.392142,0.4725024 -1.945472,0.639761 -2.333922,0.2513104 z"
       id="path1019"
       inkscape:connector-curvature="0" />
    <path
       sodipodi:nodetypes="cccccccccssccscccssssscccsscscsccccsssccscccsccscscssscss"
       style="fill:#0b963b;stroke-width:0.31999999"
       d="m 38.965227,27.591356 c 0,-1.054606 3.587196,-5.480793 4.156663,-5.128843 0.152913,0.0945 0.954075,-0.61124 1.780361,-1.568324 5.224241,-4.829439 3.255372,-3.110426 4.01293,-3.807565 0.154692,-2.40055 0.507313,-4.639744 -1.549954,-5.376856 -0.632567,-0.236641 -0.810713,-0.622882 -0.685016,-1.48519 0.01924,-0.132 0.667242,-0.4243574 1.44,-0.6496832 0.772759,-0.2253277 1.421598,-0.5853277 1.441865,-0.8000019 0.447241,-0.7237656 0.03437,-1.6556396 -0.384516,-1.9743168 -0.464695,-0.4832406 -0.339359,-2.0032597 0.210524,-2.5531427 0.276571,-0.2765715 0.851788,-0.5028572 1.278258,-0.5028572 0.706744,0 1.166914,0.1157934 1.004678,1.1366234 0.165104,1.2154541 0.175876,1.3538991 -0.755827,2.1320678 -0.705045,0.5709111 -0.546617,0.8270613 1.652987,0.6555996 l 2.237047,-0.1743808 c 4.668174,1.2778588 5.544236,3.0497308 0.208066,2.3708714 -0.257626,0.6764314 -0.85165,1.2457764 -0.448764,2.8773394 l 0.360349,1.794309 c 0.198192,0.98687 0.360349,2.566918 0.360349,3.511217 0,0.9443 0.216,2.233869 0.48,2.86571 0.619668,1.483073 0.654839,4.910642 0.05039,4.910642 -0.236286,0 -0.703107,-0.507853 -1.03738,-1.128561 -0.72622,-1.348508 -1.38322,-1.328973 -2.078922,0.06181 -0.607517,1.214497 -1.306231,0.977633 -1.200722,-0.407046 0.03958,-0.519487 -0.03058,-1.110452 -0.155918,-1.313254 -0.375539,-0.607634 0.185421,-0.583385 1.199903,-0.237702 0.735947,0.250773 0.547594,-0.03951 0.682421,-0.370398 0.230153,-0.564836 1.244277,0.94005 1.630327,0.657766 0.352106,-0.313969 -1.090453,-3.02262 -2.873343,-3.02262 -1.398216,0 -2.345159,0.331672 -5.901114,2.066896 -2.820664,1.376424 -4.235642,2.238762 -4.235642,2.581356 0,0.73359 -1.507321,2.612873 -2.251884,2.807581 -0.345464,0.09034 -0.628116,0.122269 -0.628116,0.07095 z M 42.226554,9.4242858 C 41.840825,8.4936426 41.525227,7.5303291 41.525227,7.2835889 c 0,-0.2467405 -0.238318,-0.7119574 -0.529596,-1.0338156 -0.493182,-0.54496 -0.492473,-0.5851971 0.01031,-0.5851971 0.296949,0 0.67014,-0.324 0.829312,-0.72 0.253658,-0.6310667 0.29191,-0.5765542 0.309688,0.4413302 0.02739,1.5680556 1.444395,4.7436006 2.267522,4.8532816 0,0 0.468216,0.934981 -0.425911,0.805878 -0.996897,0.06714 -1.099596,-0.02744 -1.76,-1.6207802 z m 18.498673,1.0312962 c -1.496,-0.330058 -3.388594,-0.6070575 -4.205764,-0.6155554 -5.388835,-0.6449016 -1.235258,-2.6907651 1.90676,-0.8307958 0.824452,0.217607 2.032094,0.6441806 2.605804,0.8130353 0.668761,0.1968299 1.187083,0.3553699 1.675437,0.2620159 0.660722,-0.1263045 0.897763,0.112029 0.897763,0.502989 0,0.284518 -0.153545,0.894204 -0.197545,0.880759 -0.102773,-0.953801 -1.186455,-0.68239 -2.682455,-1.012448 z M 38.826602,3.9193115 c 0,-0.3866169 0.138864,-0.9747352 1.258625,-0.9747352 1.119762,0 1.423662,1.0197748 0.826418,1.7394105 -0.231345,0.2787528 -0.429518,0.3405894 -0.826418,0.3405894 -0.396899,0 -1.258625,-0.091782 -1.258625,-1.1052647 z"
       id="path1013"
       inkscape:connector-curvature="0" />
  </g>
</svg>
