<?xml version="1.0" encoding="UTF-8" standalone="no"?>
<svg
   xmlns:dc="http://purl.org/dc/elements/1.1/"
   xmlns:cc="http://creativecommons.org/ns#"
   xmlns:rdf="http://www.w3.org/1999/02/22-rdf-syntax-ns#"
   xmlns:svg="http://www.w3.org/2000/svg"
   xmlns="http://www.w3.org/2000/svg"
   xmlns:sodipodi="http://sodipodi.sourceforge.net/DTD/sodipodi-0.dtd"
   xmlns:inkscape="http://www.inkscape.org/namespaces/inkscape"
   version="1.1"
   id="Layer_1"
   x="0px"
   y="0px"
   width="529.68182"
   height="253.2034"
   viewBox="0 0 529.68183 253.2034"
   enable-background="new 0 0 1331 1007"
   xml:space="preserve"
   sodipodi:docname="logo.svg"
   inkscape:export-filename="/home/thejoeejoee/mc/litovel-minicup/www/assets/img/ryba.png"
   inkscape:export-xdpi="75"
   inkscape:export-ydpi="75"
   inkscape:version="0.92.4 (33fec40, 2019-01-16)"><metadata
   id="metadata4157"><rdf:RDF><cc:Work
       rdf:about=""><dc:format>image/svg+xml</dc:format><dc:type
         rdf:resource="http://purl.org/dc/dcmitype/StillImage" /><dc:title></dc:title></cc:Work></rdf:RDF></metadata><defs
   id="defs4155" /><sodipodi:namedview
   pagecolor="#86ffff"
   bordercolor="#666666"
   borderopacity="1"
   objecttolerance="10"
   gridtolerance="10"
   guidetolerance="10"
   inkscape:pageopacity="0"
   inkscape:pageshadow="2"
   inkscape:window-width="1920"
   inkscape:window-height="1136"
   id="namedview4153"
   showgrid="false"
   fit-margin-top="0"
   fit-margin-left="0"
   fit-margin-right="0"
   fit-margin-bottom="0"
   inkscape:zoom="0.64882489"
   inkscape:cx="169.72866"
   inkscape:cy="101.82741"
   inkscape:window-x="0"
   inkscape:window-y="27"
   inkscape:window-maximized="1"
   inkscape:current-layer="Layer_1" />

<path
   style="fill:#ffffff;fill-opacity:0.99705882;fill-rule:nonzero;stroke:none;stroke-width:8.47825146;stroke-miterlimit:4;stroke-dasharray:none;stroke-dashoffset:0;stroke-opacity:1"
   d="m 278.78383,9.280727 c -1.51667,-0.02067 -3.03528,-0.02072 -4.5554,0.0033 C 225.51656,9.047375 175.11456,23.079691 138.25351,56.028678 107.48092,82.76643 91.781428,123.0173 84.931363,162.84818 c -3.46662,21.45082 -3.848831,22.94464 8.859345,41.05339 34.441442,0 37.997512,-0.62926 68.693332,-0.62926 -5.76565,-10.59276 10.69012,-16.68604 20.05915,-22.61015 4.74287,-7.93347 64.0829,-21.52432 92.84934,-27.64196 14.81506,-3.05257 29.90733,-4.29675 44.93473,-5.49596 3.52684,-0.85767 1.57665,-5.0923 -1.2055,-5.45291 -17.94923,-5.24439 -35.09083,-17.01701 -42.19255,-34.89662 -8.6691,-23.553668 -3.1573,-50.277198 7.85232,-72.237337 2.08932,1.688949 -1.80462,4.324891 -1.76188,6.477913 -9.02613,21.971553 -13.6844,48.364694 -2.48718,70.463864 10.39923,19.37125 32.38429,28.84605 53.13314,32.27863 26.93289,4.53661 54.42895,1.83731 81.4326,3.99571 20.66299,0.62987 41.32126,3.80328 62.04358,3.78871 11.00686,-0.4533 23.51313,-1.46795 31.81663,-9.53969 2.27482,-2.49582 -0.51191,-5.30672 -3.09324,-5.80064 -13.64139,-6.20577 -29.35086,-3.56606 -43.2722,-8.72499 -33.1507,-9.20566 -65.17581,-22.24311 -98.15397,-31.8961 -2.1005,-1.03358 -8.53582,-1.6616 -5.60856,-5.08033 7.56815,-5.803776 17.30971,-8.042076 25.93815,-11.917569 14.70889,-5.266643 29.08265,-11.444525 43.60503,-17.140308 16.54402,-4.924092 33.88963,-3.402828 50.81652,-5.86854 -20.29632,4.71674 -42.63405,1.333765 -61.68756,11.482069 -15.73765,6.917675 -32.05965,12.369354 -48.00644,18.768067 2.92177,0.571388 9.02044,1.834909 9.61255,4.104991 -2.33848,1.5127 -8.69492,1.93415 -7.52941,6.03082 3.10483,2.87497 8.22054,2.35453 11.91426,4.30536 29.62674,9.24595 58.53096,21.31068 88.86432,28.27795 6.87138,1.4714 13.87639,2.19968 20.8926,2.47392 -5.41139,-5.9547 -10.82188,-11.91022 -16.23618,-17.86228 -0.98548,1.349 -1.17509,6.00927 -3.15616,5.64665 -2.11569,-2.03784 -2.96903,-8.047 -7.07074,-5.9563 -1.79081,0.73807 -3.10724,4.24303 -4.32523,4.09506 -2.17363,-3.57312 -2.96067,-8.66712 -6.59217,-11.27011 -1.11602,-0.80216 -3.87028,0.62253 -1.22206,-1.28499 9.3989,-9.37847 20.32701,-18.355285 33.83849,-20.667387 13.9935,-4.624054 29.57059,-9.205535 39.07116,-21.245305 4.23167,-6.76329 0.65968,-15.979386 -6.25934,-19.259871 -6.7205,-4.774934 -15.58812,-2.997169 -23.3036,-2.937582 -13.3703,1.102818 -27.15606,3.834054 -40.23857,-0.42888 C 446.0554,36.544153 433.83726,35.674063 421.79636,33.771613 406.66428,31.404596 392.49342,25.948501 378.21286,20.622044 367.94179,17.299517 357.05172,17.45677 346.42769,17.272141 323.91257,14.685486 301.53396,9.590793 278.78383,9.280727 Z m -1.41911,3.452569 c 1.90422,0.0178 3.8267,0.05468 5.76918,0.110946 13.76974,0.399021 30.39059,3.029864 43.74414,5.144907 12.1232,1.919078 21.69896,3.435916 26.74292,3.031969 10.61568,-0.849012 21.8631,1.479554 36.47801,7.554255 16.54871,6.877008 36.9387,9.49552 43.6398,10.357707 l 0.91075,0.11757 c 0.58605,0.07707 1.20171,0.154756 1.848,0.235138 4.49669,0.560556 10.65392,1.331189 18.51968,3.858267 4.0545,1.300733 12.05872,2.412652 20.10438,3.272075 22.75933,-2.904521 37.6947,-3.456642 41.5749,-1.510188 v -0.0017 c 6.68014,3.330824 9.81174,7.393372 9.3062,12.074884 -1.55216,14.389305 -41.38602,24.868666 -45.9233,26.015977 -6.48171,1.639134 -15.02769,7.317907 -24.71278,16.421637 -5.97314,5.61511 -6.55663,6.31235 -6.57893,6.40009 l -3.70095,-5.49431 c 0.93562,-1.12691 15.46817,-19.013105 33.41954,-23.553632 22.05317,-5.577884 40.49507,-14.763567 41.11124,-20.47862 0.24328,-2.255155 -3.46133,-4.475384 -5.73276,-5.61353 -0.73051,-0.220731 -8.18053,-2.019685 -44.11837,2.927646 -1.98938,0.273975 -6.01404,0.45802 -10.67398,0.672299 -1.14814,0.05282 -2.33253,0.106885 -3.5039,0.163935 -1.95114,0.174008 -3.78368,0.323343 -5.52245,0.46531 -12.06483,0.976559 -20.03547,1.623143 -35.00757,8.524617 -6.95651,3.207289 -16.66975,6.842608 -26.064,10.357707 -28.07083,10.503138 -34.61369,13.511455 -34.4197,18.951878 0.051,1.42189 0.73929,3.98378 4.77894,5.17471 15.73895,4.63585 65.24714,21.43355 66.87717,21.98715 26.64002,9.65491 47.28742,15.05979 59.71206,15.63177 9.44901,0.43537 17.56809,3.22401 20.07459,5.00416 -6.6925,7.71979 -30.55188,9.3384 -45.97796,7.45489 -8.4433,-1.03083 -53.3232,-4.61091 -100.23049,-4.62329 -0.0465,-0.002 -0.09,-0.0148 -0.13744,-0.0165 -38.36914,-1.30409 -63.65694,-11.86596 -75.16168,-31.39106 -18.06368,-30.655863 3.73526,-74.136249 3.95763,-74.572176 1.00819,-1.972185 0.22689,-4.387661 -1.74533,-5.398261 -1.9722,-1.009802 -4.39013,-0.228539 -5.39992,1.743671 -0.99092,1.935875 -24.03418,47.790053 -3.74732,82.272146 7.75593,13.18142 20.70776,22.73216 38.68533,28.58761 -18.25364,1.14827 -35.06031,3.20461 -48.08923,6.58555 -2.19062,0.3693 -21.05914,3.64764 -41.24537,10.22523 -21.35283,9.1324 -64.78963,14.5505 -68.97725,39.10454 L 95.463175,200.22875 C 80.31288,188.49009 91.206229,132.60085 102.211,108.723 113.05001,85.684804 157.39896,11.609725 277.36472,12.733296 Z m 70.14096,18.90054 c -9.72476,0.107105 -16.0683,6.175866 -16.97139,16.23287 -0.18523,2.05946 0.63236,4.081585 2.19573,5.433035 0.67025,0.579412 16.60964,14.178748 34.27896,13.984147 11.33567,-0.124851 20.97825,-5.871853 27.88384,-16.618697 1.3748,-2.139182 1.35773,-4.888024 -0.0447,-7.009461 -1.21392,-1.838551 -3.26891,-2.905044 -5.42641,-2.88128 -0.33335,0.0034 -0.66997,0.03213 -1.00514,0.08942 h -0.002 c -0.004,3.73e-4 -1.29656,0.199144 -3.3615,0.221891 -3.72585,0.04104 -9.3696,-0.471221 -15.09692,-3.147881 -9.21468,-4.306343 -16.5586,-6.368936 -22.4508,-6.304043 z m -99.41576,2.149369 c -5.09838,0.05613 -9.20753,2.225419 -9.1787,4.846844 0.0289,2.620619 4.18465,4.699318 9.28302,4.643166 5.09757,-0.05613 9.20752,-2.226224 9.1787,-4.846844 -0.0289,-2.621424 -4.18546,-4.699309 -9.28302,-4.643166 z m 109.36281,2.887904 c -2.09221,2.058534 -2.00471,0.243709 0,0 z m -109.53834,0.569632 c 0.55559,-0.01117 1.10699,-0.0024 1.64597,0.0149 1.35554,0.111146 6.05086,0.882445 2.61633,1.920854 -2.66698,1.303475 -8.02202,1.302146 -9.09921,-0.935589 1.47114,-0.748381 3.17015,-0.966661 4.83691,-1.000168 z m -25.57716,0.349397 c -0.39393,-0.01238 -0.80492,-0.01166 -1.22869,0.0017 -1.13005,0.03535 -2.35622,0.162927 -3.62643,0.39245 -5.08086,0.918101 -8.93632,3.109064 -8.61404,4.893209 0.32227,1.783349 4.70219,2.484628 9.78145,1.568146 5.08084,-0.918898 8.93797,-3.109063 8.61569,-4.893209 -0.21256,-1.170839 -2.17049,-1.875605 -4.92798,-1.962252 z m 125.23966,0.46531 c 1.14617,-0.01263 2.34494,0.08335 3.57511,0.263289 -1.76202,2.404339 -2.8023,5.366786 -2.76703,8.569327 0.0547,4.962718 2.65179,9.310082 6.53422,11.824842 -10.21143,-3.554439 -17.98978,-10.2716 -17.98978,-10.271601 0.69141,-7.702651 5.04826,-10.324195 10.64748,-10.385857 z m 10.81806,2.089757 c 3.09882,1.046351 6.14673,2.350377 8.84254,3.60988 1.03282,0.482311 2.06125,0.899201 3.08,1.270082 0.11652,0.522099 0.18283,1.062395 0.18877,1.617823 0.0476,4.328639 -3.43592,7.890751 -7.76456,7.938424 -4.32783,0.04765 -7.88912,-3.435915 -7.93677,-7.764554 -0.0307,-2.789972 1.40772,-5.254066 3.59002,-6.671655 z m 15.0108,2.613024 c 0.94065,1.691984 -0.34602,0.821206 0,0 z m -7.9583,3.522116 c -1.28743,0.01416 -2.31752,1.068919 -2.30336,2.356358 0.0142,1.286625 1.06727,2.317553 2.3547,2.303369 1.28743,-0.01416 2.31753,-1.068068 2.30337,-2.354702 -0.0142,-1.28744 -1.06727,-2.319201 -2.35471,-2.305025 z m 11.47048,0.528235 c 3.18924,0.579768 6.03475,0.722719 8.20669,0.698794 2.70249,-0.02976 4.36497,-0.312967 4.36497,-0.312967 -6.52677,10.157479 -14.65223,13.580864 -22.55181,13.667868 -0.67582,0.0076 -1.3487,-0.01713 -2.02022,-0.0563 6.7832,-1.08776 11.96239,-6.951349 12.00037,-13.997395 z m -11.29991,0.670643 c 3.14898,2.200224 -3.39019,2.54654 -0.33449,0.05464 0.10467,-0.04095 0.22108,-0.07215 0.33449,-0.05464 z m -173.75944,1.523436 c -1.89358,-0.01704 -4.69058,0.759533 -7.56585,2.220573 -4.60443,2.338513 -7.66772,5.543642 -6.84718,7.160148 0.82213,1.615692 5.21671,1.031985 9.81953,-1.306512 4.60202,-2.339285 7.66939,-5.545298 6.84885,-7.161803 -0.30831,-0.605585 -1.11921,-0.90219 -2.25535,-0.912406 z m 114.6137,2.213949 c -1.28715,0.0613 -2.5223,0.739574 -3.24227,1.92251 -0.53933,0.884943 -13.08967,21.935376 -3.06012,42.647922 8.8138,18.19811 31.90853,29.71024 68.64403,34.21437 0.18087,0.0226 0.36078,0.0315 0.53817,0.0299 1.98011,-0.0218 3.68697,-1.50543 3.93444,-3.52544 0.26957,-2.20006 -1.29557,-4.20217 -3.49563,-4.47094 -33.81041,-4.14703 -54.79399,-14.1357 -62.36813,-29.68878 -8.14496,-16.725237 2.54153,-34.832193 2.66767,-35.040682 1.14714,-1.892651 0.54648,-4.358039 -1.3446,-5.509207 -0.70976,-0.432281 -1.50128,-0.61633 -2.27356,-0.579569 z m 205.31939,2.778615 c 1.6473,-0.136301 6.32497,2.153781 3.04687,3.566827 -13.21066,11.071998 -30.98248,12.850593 -46.34391,19.372472 -11.05602,5.409434 -20.18758,14.027208 -27.91033,23.484088 3.92872,2.04887 3.69401,9.25657 8.7167,9.43537 -1.69757,2.73846 -4.67532,1.31491 -5.01243,-1.50357 -2.2577,-3.5122 -3.06861,-9.02104 -7.29924,-10.78493 -4.49873,-0.11887 -5.16021,6.00984 -8.28782,8.21496 -1.87552,2.0817 -1.24754,-3.06919 -2.14772,-4.2623 -0.39113,-3.32786 -4.12322,-7.46571 -7.27937,-4.21264 -1.91977,1.19106 -2.54138,5.08635 -4.62827,5.20949 -2.49153,-2.48753 -2.39451,-9.42127 -7.31581,-8.29609 -2.75611,0.76062 -4.65839,3.75203 -7.16842,4.43783 -1.51765,-3.21731 -4.51511,-9.110465 -8.93529,-6.30073 -1.66973,0.65043 -2.87268,4.85771 -4.1497,1.36115 -2.00817,-1.74787 1.893,-1.75688 1.92583,-3.893037 0.86744,-1.692892 1.14384,-4.677565 2.32985,-5.539014 3.10524,2.731347 5.31615,7.261951 9.45359,8.645501 3.63923,-0.0927 3.16225,-4.797346 4.33682,-7.226387 0.53819,-2.203918 0.79332,-4.489617 1.61452,-6.615354 4.32353,4.213773 8.64745,8.427165 12.97072,12.641201 3.03362,-6.449503 6.06608,-12.899556 9.09922,-19.349286 4.01852,6.228853 8.03488,12.459107 12.05502,18.686926 2.71278,-7.975632 5.42353,-15.951957 8.13547,-23.927876 3.62255,4.541079 7.24548,9.081846 10.86773,13.623158 2.28276,-5.053403 4.21956,-10.892809 6.6137,-15.502614 2.44473,2.511392 6.2375,8.45159 10.23186,5.068736 3.02566,-2.26193 4.17898,-6.508276 7.15849,-8.570982 1.57418,2.637534 5.15368,5.783643 8.09904,2.892871 1.61851,-1.409784 2.64909,-3.330713 3.87317,-5.062112 2.49697,2.684333 7.48838,5.746162 10.29976,1.710554 1.18792,-3.004512 4.42622,-4.679927 5.64995,-7.304212 z m -205.18195,0.612686 c 1.74676,1.159864 -1.47205,3.808166 -1.5963,5.355208 -7.1347,14.87673 -4.99923,34.978063 8.49978,45.587153 14.81144,12.72974 34.92165,17.08371 53.72264,19.30624 1.1446,-0.59752 4.32417,1.96524 1.40089,1.5135 -15.34149,-1.52854 -30.64484,-5.15487 -44.50253,-12.05998 -13.90193,-6.73539 -25.34541,-20.74134 -24.44452,-36.837338 0.18655,-8.029463 2.54919,-16.151174 6.92004,-22.864783 z m -94.24769,0.02981 c -0.66912,-0.01162 -1.36009,0.0085 -2.06491,0.06127 -5.63622,0.419292 -10.05029,2.820894 -9.86094,5.363487 0.18934,2.540983 4.91359,4.260149 10.5498,3.840052 5.6362,-0.420903 10.05027,-2.822505 9.86093,-5.363488 -0.16569,-2.224769 -3.80101,-3.819929 -8.48488,-3.901321 z m 293.84758,0.827955 -4.34345,4.711059 -4.2888,-3.883105 c 3.55316,-0.487873 6.38481,-0.734964 8.63225,-0.827954 z m -12.57663,1.422422 -4.05035,5.429723 -4.48254,-3.878137 c 0.85237,-0.157899 1.70971,-0.317377 2.59646,-0.488493 2.14436,-0.414544 4.11509,-0.765286 5.93643,-1.063093 z m -135.69507,0.109289 c 1.58233,0.624484 3.27696,1.090656 4.98759,1.044879 -1.29057,0.33255 -2.74913,1.685441 -3.12469,1.387651 -0.34756,-0.967702 -1.22416,-1.793692 -1.8629,-2.43253 z m -146.58432,1.116083 c 0.7709,-0.0097 1.53359,0.0042 2.2719,0.01159 2.02473,0.0404 4.29489,0.721894 1.21875,1.526747 -3.17159,1.240375 -7.34836,1.571855 -10.19543,-0.05796 2.00729,-1.215741 4.39206,-1.451355 6.70478,-1.480381 z m 27.78283,0.87432 c -4.54375,0.05002 -8.20414,2.215591 -8.17523,4.84022 0.0289,2.623027 3.73581,4.709748 8.27955,4.659726 4.54455,-0.05002 8.20247,-2.218849 8.17356,-4.841876 -0.0289,-2.624629 -3.73334,-4.708126 -8.27788,-4.65807 z m 242.4697,0.08611 -7.34892,8.898852 -7.47312,-6.65344 c 4.31121,-0.539564 9.1785,-1.252075 14.82204,-2.245412 z M 359.6998,61.625649 c 0.16922,1.739064 5.27249,2.496469 1.83806,1.927477 -2.01758,-0.418508 -4.02312,-0.909559 -5.99273,-1.52178 1.48566,0.287341 3.66104,0.74307 4.15467,-0.405697 z m 104.41993,0.0149 -5.17969,12.525291 -8.93693,-11.20222 c 0.23981,-0.01865 0.46737,-0.03846 0.71039,-0.05796 3.90183,-0.315908 8.23835,-0.669558 13.40623,-1.265113 z m -223.39198,0.700449 c 2.05818,-0.02125 4.53516,1.908946 1.14092,2.329863 -2.08304,0.714639 -6.54879,0.959743 -6.95648,-1.233652 1.80469,-1.153416 3.82794,-0.96225 5.81556,-1.096211 z m 206.01487,0.895846 -6.83393,20.09776 -10.87104,-16.853835 c 6.21988,-2.015942 11.28765,-2.682775 17.70497,-3.243925 z m -19.13402,3.719169 -8.94356,19.02142 -10.99689,-10.717039 c 3.92271,-1.554759 7.58903,-3.080756 10.75181,-4.538846 3.44552,-1.58723 6.44096,-2.810519 9.18864,-3.765535 z m -139.53181,0.649116 c -0.55977,-0.0017 -1.06166,0.391844 -1.179,0.962083 -0.19279,0.935702 -4.57567,23.120238 8.37558,41.987218 8.58003,12.49722 22.71521,20.45632 42.01371,23.65298 0.0716,0.011 0.14209,0.0157 0.21195,0.0149 0.57229,-0.006 1.07527,-0.42048 1.17238,-1.00514 0.10836,-0.65623 -0.33566,-1.27598 -0.99188,-1.38434 -18.61654,-3.08458 -32.21018,-10.69626 -40.40582,-22.62137 -12.37504,-18.00557 -8.06284,-39.939443 -8.01791,-40.15908 0.13411,-0.650893 -0.2847,-1.286652 -0.93559,-1.42077 -0.0814,-0.01687 -0.16345,-0.02632 -0.24342,-0.02649 z m -121.56521,4.348415 c -1.98612,0.0076 -5.48421,1.57378 -8.98661,4.17289 -4.6715,3.464688 -7.58236,7.456604 -6.5011,8.912099 1.08046,1.455504 5.74086,-0.175858 10.41235,-3.641343 4.66988,-3.466282 7.58156,-7.456595 6.5011,-8.912098 -0.27011,-0.363471 -0.7637,-0.534083 -1.42574,-0.531548 z m 48.51481,2.765368 c -4.76608,0.05248 -8.6052,2.25228 -8.57595,4.911424 0.0293,2.65995 3.91585,4.773475 8.68193,4.720995 4.76527,-0.05248 8.6052,-2.251475 8.57595,-4.911425 -0.0292,-2.659144 -3.91665,-4.773475 -8.68193,-4.720994 z m -27.6636,1.617822 c -1.11702,-0.0178 -2.33238,0.05384 -3.59498,0.226859 -5.05205,0.690605 -8.94241,2.733798 -8.69186,4.563684 0.24892,1.828301 4.54561,2.752165 9.59764,2.05995 5.05204,-0.690604 8.9424,-2.733797 8.69186,-4.563683 -0.18729,-1.371222 -2.65162,-2.233482 -6.00266,-2.28681 z m 216.74847,0.314623 -3.60822,12.202389 -8.11561,-7.76621 c 3.93249,-1.470579 7.90862,-2.960472 11.72383,-4.436179 z M 216.74523,78.06054 c 1.52513,0.0011 4.94721,1.675312 1.78506,2.261971 -2.44972,0.926975 -7.33215,1.324862 -8.09242,-1.081308 1.8492,-1.203879 4.20995,-1.016456 6.30736,-1.180663 z m 26.76445,1.162447 c -4.09748,0.0451 -7.39308,2.474303 -7.36052,5.426413 0.0325,2.951304 3.3806,5.307581 7.47808,5.262476 4.09668,-0.0451 7.39299,-2.473451 7.36052,-5.424755 -0.0326,-2.952111 -3.38141,-5.309238 -7.47808,-5.264134 z m 0.87432,3.335 c 3.20418,-0.148908 4.32573,3.769075 0.44047,3.846675 -2.01194,1.045571 -7.36313,-1.376214 -3.8798,-3.224053 1.07038,-0.524148 2.27668,-0.554118 3.43933,-0.622622 z m 143.71131,0.139096 -2.52029,6.454732 -6.21297,-3.119732 c 2.93105,-1.143267 5.92409,-2.278966 8.73326,-3.335 z m -6.14838,9.971877 4.53553,5.47112 c -3.32091,-1.09206 -6.5669,-2.1531 -9.62579,-3.14291 z m 12.06826,2.40935 4.22091,6.94984 c -3.1583,-1.05051 -6.37195,-2.11644 -9.54466,-3.16278 z m -213.81918,1.42408 c -19.91927,-8.4e-4 -36.20361,3.62719 -48.61582,10.85779 -1.89115,1.10211 -2.54984,3.51642 -1.48203,5.42641 0.28826,0.517 7.25414,12.76731 23.67949,23.96762 12.96443,8.83984 34.24122,18.46955 65.17655,18.12723 4.86882,-0.0537 9.9836,-0.35432 15.33538,-0.94387 2.20324,-0.24341 3.79368,-2.22631 3.55027,-4.42956 -0.24262,-2.20325 -2.21912,-3.79536 -4.42956,-3.55026 -36.68394,4.04042 -60.89798,-6.24736 -74.74937,-15.59038 -9.97749,-6.73024 -16.1853,-13.95811 -19.24662,-18.08418 40.40313,-19.48109 111.81158,4.08147 112.55044,4.33021 2.10049,0.70414 4.37539,-0.42728 5.08033,-2.52858 0.70573,-2.10211 -0.42397,-4.37538 -2.52527,-5.08032 -0.81055,-0.27283 -20.14244,-6.71323 -44.92976,-10.24842 -10.53417,-1.50276 -20.33982,-2.25317 -29.39403,-2.25369 z m 228.16266,1.0929 4.64482,9.37078 c -3.91499,-1.31511 -8.29584,-2.78261 -12.84157,-4.29708 z m 13.71589,2.25038 4.49413,11.69567 c -2.4962,-0.84588 -6.81321,-2.3047 -12.12291,-4.09008 z m -241.89179,0.048 c 24.9649,0.40572 50.27891,4.68278 73.68295,12.80349 -1.32081,2.17473 -4.30623,-1.11312 -6.32391,-0.91241 -31.06155,-8.62358 -64.30216,-14.56789 -96.24968,-7.34892 -5.91911,1.49977 -11.63097,3.7508 -17.04261,6.5723 18.35078,27.09812 52.11847,39.8731 83.98105,39.2914 5.3602,0.30867 11.2342,-1.37944 16.22294,-0.37755 -2.43123,2.26611 -6.47573,0.50045 -9.55128,1.42739 -32.22529,2.03221 -67.61703,-8.63157 -88.24668,-34.98934 -1.35478,-1.88522 -5.38674,-5.46766 -1.70061,-6.98959 13.87225,-7.40837 29.68958,-9.39922 45.22783,-9.47677 z m 256.49193,1.39594 8.91872,15.64502 8.96344,-7.54763 7.57909,13.61157 c -9.55827,-2.55821 -20.76933,-6.14654 -33.20925,-10.65577 l -0.0761,-0.0282 c -0.14182,-0.0482 -0.50449,-0.17107 -1.05481,-0.35767 z m -252.46642,11.22708 c -7.19974,-0.0116 -14.88266,0.44368 -22.88963,1.5814 -0.65883,0.0931 -1.11485,0.70319 -1.02169,1.36281 0.0931,0.65723 0.69994,1.11728 1.36115,1.0217 42.03538,-5.97216 74.9254,7.11586 75.25276,7.24791 0.15322,0.0625 0.31126,0.0911 0.46697,0.0894 0.47035,-0.005 0.91448,-0.28814 1.10284,-0.75178 0.25009,-0.61525 -0.0463,-1.31726 -0.66237,-1.56815 -0.27057,-0.10986 -22.41116,-8.93309 -53.61003,-8.98331 z m 284.02804,3.98909 5.89834,9.12075 3.76885,-6.05235 7.14856,7.86557 c -5.708,-0.41236 -13.37001,-1.89911 -22.59322,-4.35504 z m -285.39416,6.58555 c -4.65236,-0.0249 -9.40958,0.18353 -14.15471,0.71204 -0.66065,0.0731 -1.13868,0.66905 -1.06475,1.32969 0.0739,0.66144 0.67544,1.12974 1.33135,1.0631 29.84608,-3.32534 60.2744,6.24844 60.5781,6.34543 0.12647,0.0404 0.25485,0.058 0.38086,0.0563 0.50486,-0.006 0.97045,-0.32952 1.13264,-0.83624 0.20253,-0.63398 -0.14675,-1.31015 -0.77994,-1.51349 -0.261,-0.0832 -22.30087,-7.02228 -47.42355,-7.15684 z m -61.85812,2.103 c -1.78641,0.1106 -4.87086,3.2372 -7.3986,7.65361 -2.88884,5.04892 -3.95485,9.87149 -2.3812,10.77168 1.57364,0.89939 5.18707,-2.4622 8.07752,-7.50954 2.88883,-5.04892 3.95572,-9.87153 2.38285,-10.77334 -0.1968,-0.11233 -0.42537,-0.15821 -0.68057,-0.14241 z m 68.7202,7.58406 c -3.37677,-0.01 -6.77652,0.17056 -10.09938,0.61103 -0.65888,0.0883 -1.12334,0.69399 -1.0366,1.35288 0.0883,0.65968 0.70201,1.12239 1.35287,1.03494 20.71888,-2.74878 45.43839,5.15438 45.68651,5.23433 0.12729,0.0412 0.25656,0.0613 0.38418,0.0596 0.50245,-0.006 0.96797,-0.3278 1.13098,-0.83292 0.20496,-0.6324 -0.14091,-1.31185 -0.77331,-1.51681 -0.86937,-0.28099 -18.41068,-5.89052 -36.64525,-5.94306 z m -58.21346,9.67548 c -1.68789,0.17774 -4.03919,2.96137 -5.61022,6.80744 -1.79386,4.39708 -1.88749,8.51471 -0.20865,9.20022 1.67883,0.68391 4.49281,-2.32418 6.28749,-6.71967 1.79385,-4.39709 1.88749,-8.51472 0.20864,-9.20023 -0.20985,-0.0855 -0.43614,-0.11316 -0.67726,-0.0878 z m -22.10307,11.73707 c -1.7423,0.30554 -3.98255,5.16884 -5.16643,11.37775 -1.25963,6.6204 -0.83792,12.26387 0.94386,12.60146 1.7802,0.33922 4.24474,-4.75239 5.50755,-11.37443 1.25962,-6.622 0.8412,-12.2648 -0.94221,-12.60478 -0.11126,-0.0211 -0.22662,-0.0203 -0.34277,0 z m 40.72707,0.24674 c -2.16753,-0.12197 -4.74929,2.11748 -6.13018,5.49926 -1.57734,3.8665 -0.98899,7.76234 1.3148,8.70346 2.30295,0.93873 5.44953,-1.4324 7.02767,-5.2989 1.57894,-3.86652 0.98899,-7.76313 -1.31479,-8.70346 -0.28808,-0.11733 -0.58786,-0.18294 -0.8975,-0.20036 z m -0.49678,3.63138 c 0.99124,2.46202 -1.04799,6.24056 -3.04852,7.03596 -0.51407,-2.63491 0.84708,-5.78051 3.04852,-7.03596 z m 22.97905,3.3085 c -0.14507,-0.01 -0.29266,-0.008 -0.44212,0.002 -1.7936,0.11939 -3.86627,1.62039 -5.2244,3.97915 -1.80605,3.14414 -1.65504,6.62525 0.34277,7.77283 1.9954,1.14763 5.07932,-0.47232 6.88858,-3.6165 1.80762,-3.14657 1.65506,-6.6253 -0.34277,-7.77449 -0.37414,-0.21488 -0.78686,-0.33387 -1.22206,-0.36265 z m -0.59447,3.52875 c 0.39292,1.88933 -1.50738,4.61192 -2.94752,4.89652 -0.0504,-2.03962 1.21113,-3.97028 2.94752,-4.89652 z m -41.2669,5.39826 c -1.70203,-0.003 -3.74342,2.91667 -4.70112,6.84056 -1.02314,4.1863 -0.42474,7.92885 1.33797,8.35737 1.75873,0.43096 4.01414,-2.61286 5.03727,-6.79916 1.02154,-4.18629 0.42475,-7.9297 -1.33797,-8.35902 -0.11002,-0.0268 -0.22268,-0.0395 -0.33615,-0.0398 z"
   id="path7087-0"
   inkscape:connector-curvature="0"
   sodipodi:nodetypes="scccccccccccccccccccccccccccccccccccccccccccccscccccccccccccccccccccccccccccccccccccccccccccccccscccccccsccccccsscccsscccccsccccccccccccccccccccccccccccccccccccccccccscccccccccccccccccccccccccccccccccccccccccccccccccccccccccccccccccccccccccccccccccccccccccccccccccccccccccccccccccccccccccccccccccccccccccccccccccccccccccccccccccccccccccccccccccccccccccccccccccccccccccccccccccccccccccccccccccccccccccccccccccccccccccccccccccccccccccccccccccccccccccccccc" /></svg>