<?xml version="1.0" encoding="utf-8"?>
<!-- Generator: Adobe Illustrator 16.0.0, SVG Export Plug-In . SVG Version: 6.00 Build 0)  -->
<!DOCTYPE svg PUBLIC "-//W3C//DTD SVG 1.1//EN" "http://www.w3.org/Graphics/SVG/1.1/DTD/svg11.dtd">
<svg version="1.1" id="Layer_1" xmlns="http://www.w3.org/2000/svg" xmlns:xlink="http://www.w3.org/1999/xlink" x="0px" y="0px"
	 width="133px" height="97px" viewBox="0 0 133 97" enable-background="new 0 0 133 97" xml:space="preserve">
<line fill="none" stroke="#4674B7" stroke-width="0.0985" stroke-miterlimit="10" x1="44.104" y1="45.724" x2="44.104" y2="45.724"/>
<g>
	<g>
		<path fill="#FFFFFF" d="M8.388,40.523v-1.237L7.5,38.399H4.654l-0.91,0.887v1.12H0.056v-2.637l3.057-3.081h5.905l3.057,3.081
			v4.598l-8.332,6.184v0.935h8.332v3.688H0.056v-6.488L8.388,40.523z"/>
	</g>
	<g>
		<path fill="#FFFFFF" d="M26.451,37.746v12.368l-3.057,3.059h-5.928l-3.058-3.059V37.746l3.058-3.058h5.928L26.451,37.746z
			 M18.119,39.286v9.288l0.888,0.911h2.847l0.887-0.911v-9.288l-0.887-0.887h-2.847L18.119,39.286z"/>
	</g>
	<g>
		<path fill="#FFFFFF" d="M116.56,53.173h-3.689V40.15h-1.516v-2.17l0.14-0.047c0.823-0.217,1.458-0.61,1.902-1.178
			c0.443-0.568,0.72-1.194,0.827-1.879l0.025-0.187h2.311V53.173z"/>
	</g>
</g>
<circle fill="none" stroke="#FFFFFF" stroke-width="2.9542" stroke-miterlimit="10" cx="68.629" cy="41.43" r="41.43"/>
<g>
	<path fill="#FFFFFF" stroke="#4674B7" stroke-width="0.9847" stroke-miterlimit="10" d="M37.747,29.719
		c0,0-4.377,2.551-5.021,11.573c-0.055-0.161-0.162,7.841,4.725,11.816l6.659-4.351c0,0-2.221-4.351-0.197-14.07l0,0
		C43.914,34.687,38.204,30.767,37.747,29.719"/>
	<path fill="#FFFFFF" stroke="#4674B7" stroke-width="0.9847" stroke-miterlimit="10" d="M67.915,33.788L80.036,26.9
		c0,0,8.056,2.739,11.869,7.787c0,0,2.363,8.592-0.269,14.5c0,0-3.974,4.832-11.974,7.143c0,0-10.527-6.136-11.707-7.479
		L67.915,33.788z"/>
	<g>
		<path fill="#FFFFFF" d="M56.097,55.798c-7.197-2.135-11.059-6.376-11.495-6.875c-2.344-5.357-0.473-13.096-0.237-14.015
			c3.363-4.379,10.112-7.004,11.374-7.467l11.683,6.634l-0.04,14.575C66.068,49.874,59.026,54.087,56.097,55.798z"/>
		<path fill="#4674B7" d="M55.695,27.981l11.233,6.379l-0.038,14.069c-1.403,1.175-7.102,4.638-10.857,6.835
			c-6.727-2.051-10.427-5.956-11.011-6.609c-2.166-5.053-0.512-12.299-0.206-13.528C47.961,31.104,54.066,28.598,55.695,27.981
			 M55.786,26.9c0,0-8.059,2.739-11.872,7.787c0,0-2.365,8.592,0.267,14.5c0,0,3.977,4.832,11.981,7.143
			c0,0,10.53-6.136,11.712-7.479l0.041-15.063L55.786,26.9L55.786,26.9z"/>
	</g>
	<path fill="#FFFFFF" stroke="#4674B7" stroke-width="0.9847" stroke-miterlimit="10" d="M61.067,15.139
		c0,0,7.572-3.061,14.621,0.323c0,0,2.537-3.383,7.088-4.189c0,0-0.441-2.417-4.511-4.431c0,0-9.021-3.222-20.541,0.403
		c0,0-2.336,1.128-3.342,3.464C54.382,10.709,61.269,12.964,61.067,15.139z"/>
	<path fill="#FFFFFF" stroke="#4674B7" stroke-width="0.9847" stroke-miterlimit="10" d="M55.786,26.9l12.129,6.888L80.036,26.9
		c0,0-0.441-7.25-4.349-11.438c0,0-5.84-3.383-14.621-0.323C61.067,15.139,56.305,20.979,55.786,26.9"/>
	<path fill="#FFFFFF" stroke="#4674B7" stroke-width="0.9847" stroke-miterlimit="10" d="M54.382,10.709c0,0,6.605,2.054,6.685,4.43
		c0,0-4.711,5.8-5.235,12.002c0,0-6.965,2.269-11.918,7.545c0,0-4.475-2.954-6.167-4.968c0,0-1.33-4.47,4.712-12.405
		C42.459,17.314,49.387,10.225,54.382,10.709z"/>
	<path fill="#FFFFFF" stroke="#4674B7" stroke-width="0.9847" stroke-miterlimit="10" d="M44.11,48.757l-6.659,4.351
		c0,0-1.611,4.617,4.377,12.297c0,0,5.396,6.525,11.948,7.088c0,0,5.156-2.04,6.713-4.215c0,0-4.619-6.473-4.403-12.03
		C56.086,56.248,46.473,52.73,44.11,48.757z"/>
	<path fill="#FFFFFF" stroke="#4674B7" stroke-width="0.9847" stroke-miterlimit="10" d="M53.777,72.493
		c0,0,1.611,4.405,7.813,5.075c6.204,0.671,12.727,0.026,12.727,0.026s5.236-1.02,6.069-1.502l2.175-2.847
		c0,0-5.103-2.095-7.197-4.915c0,0-9.691,2.632-14.875-0.053C60.49,68.278,56.141,72.011,53.777,72.493z"/>
	<path fill="#FFFFFF" stroke="#4674B7" stroke-width="0.9847" stroke-miterlimit="10" d="M75.715,15.354c0,0,3.222-3.49,6.953-4.055
		c3.734-0.563,11.143,4.646,12.728,7.384c0,0,5.505,5.505,3.786,11.788c0.082,0.08-6.042,3.732-7.356,4.188
		c0.053,0.107-3.92-5.183-11.789-7.76C80.063,26.792,78.668,18.415,75.715,15.354z"/>
	<path fill="#FFFFFF" stroke="#4674B7" stroke-width="0.9847" stroke-miterlimit="10" d="M91.905,34.687
		c0,0,6.712-3.571,7.276-4.215s6.067,5.88,5.264,13.935c0,0-0.778,6.525-5.154,9.829c0,0-4.646-4.027-7.707-4.94
		C91.584,49.295,93.838,43.897,91.905,34.687z"/>
	<path fill="#FFFFFF" stroke="#4674B7" stroke-width="0.9847" stroke-miterlimit="10" d="M91.584,49.295
		c0,0-4.296,4.886-11.921,7.035c0,0-0.485,6.685-4.299,12.001c0,0,2.498,3.116,7.197,4.915c-0.08,0.025,6.363-0.484,12.135-7.251
		c0,0,5.936-6.257,4.595-11.76C99.291,54.235,95.423,50.636,91.584,49.295z"/>
	<path fill="#FFFFFF" stroke="#4674B7" stroke-width="0.9847" stroke-miterlimit="10" d="M67.794,48.73
		c0,0-5.747,4.244-11.708,7.518c0.076,0.082-0.323,5.558,4.403,12.03c0,0,4.243,2.685,14.875,0.053c0,0,3.625-4.886,4.299-12.001
		C79.663,56.33,68.195,49.429,67.794,48.73z"/>
	<path fill="#FFFFFF" stroke="#4674B7" stroke-width="0.9847" stroke-miterlimit="10" d="M37.372,52.999
		c0,0-3.894-3.518-4.646-10.23l0,0"/>
	<path fill="#FFFFFF" stroke="#4674B7" stroke-width="0.9847" stroke-miterlimit="10" d="M53.777,72.493"/>
	<path fill="#FFFFFF" stroke="#4674B7" stroke-width="0.9847" stroke-miterlimit="10" d="M94.696,65.995"/>
</g>
<g>
	<path id="Výplň_2_" fill="#FFFFFF" d="M30.877,22.356c0,0,0.508,0.04,1.92-1.288c1.412-1.327,6.969-2.488,6.969-2.488
		l5.218-0.473l3.597,0.042l5.651,0.145l8.423,0.168l1.657,0.654l6.481,0.39l9.787,0.703l1.814,0.191l5.949-0.838l2.101-0.533
		c0,0,0.325,0.007,0.757-0.809c0.431-0.815,0.109-1.384,0.109-1.384l-0.092-0.216l-0.276-0.387l-0.233,0.214l-0.154-0.014
		l-1.438,0.345l-1.08,0.318l2.389-0.631l0.555-0.521l-0.066-0.455l-0.037-0.826l-0.202-0.504l-0.155-0.048l-0.107-0.477
		l-0.753-0.879l-4.058-1.896L82.15,8.788l-2.124-2.457l-0.531-0.586l-2.863-0.119L74.298,3.63l-3.016-1.643l-4.272,0.24
		L56.579,3.481L51.251,4.91l-3.389,1.041l-7.124,2.841l-4.402,3.504l-1.024,0.668l-1.327,1.557c0,0-4.092,6.391-5.634,11.282
		c0.064,0.668,0.722-0.985,0.722-0.985L30.877,22.356z"/>
	<g>
		<path fill="#4674B7" d="M33.306,15.539c0.368-0.782,0.883-1.478,1.431-2.14c0.555-0.657,1.152-1.282,1.803-1.847
			c1.299-1.13,2.716-2.125,4.206-2.987c1.495-0.854,3.055-1.588,4.647-2.235c1.587-0.662,3.228-1.186,4.88-1.644
			c1.647-0.484,3.335-0.805,5.013-1.14c1.686-0.302,3.379-0.541,5.073-0.771c0.849-0.099,1.694-0.228,2.545-0.302
			c0.851-0.072,1.697-0.195,2.549-0.263c1.701-0.163,3.405-0.276,5.109-0.404l-0.014,0.001c0.699-0.031,1.294,0.173,1.885,0.412
			c0.583,0.248,1.124,0.573,1.637,0.933c0.517,0.355,0.992,0.762,1.455,1.18l0.666,0.635c0.205,0.183,0.431,0.33,0.682,0.433
			c0.249,0.099,0.517,0.154,0.773,0.15c0.115,0.002,0.243-0.03,0.407-0.056c0.141-0.033,0.32-0.042,0.503-0.045
			c0.706-0.036,1.43,0.294,1.901,0.799c0.475,0.5,0.771,1.084,1.059,1.616c0.142,0.257,0.292,0.532,0.445,0.688
			c0.11,0.129,0.203,0.173,0.296,0.25l0.356,0.23c1.018,0.59,2.157,1.053,3.283,1.499c0.577,0.232,1.114,0.408,1.723,0.671
			c0.571,0.248,1.136,0.5,1.697,0.802c0.274,0.153,0.573,0.321,0.853,0.576c0.278,0.301,0.424,0.56,0.592,0.85
			c0.307,0.575,0.574,1.152,0.684,1.859c0.021,0.181,0.034,0.374-0.02,0.606c-0.028,0.225-0.294,0.55-0.547,0.603
			c-0.295,0.094-0.566,0.207-0.899,0.272c-0.653,0.157-1.234,0.234-1.828,0.357l-0.022,0.005l-0.008,0.001
			c-2.656,0.304-5.312,0.493-7.981,0.428c-1.333-0.037-2.669-0.118-3.987-0.35c-0.658-0.119-1.312-0.276-1.944-0.502
			c-0.628-0.228-1.248-0.528-1.737-0.995l0.055-0.058c0.501,0.424,1.119,0.678,1.744,0.863c0.63,0.183,1.277,0.297,1.93,0.375
			c1.306,0.151,2.624,0.192,3.942,0.168c2.633-0.065,5.275-0.283,7.876-0.66l-0.03,0.006c0.604-0.142,1.237-0.249,1.773-0.394
			c0.271-0.05,0.569-0.171,0.857-0.266c0.051-0.026-0.001,0.025,0.036-0.048c0.016-0.067,0.018-0.186,0-0.308
			c-0.078-0.508-0.323-1.07-0.599-1.569c-0.136-0.242-0.312-0.51-0.452-0.66c-0.176-0.157-0.413-0.296-0.675-0.439
			c-0.52-0.277-1.077-0.522-1.633-0.759c-0.516-0.227-1.149-0.424-1.705-0.664c-1.144-0.475-2.28-0.951-3.378-1.607L81.8,9.419
			c-0.145-0.116-0.311-0.243-0.397-0.351c-0.263-0.294-0.393-0.576-0.546-0.853c-0.284-0.549-0.551-1.073-0.92-1.471
			c-0.366-0.389-0.843-0.625-1.373-0.623c-0.124-0.002-0.251-0.008-0.412,0.022c-0.139,0.016-0.312,0.053-0.505,0.048
			c-0.357-0.006-0.698-0.091-1.015-0.229c-0.312-0.138-0.603-0.341-0.846-0.575l-0.645-0.655c-0.434-0.418-0.879-0.826-1.362-1.181
			c-0.479-0.36-0.985-0.687-1.523-0.937c-0.529-0.243-1.13-0.444-1.663-0.439l-0.014,0.001c-1.703,0.055-3.406,0.143-5.104,0.29
			c-0.85,0.059-1.697,0.157-2.543,0.254c-0.848,0.088-1.688,0.231-2.532,0.344c-1.687,0.241-3.354,0.595-5.017,0.954
			c-1.656,0.388-3.3,0.82-4.926,1.303c-1.631,0.47-3.23,1.034-4.812,1.639c-1.579,0.612-3.125,1.309-4.607,2.124
			c-1.484,0.809-2.92,1.713-4.237,2.775c-0.653,0.537-1.291,1.094-1.876,1.706c-0.582,0.612-1.137,1.266-1.548,2.005L33.306,15.539z
			"/>
	</g>
	<g>
		<path fill="#4674B7" d="M28.048,28.59c-0.021-1.26,0.207-2.559,0.751-3.731c0.551-1.171,1.394-2.197,2.389-3.025
			c0.996-0.833,2.148-1.444,3.327-1.95c1.187-0.489,2.413-0.879,3.661-1.147c2.498-0.546,5.047-0.728,7.58-0.725
			c2.535,0.013,5.059,0.139,7.578,0.413l-0.051,0.004c0.607-0.087,1.14-0.096,1.711-0.129l1.688-0.068
			c1.125-0.044,2.252-0.072,3.382-0.062c0.565,0.006,1.13,0.021,1.7,0.063c0.285,0.021,0.571,0.049,0.863,0.099
			c0.147,0.026,0.292,0.053,0.455,0.111c0.18,0.063,0.308,0.163,0.39,0.175c0.461,0.148,1.042,0.222,1.583,0.287
			c0.551,0.062,1.107,0.109,1.665,0.147c1.114,0.083,2.233,0.146,3.352,0.187l1.677,0.046l1.678,0.006
			c1.172,0.052,2.272,0.179,3.398,0.285l3.358,0.362l0.028,0.003l0.052,0.014c0.78,0.214,1.771,0.157,2.689,0.113
			c0.937-0.065,1.877-0.182,2.814-0.319c0.938-0.137,1.872-0.308,2.805-0.48c0.204-0.033,0.459-0.096,0.686-0.143l0.699-0.151
			c0.211-0.057,0.344-0.151,0.558-0.298c0.171-0.132,0.326-0.278,0.468-0.445l-0.021,0.035c0.04-0.087,0.087-0.173,0.122-0.261
			l0.051-0.134c0.019-0.045,0.023-0.071,0.039-0.131c0.061-0.209,0.086-0.377,0.079-0.567c-0.001-0.195-0.048-0.374-0.13-0.562
			c-0.078-0.17-0.198-0.343-0.346-0.47l0.045-0.065c0.183,0.12,0.327,0.273,0.449,0.461c0.109,0.174,0.203,0.392,0.233,0.607
			c0.042,0.217,0.033,0.466,0.005,0.657c-0.005,0.04-0.011,0.117-0.028,0.168l-0.043,0.16c-0.03,0.106-0.072,0.206-0.109,0.31
			l-0.005,0.013l-0.016,0.022c-0.154,0.207-0.341,0.398-0.54,0.565c-0.169,0.135-0.429,0.325-0.683,0.397l-0.69,0.187l-0.707,0.186
			c-0.931,0.23-1.871,0.415-2.814,0.588c-0.945,0.169-1.896,0.317-2.858,0.415c-0.973,0.073-1.927,0.188-2.999-0.096l0.079,0.017
			l-3.351-0.338c-1.111-0.107-2.249-0.198-3.321-0.279l-1.694-0.036l-1.692-0.076c-1.127-0.063-2.253-0.138-3.378-0.251
			c-0.562-0.061-1.125-0.129-1.688-0.214c-0.569-0.095-1.112-0.168-1.715-0.387c-0.188-0.071-0.283-0.157-0.37-0.185
			c-0.101-0.042-0.232-0.075-0.36-0.101c-0.26-0.055-0.533-0.093-0.808-0.123c-0.549-0.062-1.107-0.098-1.666-0.125
			c-1.118-0.053-2.24-0.072-3.362-0.073c-0.561-0.003-1.122,0.016-1.683,0.032c-0.55,0.021-1.145,0.034-1.652,0.095l-0.042,0.005
			l-0.009-0.001c-1.244-0.165-2.506-0.216-3.763-0.263c-1.257-0.047-2.517-0.013-3.771,0.047c-2.508,0.138-5.007,0.421-7.439,0.963
			c-1.215,0.272-2.416,0.604-3.568,1.061c-1.15,0.458-2.244,1.048-3.227,1.785c-0.979,0.74-1.819,1.669-2.396,2.76
			c-0.608,1.081-0.896,2.313-1.009,3.568L28.048,28.59z"/>
	</g>
	<g>
		<path fill="#4674B7" d="M62.349,18.476c0,0-0.286-0.051-0.762-0.231c-0.242-0.084-0.523-0.209-0.843-0.368
			c-0.312-0.169-0.674-0.357-1.03-0.622c-0.18-0.133-0.367-0.272-0.561-0.416c-0.187-0.155-0.357-0.34-0.546-0.52
			c-0.194-0.175-0.368-0.38-0.535-0.604c-0.167-0.222-0.359-0.436-0.492-0.698c-0.137-0.261-0.276-0.527-0.417-0.796
			c-0.133-0.274-0.201-0.583-0.289-0.884l-0.123-0.458l-0.04-0.475c-0.019-0.317-0.063-0.64-0.054-0.957l0.145-0.938l0.079-0.463
			l0.154-0.431c0.203-0.573,0.412-1.141,0.734-1.602c0.304-0.472,0.558-0.963,0.912-1.326c0.332-0.382,0.661-0.727,0.965-1.04
			c0.282-0.333,0.625-0.552,0.899-0.773c0.276-0.218,0.528-0.395,0.732-0.542c0.412-0.29,0.654-0.441,0.654-0.441
			s-0.147,0.255-0.417,0.676c-0.137,0.208-0.299,0.463-0.497,0.74c-0.187,0.286-0.434,0.579-0.626,0.947
			C60.186,6.615,59.964,7,59.714,7.39c-0.266,0.384-0.392,0.859-0.631,1.29c-0.258,0.431-0.328,0.929-0.5,1.397l-0.119,0.356
			l-0.044,0.366l-0.093,0.731c-0.015,0.242,0.018,0.483,0.02,0.725l0.011,0.362l0.086,0.349c0.069,0.229,0.088,0.47,0.167,0.694
			c0.088,0.223,0.176,0.443,0.262,0.66c0.077,0.224,0.233,0.407,0.33,0.617c0.104,0.208,0.217,0.406,0.358,0.583
			c0.254,0.372,0.521,0.712,0.787,1.019c0.537,0.605,1.038,1.096,1.408,1.421C62.12,18.295,62.349,18.476,62.349,18.476z"/>
	</g>
	<g>
		<path fill="#4674B7" d="M63.228,6.889c0,0-0.115,0.29-0.261,0.805c-0.083,0.252-0.15,0.571-0.25,0.922
			c-0.066,0.362-0.178,0.757-0.218,1.202c-0.091,0.438-0.073,0.917-0.117,1.42c0.026,0.5-0.021,1.043,0.11,1.591l0.066,0.422
			c0.04,0.137,0.101,0.268,0.153,0.403c0.115,0.266,0.209,0.552,0.376,0.797c0.356,0.479,0.715,0.97,1.225,1.311
			c0.241,0.182,0.466,0.378,0.713,0.542c0.26,0.149,0.518,0.297,0.774,0.444c0.26,0.139,0.488,0.321,0.757,0.432
			c0.268,0.113,0.532,0.224,0.792,0.333c0.261,0.106,0.511,0.223,0.756,0.336c0.245,0.114,0.51,0.174,0.75,0.27
			c0.492,0.165,0.951,0.345,1.377,0.51c0.425,0.169,0.842,0.239,1.193,0.368c0.356,0.114,0.67,0.203,0.925,0.295
			c0.513,0.176,0.807,0.291,0.807,0.29l-0.014,0.078c0,0-0.31-0.013-0.853-0.06c-0.272-0.02-0.6-0.065-0.979-0.106
			c-0.377-0.048-0.809-0.082-1.263-0.202c-0.454-0.116-0.95-0.241-1.467-0.399c-0.528-0.122-1.048-0.371-1.578-0.64
			c-0.265-0.133-0.534-0.268-0.807-0.405c-0.271-0.138-0.516-0.341-0.773-0.518l-0.759-0.56c-0.231-0.218-0.436-0.468-0.652-0.699
			c-0.467-0.433-0.757-1.007-1.13-1.496c-0.174-0.254-0.275-0.549-0.431-0.811l-0.218-0.401l-0.152-0.424
			c-0.233-0.558-0.333-1.136-0.392-1.692c0.007-0.552,0.03-1.081,0.148-1.547c0.087-0.474,0.244-0.885,0.378-1.248
			c0.159-0.354,0.294-0.661,0.447-0.894c0.278-0.478,0.495-0.71,0.495-0.711L63.228,6.889z"/>
	</g>
	
		<ellipse transform="matrix(0.9603 -0.2789 0.2789 0.9603 0.2845 20.5352)" fill="#FFFFFF" stroke="#4674B7" stroke-width="0.5908" stroke-miterlimit="10" cx="72.316" cy="9.268" rx="1.96" ry="2.263"/>
	<path fill="none" stroke="#4674B7" stroke-width="0.0985" stroke-miterlimit="10" d="M73.391,7.732c0,0,1.519,2.145,3.269,2.533
		c1.748,0.389,9.624,2.613,9.644,3.136"/>
	<path fill="none" stroke="#4674B7" stroke-width="0.0985" stroke-miterlimit="10" d="M81.288,7.945c0,0,0.635,2.639,6.78,4.811"/>
	<g>
		<path fill="#FFFFFF" d="M56.545,16.482c0.241,0.076,1.777,0.356,1.424,0.896c-0.353,0.539-5.266,5.168-6.255,5.019
			c-0.99-0.149-6.614-2.227-4.239-3.571c2.375-1.345,7.816-1.398,7.882-1.926C55.421,16.372,56.545,16.482,56.545,16.482z"/>
		<path fill="#4674B7" d="M56.549,16.463c0,0,0.101,0.024,0.288,0.069c0.188,0.047,0.466,0.107,0.802,0.252
			c0.147,0.084,0.391,0.161,0.433,0.438c-0.036,0.294-0.242,0.397-0.396,0.616c-0.335,0.377-0.721,0.793-1.164,1.227
			c-0.881,0.869-1.977,1.818-3.269,2.683c-0.324,0.215-0.663,0.419-1.031,0.593c-0.174,0.08-0.416,0.155-0.618,0.099
			c-0.203-0.046-0.393-0.109-0.589-0.167c-0.775-0.246-1.548-0.54-2.3-0.891c-0.374-0.18-0.741-0.379-1.089-0.617
			c-0.333-0.249-0.699-0.509-0.862-0.983c-0.082-0.241-0.004-0.538,0.149-0.721c0.149-0.197,0.335-0.312,0.522-0.423
			c0.347-0.196,0.737-0.358,1.103-0.485c0.744-0.261,1.485-0.406,2.184-0.54c0.699-0.134,1.366-0.212,1.98-0.282
			c0.613-0.064,1.175-0.123,1.673-0.175c0.474-0.097,0.992-0.057,1.068-0.479c0.322-0.255,0.629-0.208,0.817-0.228
			C56.443,16.448,56.549,16.462,56.549,16.463z M56.541,16.501c0,0-0.1-0.01-0.291-0.002c-0.177,0.016-0.505,0.016-0.751,0.221
			c-0.069,0.046-0.069,0.152-0.127,0.253c-0.082,0.1-0.187,0.128-0.29,0.172c-0.21,0.076-0.44,0.131-0.687,0.187
			c-0.493,0.107-1.05,0.217-1.657,0.324c-1.208,0.23-2.64,0.414-4.081,0.883c-0.364,0.119-0.706,0.248-1.055,0.434
			c-0.325,0.166-0.599,0.425-0.515,0.721c0.08,0.312,0.39,0.604,0.694,0.845c0.316,0.242,0.664,0.456,1.021,0.651
			c0.714,0.395,1.473,0.716,2.238,0.967c0.388,0.118,0.771,0.271,1.111,0.05c0.348-0.167,0.664-0.4,0.968-0.631
			c0.609-0.464,1.158-0.966,1.692-1.424c0.529-0.465,1.029-0.905,1.49-1.312c0.458-0.409,0.892-0.773,1.25-1.12
			c0.087-0.086,0.171-0.169,0.253-0.25c0.083-0.093,0.16-0.167,0.157-0.249c0.003-0.176-0.209-0.298-0.355-0.371
			c-0.321-0.151-0.598-0.221-0.782-0.273C56.639,16.528,56.541,16.501,56.541,16.501z"/>
	</g>
	<circle fill="#4674B7" cx="72.497" cy="9.948" r="0.608"/>
	<g>
		<g>
			<path fill="#4674B7" d="M56.557,16.774c0,0-0.154,0.031-0.387,0.165c-0.115,0.063-0.257,0.18-0.218,0.382
				c-0.029,0.206-0.27,0.306-0.473,0.39c-0.222,0.091-0.479,0.089-0.732,0.151c-0.26,0.05-0.534,0.104-0.818,0.158
				c-0.565,0.12-1.168,0.248-1.771,0.376c-1.203,0.267-2.396,0.578-3.277,0.851c-0.439,0.14-0.798,0.285-1.018,0.434
				c-0.104,0.073-0.183,0.167-0.145,0.237c0.031,0.059,0.065,0.083,0.062,0.085c0.002,0.002,0.002,0.005,0.001,0.007
				c-0.002,0.002-0.005,0.002-0.007,0.001c0.003-0.002-0.034-0.024-0.071-0.087c-0.046-0.08,0.037-0.188,0.139-0.27
				c0.217-0.171,0.58-0.32,1.016-0.475c0.873-0.319,2.078-0.596,3.283-0.859c0.605-0.121,1.209-0.242,1.777-0.355
				c0.285-0.051,0.56-0.101,0.82-0.148c0.263-0.058,0.518-0.052,0.729-0.138c0.204-0.079,0.433-0.176,0.46-0.359
				c-0.039-0.202,0.118-0.339,0.233-0.395c0.238-0.132,0.393-0.161,0.393-0.161c0.003-0.001,0.005,0,0.006,0.003
				C56.562,16.77,56.56,16.773,56.557,16.774z"/>
		</g>
		<path fill="none" stroke="#4674B7" stroke-width="0.0985" stroke-linecap="round" stroke-miterlimit="10" d="M56.863,16.902
			c0,0-0.479,0.137-0.449,0.365c0.031,0.231-0.564,0.404-0.664,0.459c-0.567,0.311-7.271,2.454-6.723,2.886"/>
		<path fill="none" stroke="#4674B7" stroke-width="0.0985" stroke-linecap="round" stroke-miterlimit="10" d="M57.17,17.036
			c0,0-0.258,0.088-0.284,0.235c-0.027,0.156-0.401,0.305-0.539,0.409c-0.998,0.755-6.197,3.42-6.07,3.538"/>
		<g>
			<path fill="#4674B7" d="M57.481,17.174c0,0-1.413,1.267-2.867,2.486c-0.73,0.605-1.46,1.214-2.049,1.617
				c-0.292,0.204-0.539,0.37-0.727,0.463c-0.184,0.106-0.314,0.101-0.314,0.088c-0.001-0.002-0.001-0.006,0.002-0.008l0.004,0
				c-0.001,0.009,0.115,0.008,0.292-0.11c0.175-0.108,0.419-0.276,0.701-0.492c0.559-0.438,1.31-1.017,2.042-1.62
				c1.47-1.198,2.911-2.433,2.911-2.433c0.002-0.001,0.005-0.001,0.007,0.001C57.483,17.169,57.483,17.172,57.481,17.174z"/>
		</g>
	</g>
</g>
<g>
	<path fill="#4674B7" d="M52.301,7.143c0,0,0.918-1.124,1.608-1.05c0.689,0.075,0.771,0.225,1.153,0.171
		c0.38-0.055,0.669,0.38,0.503,0.521c-0.167,0.142-1.542,0.478-1.359,0.704C54.388,7.714,52.125,7.931,52.301,7.143z"/>
	<path fill="#4674B7" d="M51.984,15.665c0,0,1.16-1.034,1.835-0.788s0.726,0.433,1.119,0.462c0.394,0.03,0.592,0.583,0.394,0.701
		c-0.197,0.117-1.646,0.166-1.513,0.462C53.954,16.797,51.64,16.502,51.984,15.665z"/>
	<path fill="#4674B7" d="M51.054,12.54c0,0,1.16-1.034,1.835-0.788c0.675,0.246,0.725,0.433,1.118,0.463
		c0.394,0.029,0.591,0.582,0.394,0.699s-1.646,0.167-1.512,0.462C53.023,13.672,50.709,13.376,51.054,12.54z"/>
	<path fill="#4674B7" d="M47.845,15.416c0,0,0.25-0.058,0.52,0.242c0.268,0.3-0.171,0.989,0,1.136
		c0.169,0.147-0.471,0.743-0.914,0.864c-0.443,0.121-3.102-0.919-3.25-1.113c-0.148-0.193-0.28-0.891,0.402-0.862
		c0.682,0.028,1.961,0.119,2.061,0C46.762,15.563,47.845,15.416,47.845,15.416z"/>
	<path fill="#4674B7" d="M51.019,8.912c0.589,0.22,1.223,0.11,0.93,0.608c-0.292,0.498-1.326,0.537-1.276,0.861
		c0.05,0.326-1.281,0.464-1.281,0c0-0.462,0.788-1.053,0.986-1.201C50.574,9.033,51.019,8.912,51.019,8.912z"/>
	<path fill="#4674B7" d="M39.692,11.598c0.589,0.219,1.223,0.109,0.931,0.608c-0.292,0.498-1.326,0.537-1.277,0.862
		c0.05,0.325-1.28,0.463-1.28,0c0-0.462,0.787-1.054,0.984-1.201C39.247,11.718,39.692,11.598,39.692,11.598z"/>
	<path fill="#4674B7" d="M48.752,7.698c0.295,0.104,0.493,0.77,0,0.979c-0.492,0.209-1.399,0.542-1.562,0.843
		c-0.161,0.301-2.082,1.029-2.278,0.861c-0.196-0.167-0.099-1.212,0-1.33C45.01,8.935,47.19,8.25,47.19,8.25L48.752,7.698z"/>
	<path fill="#4674B7" d="M45.945,11.713c0,0,1.083-0.066,1.478,0.203s-0.197,0.51,0.541,0.685c0.739,0.174,0.395,1.058,0,0.887
		c-0.394-0.171-0.454-0.023-1.039-0.269c-0.585-0.246-0.198-0.335-0.539-0.611S45.945,11.713,45.945,11.713z"/>
	<path fill="#4674B7" d="M33.486,19.12c0.446-0.239,0.889,0,0.889,0s0.099,0.254-0.246,0.401c-0.345,0.148-1.084,0.394-1.084,0.394
		s0.058-0.106,0.25-0.451C33.486,19.12,33.486,19.12,33.486,19.12z"/>
	<path fill="#4674B7" d="M35.371,15.066c0.446-0.239,0.89,0,0.89,0s0.098,0.254-0.246,0.401c-0.346,0.148-1.083,0.394-1.083,0.394
		s0.059-0.106,0.249-0.451C35.371,15.066,35.371,15.066,35.371,15.066z"/>
	<path fill="#4674B7" d="M36.345,17.902c0.591-0.006,0.985,0.437,0.985,0.634c0,0.197-0.837,0.197-0.985,0.295
		s-0.69-0.24-0.739-0.465c-0.049-0.225,0.492-0.465,0.492-0.465H36.345z"/>
	<path fill="#4674B7" d="M37.945,15.253c0.59-0.006,0.984,0.437,0.984,0.634c0,0.196-0.837,0.196-0.984,0.295
		c-0.148,0.099-0.69-0.24-0.739-0.465c-0.05-0.225,0.491-0.465,0.491-0.465H37.945z"/>
	<path fill="#4674B7" d="M42.428,13.978c0.591-0.006,0.985,0.437,0.985,0.634s-0.837,0.197-0.985,0.295
		c-0.148,0.098-0.69-0.241-0.739-0.464c-0.049-0.225,0.493-0.465,0.493-0.465H42.428z"/>
	<path fill="#4674B7" d="M49.526,13.978c0.591-0.006,0.985,0.437,0.985,0.634s-0.838,0.197-0.985,0.295
		c-0.148,0.098-0.689-0.241-0.739-0.464c-0.05-0.225,0.492-0.465,0.492-0.465H49.526z"/>
	<path fill="#4674B7" d="M39.053,16.88c0.64-0.067,2.067-0.515,2.264-0.266c0.197,0.249-0.394,0.344-0.492,0.887
		c-0.098,0.542-0.985,0.752-1.281,0.401C39.25,17.551,39.053,16.88,39.053,16.88z"/>
	<path fill="#4674B7" d="M42.056,11.286c0.639-0.066,2.067-0.514,2.265-0.266c0.197,0.249-0.394,0.345-0.492,0.887
		c-0.099,0.543-0.985,0.752-1.281,0.401C42.252,11.958,42.056,11.286,42.056,11.286z"/>
</g>
<g>
	<g>
		<polygon fill="#FFFFFF" points="48.231,27.257 54.215,26.434 55.631,30.354 57.064,26.04 63.152,25.202 63.152,48.382 
			56.772,49.262 56.772,46.707 55.725,49.859 54.61,46.773 54.61,49.56 48.231,50.438 		"/>
		<path fill="#4674B7" d="M61.97,26.558v20.794l-4.017,0.554v-8.507l-2.275,6.853l-2.25-6.228v8.506l-4.016,0.554V28.288
			l4.016-0.553l2.25,6.228l2.275-6.852L61.97,26.558 M64.333,23.847l-2.686,0.37l-4.017,0.553l-1.457,0.201l-0.463,1.396
			l-0.126,0.38l-0.583-1.613l-1.895,0.261l-4.016,0.553l-2.041,0.281v2.061v20.795v2.712l2.686-0.371l4.016-0.554l1.031-0.142
			l0.989,2.739l1.001-3.014l1.503-0.207l4.017-0.554l2.041-0.281v-2.06V26.558V23.847L64.333,23.847z"/>
	</g>
	<g>
		<polygon fill="#FFFFFF" points="63.465,25.159 69.844,24.279 69.844,47.459 63.465,48.339 		"/>
		<path fill="#4674B7" d="M68.662,25.635v20.794l-4.015,0.554V26.188L68.662,25.635 M71.025,22.923l-2.687,0.37l-4.015,0.554
			l-2.041,0.282v2.06v20.795v2.712l2.687-0.371l4.015-0.554l2.04-0.282v-2.06V25.635V22.923L71.025,22.923z"/>
	</g>
	<g>
		<polygon fill="#FFFFFF" points="70.159,24.236 75.995,23.431 78.699,29.076 78.699,23.058 85.08,22.18 85.08,45.361 
			79.271,46.161 76.538,40.478 76.538,46.537 70.159,47.417 		"/>
		<path fill="#4674B7" d="M83.898,23.536v20.795l-3.936,0.542l-4.606-9.579v10.214l-4.016,0.554V25.266l3.961-0.546l4.579,9.557
			V24.088L83.898,23.536 M86.262,20.825l-2.686,0.37l-4.018,0.553l-2.041,0.281v1.847l-0.085-0.176l-0.745-1.556l-1.709,0.235
			l-3.961,0.546l-2.04,0.282v2.06v20.795v2.711l2.687-0.37l4.016-0.554l2.04-0.282v-1.906l0.113,0.236l0.746,1.552l1.706-0.235
			l3.936-0.542l2.041-0.281v-2.06V23.536V20.825L86.262,20.825z"/>
	</g>
	<g>
		<polygon fill="#FFFFFF" points="85.394,22.136 91.772,21.257 91.772,44.438 85.394,45.317 		"/>
		<path fill="#4674B7" d="M90.591,22.613v20.795l-4.016,0.554V23.166L90.591,22.613 M92.954,19.901l-2.686,0.37l-4.016,0.553
			l-2.041,0.281v2.06v20.795v2.711l2.687-0.37l4.016-0.554l2.04-0.281v-2.06V22.613V19.901L92.954,19.901z"/>
	</g>
	<g>
		<polygon fill="#FFFFFF" points="47.995,71.354 47.995,56.069 51.905,51.695 58.851,50.739 63.023,54.222 63.023,59.114 
			56.643,59.992 56.643,57.698 56.296,57.414 54.936,57.603 54.375,58.229 54.375,67.89 54.704,68.167 56.061,67.979 56.643,67.342 
			56.643,65.272 63.023,64.395 63.023,69.514 59.083,73.887 52.137,74.845 		"/>
		<path fill="#4674B7" d="M58.495,51.981l3.347,2.793v3.31l-4.018,0.553V57.14l-1.178-0.967l-2.302,0.318l-1.151,1.287v10.66
			l1.151,0.971l2.302-0.317l1.178-1.292v-1.497l4.018-0.553v3.31l-3.347,3.716l-5.998,0.827l-3.32-2.799V56.521l3.32-3.714
			L58.495,51.981 M59.207,49.498l-1.035,0.143l-5.998,0.825l-0.86,0.118l-0.579,0.647l-3.32,3.714l-0.602,0.673v0.902v14.283v1.099
			l0.84,0.708l3.32,2.799l0.804,0.679l1.042-0.145l5.998-0.827l0.855-0.117l0.578-0.642l3.347-3.716l0.607-0.675V69.06v-3.31v-2.711
			l-2.686,0.37l-4.018,0.553l-1.946,0.268v-2.896l2.59-0.356l4.018-0.553l2.041-0.28v-2.061v-3.31v-1.106l-0.849-0.708l-3.347-2.793
			L59.207,49.498L59.207,49.498z"/>
	</g>
	<g>
		<polygon fill="#FFFFFF" points="63.337,69.239 63.337,50.12 69.716,49.242 69.716,65.774 70.046,66.052 71.397,65.867 
			71.958,65.239 71.958,48.933 78.337,48.052 78.337,67.398 74.428,71.772 67.479,72.729 		"/>
		<path fill="#4674B7" d="M77.155,49.408v17.539l-3.319,3.714l-5.997,0.825l-3.32-2.797V51.15l4.016-0.553v15.727l1.152,0.97
			l2.303-0.315l1.15-1.289V49.963L77.155,49.408 M79.519,46.696l-2.687,0.371l-4.016,0.555l-1.919,0.265l0,0l-2.686,0.37
			l-4.016,0.553l-2.041,0.281v2.061v17.539v1.1l0.841,0.708l3.32,2.797l0.804,0.677l1.041-0.144l5.997-0.825l0.86-0.118l0.579-0.647
			l3.319-3.714l0.602-0.673v-0.902V49.408V46.696L79.519,46.696z"/>
	</g>
	<g>
		<path fill="#FFFFFF" d="M78.652,48.01l10.857-1.498l4.144,3.49v7.485l-3.909,4.401l-4.713,0.65v7.771l-6.379,0.878V48.01z
			 M85.031,56.215l1.688-0.232l0.581-0.638v-1.888l-0.337-0.269l-1.932,0.267V56.215z"/>
		<path fill="#4674B7" d="M89.15,47.755l3.321,2.798v6.486l-3.321,3.739L83.85,61.51v7.771l-4.016,0.553V49.04L89.15,47.755
			 M83.85,57.57l3.454-0.476l1.178-1.292v-2.914l-1.178-0.94l-3.454,0.477V57.57 M89.869,45.27l-1.042,0.144l-9.316,1.285
			l-2.04,0.282v2.06v20.794v2.711l2.686-0.37l4.016-0.553l2.041-0.28v-2.061v-5.712l3.261-0.45L90.338,63l0.579-0.652l3.321-3.739
			l0.597-0.671v-0.898v-6.486v-1.1l-0.841-0.708l-3.321-2.798L89.869,45.27L89.869,45.27z"/>
	</g>
</g>
<path fill="none" d="M23.86,76.023c0,0,43.511,49.113,89.954-2.976"/>
<text transform="matrix(0.7973 0.6035 -0.6035 0.7973 31.5283 83.0127)"><tspan x="0" y="0" fill="#FFFFFF" font-family="'HighSchoolUSASans'" font-size="10.832"> </tspan><tspan x="2.914" y="-0.003" fill="#FFFFFF" font-family="'HighSchoolUSASans'" font-size="10.832" rotate="-2.169"> </tspan><tspan x="5.82" y="-0.117" fill="#FFFFFF" font-family="'HighSchoolUSASans'" font-size="10.832" rotate="-4.387"> </tspan><tspan x="8.703" y="-0.341" fill="#FFFFFF" font-family="'HighSchoolUSASans'" font-size="10.832" rotate="-6.664"> </tspan><tspan x="11.605" y="-0.684" fill="#FFFFFF" font-family="'HighSchoolUSASans'" font-size="10.832" rotate="-9.064"> </tspan><tspan x="14.499" y="-1.151" fill="#FFFFFF" font-family="'HighSchoolUSASans'" font-size="10.832" rotate="-11.582"> </tspan><tspan x="17.381" y="-1.747" fill="#FFFFFF" font-family="'HighSchoolUSASans'" font-size="10.832" rotate="-14.236"> </tspan><tspan x="20.372" y="-2.472" fill="#FFFFFF" font-family="'HighSchoolUSASans'" font-size="10.832" rotate="-18.362">l</tspan><tspan x="25.644" y="-4.285" fill="#FFFFFF" font-family="'HighSchoolUSASans'" font-size="10.832" rotate="-22.815">i</tspan><tspan x="28.592" y="-5.472" fill="#FFFFFF" font-family="'HighSchoolUSASans'" font-size="10.832" rotate="-27.942">t</tspan><tspan x="34.235" y="-8.494" fill="#FFFFFF" font-family="'HighSchoolUSASans'" font-size="10.832" rotate="-35.653">o</tspan><tspan x="39.874" y="-12.602" fill="#FFFFFF" font-family="'HighSchoolUSASans'" font-size="10.832" rotate="-44.138">v</tspan><tspan x="44.917" y="-17.586" fill="#FFFFFF" font-family="'HighSchoolUSASans'" font-size="10.832" rotate="-52.436">e</tspan><tspan x="49.023" y="-23.046" fill="#FFFFFF" font-family="'HighSchoolUSASans'" font-size="10.832" rotate="-59.444">l</tspan></text>
<g>
	<rect x="55.266" y="59.612" fill="#4674B7" width="7.746" height="4.684"/>
	<rect x="59.139" y="48.344" fill="#4674B7" width="4.979" height="3.982"/>
	<rect x="75.629" y="44.947" fill="#4674B7" width="3.164" height="4.194"/>
</g>
<g>
	<path fill="#FFFFFF" d="M120.745,42.935v-8.076h11.872v3.658h-8.213v2.922l0.713,0.713h4.417l3.083,3.083v4.831l-3.014,3.014
		h-5.844l-3.015-3.014v-2.6h3.659v1.082l0.874,0.897h2.808l0.874-0.897v-1.817l-0.944-0.943h-4.394L120.745,42.935z"/>
</g>
</svg>
