<?xml version="1.0" encoding="UTF-8" standalone="no"?>
<svg
   xmlns:dc="http://purl.org/dc/elements/1.1/"
   xmlns:cc="http://creativecommons.org/ns#"
   xmlns:rdf="http://www.w3.org/1999/02/22-rdf-syntax-ns#"
   xmlns:svg="http://www.w3.org/2000/svg"
   xmlns="http://www.w3.org/2000/svg"
   viewBox="0 0 151.776 109.88191"
   height="109.88191"
   width="151.776"
   xml:space="preserve"
   id="svg834"
   version="1.1"><metadata
     id="metadata840"><rdf:RDF><cc:Work
         rdf:about=""><dc:format>image/svg+xml</dc:format><dc:type
           rdf:resource="http://purl.org/dc/dcmitype/StillImage" /><dc:title></dc:title></cc:Work></rdf:RDF></metadata><defs
     id="defs838" /><g
     transform="matrix(1.3333333,0,0,1.3333333,-27.401333,-53.352747)"
     id="g842"><g
       style="fill:#eeeeee;fill-opacity:1"
       id="g1057"><path
         id="path848"
         style="fill:#eeeeee;fill-opacity:1;fill-rule:nonzero;stroke:none"
         d="m 68.422,120.754 -3.195,-1.051 2.199,-6.695 1.269,0.418 -1.785,5.426 1.93,0.632 z" /><path
         id="path850"
         style="fill:#eeeeee;fill-opacity:1;fill-rule:nonzero;stroke:none"
         d="m 71.262,114.203 1.297,0.317 -1.676,6.843 -1.297,-0.316 z" /><path
         id="path852"
         style="fill:#eeeeee;fill-opacity:1;fill-rule:nonzero;stroke:none"
         d="m 76.734,116.59 -1.222,-0.184 -0.86,5.645 -1.32,-0.199 0.859,-5.649 -1.23,-0.187 0.203,-1.321 3.774,0.575 z" /><path
         id="path854"
         style="fill:#eeeeee;fill-opacity:1;fill-rule:nonzero;stroke:none"
         d="m 80.199,120.707 0.063,-3.621 -0.379,-0.379 -0.766,-0.016 -0.394,0.379 -0.063,3.61 0.387,0.39 0.762,0.012 z m 0.196,1.719 -1.985,-0.031 -1.086,-1.122 0.082,-4.839 1.121,-1.086 1.985,0.031 1.093,1.125 -0.082,4.84 z" /><path
         id="path856"
         style="fill:#eeeeee;fill-opacity:1;fill-rule:nonzero;stroke:none"
         d="m 86.367,114.816 -0.613,7.188 -1.234,0.164 -2.442,-6.789 1.352,-0.176 1.265,3.496 0.313,-3.703 z" /><path
         id="path858"
         style="fill:#eeeeee;fill-opacity:1;fill-rule:nonzero;stroke:none"
         d="m 92.773,120.359 -4.043,1.141 -1.91,-6.785 4.039,-1.137 0.364,1.285 -2.758,0.778 0.414,1.464 1.285,-0.363 0.359,1.285 -1.285,0.36 0.414,1.465 2.758,-0.778 z" /><path
         id="path860"
         style="fill:#eeeeee;fill-opacity:1;fill-rule:nonzero;stroke:none"
         d="m 97.172,118.574 -3.102,1.301 -2.722,-6.5 1.23,-0.516 2.207,5.27 1.871,-0.785 z" /><path
         id="path862"
         style="fill:#eeeeee;fill-opacity:1;fill-rule:nonzero;stroke:none"
         d="m 122.52,84.988 -3.055,0.032 -0.121,-10.786 -1.254,0.012 -0.02,-1.797 0.114,-0.039 c 0.683,-0.187 1.203,-0.519 1.566,-0.996 0.359,-0.473 0.586,-0.996 0.668,-1.562 l 0.02,-0.157 1.914,-0.019 z" /><path
         id="path864"
         style="fill:#eeeeee;fill-opacity:1;fill-rule:nonzero;stroke:none"
         d="m 127.398,74.977 0.801,0.761 3.055,-0.031 -0.027,-2.32 -0.743,-0.727 -2.359,0.028 -0.746,0.742 z m 6.985,7.347 -2.508,2.559 -4.891,0.055 -2.558,-2.504 -0.028,-2.184 3.055,-0.035 0.012,0.91 0.762,0.727 2.359,-0.028 0.726,-0.742 -0.027,-2.32 -4.328,0.047 -2.602,-2.543 -0.043,-4.078 2.504,-2.563 4.891,-0.055 2.563,2.508 z" /><path
         id="path866"
         style="fill:#eeeeee;fill-opacity:1;fill-rule:nonzero;stroke:none"
         d="m 27.477,74.203 -0.012,-1.023 -0.742,-0.727 -2.36,0.024 -0.742,0.746 0.008,0.925 -3.055,0.036 -0.023,-2.188 2.504,-2.578 4.89,-0.055 2.563,2.524 0.043,3.808 -6.848,5.2 0.008,0.773 6.902,-0.074 0.035,3.054 -9.957,0.11 -0.058,-5.375 z" /><path
         id="path868"
         style="fill:#eeeeee;fill-opacity:1;fill-rule:nonzero;stroke:none"
         d="m 35.527,73.09 0.086,7.695 0.742,0.746 2.36,-0.027 0.726,-0.762 -0.086,-7.695 -0.742,-0.727 -2.359,0.028 z m 6.891,-1.352 0.113,10.246 -2.508,2.563 -4.91,0.051 -2.558,-2.504 -0.114,-10.246 2.504,-2.563 4.91,-0.051 z" /><path
         id="path870"
         style="fill:#eeeeee;fill-opacity:1;fill-rule:nonzero;stroke:none"
         d="m 80.43,112.461 c -0.071,0 -0.141,0.004 -0.211,0.004 l -0.012,-2.434 c 0.629,-0.004 1.266,-0.023 1.895,-0.062 1.914,-0.121 3.824,-0.407 5.671,-0.848 l 0.571,2.363 c -1.989,0.477 -4.035,0.786 -6.09,0.911 -0.606,0.039 -1.223,0.062 -1.824,0.066" /><path
         id="path872"
         style="fill:#eeeeee;fill-opacity:1;fill-rule:nonzero;stroke:none"
         d="m 76.129,112.246 c -2.719,-0.301 -5.402,-0.922 -7.977,-1.848 l 0.825,-2.289 c 2.394,0.86 4.89,1.442 7.421,1.723 z" /><path
         id="path874"
         style="fill:#eeeeee;fill-opacity:1;fill-rule:nonzero;stroke:none"
         d="m 92.266,110.297 -0.84,-2.285 c 2.383,-0.875 4.668,-2.035 6.789,-3.45 l 1.347,2.028 c -2.281,1.515 -4.734,2.762 -7.296,3.707" /><path
         id="path876"
         style="fill:#eeeeee;fill-opacity:1;fill-rule:nonzero;stroke:none"
         d="m 102.836,104.129 -1.574,-1.859 c 1.941,-1.645 3.695,-3.516 5.207,-5.563 l 1.957,1.445 c -1.625,2.2 -3.508,4.207 -5.59,5.977" /><path
         id="path878"
         style="fill:#eeeeee;fill-opacity:1;fill-rule:nonzero;stroke:none"
         d="m 54.535,101.516 c -1.887,-1.981 -3.543,-4.18 -4.918,-6.536 l 2.102,-1.226 c 1.281,2.195 2.82,4.242 4.578,6.086 z" /><path
         id="path880"
         style="fill:#eeeeee;fill-opacity:1;fill-rule:nonzero;stroke:none"
         d="m 110.668,94.723 -2.113,-1.211 c 1.269,-2.211 2.277,-4.567 2.996,-7.004 l 2.332,0.687 c -0.774,2.617 -1.856,5.153 -3.215,7.528" /><path
         id="path882"
         style="fill:#eeeeee;fill-opacity:1;fill-rule:nonzero;stroke:none"
         d="m 47.758,91.328 c -1.09,-2.504 -1.891,-5.137 -2.375,-7.832 l 2.39,-0.43 c 0.454,2.508 1.2,4.961 2.215,7.289 z" /><path
         id="path884"
         style="fill:#eeeeee;fill-opacity:1;fill-rule:nonzero;stroke:none"
         d="m 114.812,83.199 -2.398,-0.41 c 0.336,-1.937 0.492,-3.926 0.469,-5.906 -0.004,-0.563 -0.028,-1.137 -0.063,-1.699 l -0.004,-0.063 2.43,-0.156 0.004,0.066 c 0.039,0.606 0.059,1.219 0.066,1.824 0.024,2.125 -0.144,4.262 -0.504,6.344" /><path
         id="path886"
         style="fill:#eeeeee;fill-opacity:1;fill-rule:nonzero;stroke:none"
         d="m 44.891,79.434 -0.004,-0.032 c -0.035,-0.609 -0.059,-1.222 -0.067,-1.828 -0.023,-2.117 0.145,-4.238 0.5,-6.312 l 2.395,0.406 c -0.328,1.934 -0.485,3.91 -0.461,5.879 0.004,0.562 0.027,1.137 0.062,1.699 v 0.027 z" /><path
         id="path888"
         style="fill:#eeeeee;fill-opacity:1;fill-rule:nonzero;stroke:none"
         d="m 112.355,71.332 c -0.453,-2.508 -1.199,-4.957 -2.218,-7.285 l 2.23,-0.977 c 1.094,2.504 1.895,5.137 2.383,7.828 z" /><path
         id="path890"
         style="fill:#eeeeee;fill-opacity:1;fill-rule:nonzero;stroke:none"
         d="m 48.578,67.949 -2.332,-0.683 c 0.77,-2.621 1.848,-5.153 3.211,-7.532 l 2.109,1.207 c -1.265,2.215 -2.273,4.571 -2.988,7.008" /><path
         id="path892"
         style="fill:#eeeeee;fill-opacity:1;fill-rule:nonzero;stroke:none"
         d="m 108.406,60.648 c -1.285,-2.191 -2.828,-4.238 -4.586,-6.082 l 1.758,-1.675 c 1.891,1.976 3.547,4.175 4.926,6.531 z" /><path
         id="path894"
         style="fill:#eeeeee;fill-opacity:1;fill-rule:nonzero;stroke:none"
         d="m 54.602,52.844 c -1.04,1.09 -2.012,2.246 -2.907,3.457 l 1.957,1.445 c 0.231,-0.316 0.469,-0.625 0.711,-0.934 -0.258,-1.468 -0.101,-2.808 0.239,-3.968" /><path
         id="path896"
         style="fill:#eeeeee;fill-opacity:1;fill-rule:nonzero;stroke:none"
         d="m 97.082,49.148 c 1.379,0.84 2.703,1.782 3.949,2.817 l 1.551,-1.871 c -0.91,-0.758 -1.859,-1.469 -2.84,-2.129 -1.027,0.406 -2.008,0.844 -2.66,1.183" /><path
         id="path898"
         style="fill:#eeeeee;fill-opacity:1;fill-rule:nonzero;stroke:none"
         d="m 74.664,102.547 3.238,2.668 5.786,-0.863 2.761,-3.157 -0.191,-17.355 -3.461,0.515 0.164,15.2 -1.098,1.257 -2.222,0.333 -1.121,-0.926 -0.168,-15.199 -3.875,0.574 z" /><path
         id="path900"
         style="fill:#eeeeee;fill-opacity:1;fill-rule:nonzero;stroke:none"
         d="m 77.801,60.953 -3.055,0.457 0.004,0.414 0.219,19.684 3.051,-0.457 -0.004,-0.414 z" /><path
         id="path902"
         style="fill:#eeeeee;fill-opacity:1;fill-rule:nonzero;stroke:none"
         d="m 84.781,70.156 4.555,9.207 3.387,-0.504 -0.004,-0.414 -0.219,-19.683 -3.465,0.515 0.11,9.848 -4.528,-9.187 -3.414,0.507 0.008,0.414 0.215,19.684 3.465,-0.516 z" /><path
         id="path904"
         style="fill:#eeeeee;fill-opacity:1;fill-rule:nonzero;stroke:none"
         d="m 71.562,82.016 -0.007,-0.414 -0.215,-19.684 -3.465,0.516 -2.125,6.644 -2.242,-5.992 -3.875,0.574 0.222,20.098 3.875,-0.574 -0.089,-8.223 2.238,5.992 2.129,-6.644 0.09,8.222 z" /><path
         id="path906"
         style="fill:#eeeeee;fill-opacity:1;fill-rule:nonzero;stroke:none"
         d="m 95.91,58.668 0.219,19.684 3.465,-0.516 -0.223,-20.098 -3.465,0.516 z" /><path
         id="path908"
         style="fill:#eeeeee;fill-opacity:1;fill-rule:nonzero;stroke:none"
         d="m 97.684,89.836 -1.125,1.262 -3.332,0.496 -0.055,-4.973 3.332,-0.496 1.148,0.895 z m 3.871,1.152 -0.071,-6.265 -3.238,-2.672 -8.992,1.344 0.223,20.093 3.875,-0.574 -0.082,-7.512 5.117,-0.761 z" /><path
         id="path910"
         style="fill:#eeeeee;fill-opacity:1;fill-rule:nonzero;stroke:none"
         d="m 71.848,102.934 -3.133,3.628 -5.68,0.86 -3.176,-2.668 -0.152,-13.805 3.105,-3.625 5.68,-0.859 3.203,2.664 0.035,3.199 -3.8,0.574 -0.016,-1.445 -1.129,-0.922 -2.18,0.332 -1.078,1.254 0.114,10.305 1.101,0.926 2.18,-0.332 1.105,-1.258 -0.015,-1.45 3.8,-0.574 z" /><path
         id="path912"
         style="fill:#eeeeee;fill-opacity:1;fill-rule:nonzero;stroke:none"
         d="m 77.504,57.965 c -1.711,-1.137 -2.176,-2.5 -2.301,-3.25 -0.101,0.023 -0.199,0.047 -0.297,0.074 l -0.035,0.008 c -2.164,0.355 -7.926,1.758 -8.594,3.918 -0.089,0.289 -0.078,0.597 0.039,0.918 z" /><path
         id="path914"
         style="fill:#eeeeee;fill-opacity:1;fill-rule:nonzero;stroke:none"
         d="m 81.695,57.34 c 0.625,-0.992 0.785,-2.235 0.77,-3.301 5.238,-0.086 10.73,0.344 11.535,0.441 1.078,0.133 3.832,0.204 5.09,-0.777 0.351,0.289 0.695,0.586 1.031,0.891 z" /><path
         id="path916"
         style="fill:#eeeeee;fill-opacity:1;fill-rule:nonzero;stroke:none"
         d="M 56.855,83.793 56.633,63.695 56.609,61.434 c -0.402,-0.614 -0.773,-1.36 -1.019,-2.27 -3.723,5.078 -5.895,11.359 -5.82,18.141 0.082,7.226 2.699,13.832 6.996,18.976 l -0.059,-5.301 -0.012,-1.144 0.754,-0.863 1.832,-2.094 -2.386,0.355 z" /><path
         id="path918"
         style="fill:#eeeeee;fill-opacity:1;fill-rule:nonzero;stroke:none"
         d="m 102.359,56.84 0.012,0.867 0.219,20.098 0.031,2.613 -1.391,0.207 2.161,1.781 1.078,0.887 0.015,1.395 0.071,6.269 0.011,1.137 -0.746,0.863 -3.172,3.648 -0.726,0.836 -1.094,0.164 -2.531,0.379 0.047,4.274 c 8.359,-5.438 13.84,-14.906 13.722,-25.617 -0.082,-7.618 -2.988,-14.547 -7.707,-19.801" /><path
         id="path920"
         style="fill:#eeeeee;fill-opacity:1;fill-rule:nonzero;stroke:none"
         d="m 79.602,57.391 c -0.016,0.011 -0.036,0.015 -0.051,0.015 -0.047,0 -0.09,-0.027 -0.113,-0.07 -0.028,-0.059 -0.004,-0.133 0.054,-0.16 1.133,-0.559 1.281,-2.531 1.281,-2.551 0.008,-0.066 0.063,-0.117 0.133,-0.113 0.067,0.004 0.117,0.062 0.114,0.129 -0.004,0.023 -0.04,0.535 -0.227,1.132 -0.254,0.801 -0.668,1.36 -1.191,1.618 M 78.52,56.609 c -0.016,0.008 -0.032,0.012 -0.047,0.012 -0.047,0 -0.09,-0.027 -0.114,-0.074 -0.027,-0.059 0,-0.133 0.063,-0.16 1.48,-0.664 1.433,-1.727 1.433,-1.735 -0.003,-0.07 0.047,-0.125 0.114,-0.129 0.066,-0.003 0.125,0.047 0.129,0.114 0.004,0.051 0.054,1.238 -1.578,1.972 m -1.356,-0.785 c -0.066,0 -0.121,-0.058 -0.121,-0.125 0,-0.066 0.055,-0.117 0.121,-0.121 h 0.004 c 0.66,0.008 1.109,-0.125 1.301,-0.387 0.168,-0.226 0.086,-0.484 0.082,-0.496 -0.02,-0.062 0.015,-0.133 0.078,-0.152 0.062,-0.02 0.133,0.012 0.152,0.074 0.008,0.016 0.129,0.383 -0.113,0.715 -0.23,0.316 -0.699,0.484 -1.398,0.492 -0.036,0 -0.071,0 -0.106,0 m -1.168,-1.273 c 0.102,0.664 0.578,2.137 2.805,3.222 l 1.703,-0.253 c 0.586,-0.528 1.18,-1.54 1.148,-3.461 -2.07,0.058 -4.058,0.203 -5.656,0.492" /><path
         id="path922"
         style="fill:#eeeeee;fill-opacity:1;fill-rule:nonzero;stroke:none"
         d="m 89.492,49.582 c 0.539,0.18 0.973,0.328 1.227,0.414 l -0.453,-1.18 z" /><path
         id="path924"
         style="fill:#eeeeee;fill-opacity:1;fill-rule:nonzero;stroke:none"
         d="m 88.051,49.102 c 0.461,0.152 0.902,0.3 1.297,0.433 l -0.469,-0.949 z" /><path
         id="path926"
         style="fill:#eeeeee;fill-opacity:1;fill-rule:nonzero;stroke:none"
         d="m 92.641,50.539 -0.903,-1.578 -0.894,1.078 c 0.054,0.02 0.09,0.031 0.105,0.035 l 0.008,0.004 c 1.254,0.453 2.387,0.817 3.352,1.074 l -0.762,-1.375 z" /><path
         id="path928"
         style="fill:#eeeeee;fill-opacity:1;fill-rule:nonzero;stroke:none"
         d="m 95.523,51.418 -0.597,-0.922 -0.582,0.664 c 0.929,0.25 1.703,0.399 2.281,0.442 l -0.723,-0.793 z" /><path
         id="path930"
         style="fill:#eeeeee;fill-opacity:1;fill-rule:nonzero;stroke:none"
         d="m 85.699,48.324 c 0.309,0.102 0.637,0.207 0.969,0.317 L 86.211,48.09 Z" /><path
         id="path932"
         style="fill:#eeeeee;fill-opacity:1;fill-rule:nonzero;stroke:none"
         d="m 86.891,48.715 c 0.324,0.105 0.648,0.215 0.964,0.32 L 87.43,48.332 Z" /><path
         id="path934"
         style="fill:#eeeeee;fill-opacity:1;fill-rule:nonzero;stroke:none"
         d="m 86.578,47.734 0.254,-0.652 c -0.285,0.106 -0.586,0.223 -0.883,0.336 z" /><path
         id="path936"
         style="fill:#eeeeee;fill-opacity:1;fill-rule:nonzero;stroke:none"
         d="m 90.969,45.445 1.097,1.703 0.688,-2.031 c -0.645,0.059 -1.16,0.125 -1.785,0.328" /><path
         id="path938"
         style="fill:#eeeeee;fill-opacity:1;fill-rule:nonzero;stroke:none"
         d="m 88.809,46.332 1.113,1.082 0.902,-1.922 c -0.277,0.098 -0.582,0.219 -0.929,0.379 -0.321,0.149 -0.688,0.305 -1.086,0.461" /><path
         id="path940"
         style="fill:#eeeeee;fill-opacity:1;fill-rule:nonzero;stroke:none"
         d="m 88.086,47.703 0.363,-1.23 c -0.383,0.148 -0.785,0.3 -1.183,0.449 z" /><path
         id="path942"
         style="fill:#eeeeee;fill-opacity:1;fill-rule:nonzero;stroke:none"
         d="m 93.156,45.082 c -0.023,0.004 -0.047,0.004 -0.07,0.008 l 0.902,1.133 0.524,-1.266 c -0.524,0.059 -0.961,0.094 -1.356,0.125" /><path
         id="path944"
         style="fill:#eeeeee;fill-opacity:1;fill-rule:nonzero;stroke:none"
         d="m 98.762,44.332 c -0.227,0.008 -0.512,0.035 -0.871,0.082 l 0.433,0.395 z" /><path
         id="path946"
         style="fill:#eeeeee;fill-opacity:1;fill-rule:nonzero;stroke:none"
         d="m 97.082,45.023 0.41,-0.546 c -0.183,0.031 -0.383,0.066 -0.601,0.105 -0.09,0.02 -0.176,0.035 -0.262,0.051 z" /><path
         id="path948"
         style="fill:#eeeeee;fill-opacity:1;fill-rule:nonzero;stroke:none"
         d="m 94.781,44.922 0.754,0.672 0.742,-0.899 c -0.57,0.102 -1.062,0.172 -1.496,0.227" /><path
         id="path950"
         style="fill:#eeeeee;fill-opacity:1;fill-rule:nonzero;stroke:none"
         d="m 84.551,43.875 c -0.129,0 -0.239,-0.102 -0.239,-0.234 0,-0.129 0.102,-0.235 0.235,-0.235 0.129,-0.004 0.234,0.102 0.234,0.231 0.004,0.129 -0.101,0.238 -0.23,0.238 m 0.484,-0.598 c -0.101,-0.035 -0.203,-0.078 -0.308,-0.129 -0.274,-0.125 -0.582,-0.257 -0.895,-0.363 -0.219,0.145 -0.363,0.391 -0.363,0.672 0.008,0.438 0.367,0.789 0.804,0.785 0.434,-0.004 0.789,-0.363 0.782,-0.801 0,-0.054 -0.008,-0.109 -0.02,-0.164 M 83.48,44.66 c -1.031,-0.359 -1.816,-1.039 -1.816,-1.039 0.07,-0.777 0.512,-1.039 1.074,-1.047 0.117,0 0.239,0.008 0.364,0.028 -0.18,0.242 -0.286,0.539 -0.282,0.863 0.008,0.504 0.27,0.941 0.66,1.195 m 3.493,-1.164 c -0.661,1.027 -1.481,1.371 -2.278,1.383 -0.066,0 -0.136,-0.004 -0.203,-0.008 0.684,-0.109 1.207,-0.703 1.211,-1.414 0.324,0.059 0.609,0.074 0.828,0.07 0.274,0 0.442,-0.031 0.442,-0.031 m 0.547,0.352 c -0.7,1.086 -1.672,1.664 -2.817,1.679 -1.785,0.02 -3.394,-1.355 -3.461,-1.414 -0.16,-0.136 -0.242,-0.34 -0.222,-0.547 0.089,-1.015 0.73,-1.628 1.714,-1.64 0.594,-0.008 1.336,0.203 2.266,0.636 0.578,0.27 1.148,0.321 1.523,0.317 0.211,0 0.34,-0.02 0.34,-0.02 0.035,-0.007 0.071,-0.011 0.102,-0.011 0.219,0 0.426,0.105 0.551,0.293 0.14,0.214 0.14,0.492 0.004,0.707 m -2.536,7.207 c 0.223,0.027 0.379,0.23 0.352,0.453 -0.024,0.203 -0.195,0.351 -0.398,0.355 -0.016,0 -0.036,0 -0.051,-0.004 -3.711,-0.453 -6.043,-1.617 -6.934,-3.453 -1.015,-2.094 0.254,-4.218 0.309,-4.308 0.117,-0.192 0.367,-0.254 0.554,-0.137 0.192,0.117 0.254,0.367 0.137,0.559 -0.012,0.019 -1.09,1.847 -0.269,3.539 0.765,1.57 2.886,2.578 6.3,2.996 m -3.144,1.129 c -0.008,0.058 -0.059,0.101 -0.117,0.101 -0.008,0 -0.016,0 -0.024,0 -1.949,-0.324 -3.375,-1.125 -4.242,-2.39 -1.309,-1.903 -0.863,-4.145 -0.844,-4.239 0.012,-0.066 0.078,-0.109 0.141,-0.094 0.066,0.012 0.109,0.079 0.098,0.141 -0.008,0.024 -0.442,2.238 0.808,4.059 0.828,1.203 2.199,1.972 4.082,2.285 0.067,0.008 0.11,0.07 0.098,0.137 m -9.137,-9.082 c -0.515,0.003 -0.933,-0.204 -0.937,-0.469 -0.004,-0.266 0.41,-0.485 0.925,-0.492 0.516,-0.004 0.934,0.207 0.938,0.472 0.004,0.262 -0.41,0.481 -0.926,0.489 m 0.895,7.152 c -0.075,0.211 -0.301,0.324 -0.516,0.254 -0.074,-0.024 -7.285,-2.406 -11.367,-0.438 0.308,0.418 0.937,1.149 1.945,1.828 1.399,0.942 3.844,1.981 7.551,1.575 0.223,-0.028 0.422,0.136 0.445,0.359 0.024,0.223 -0.136,0.422 -0.359,0.445 -0.539,0.059 -1.055,0.09 -1.547,0.098 -3.125,0.031 -5.273,-0.941 -6.582,-1.832 -1.66,-1.133 -2.363,-2.367 -2.395,-2.422 -0.105,-0.191 -0.039,-0.437 0.153,-0.547 1.824,-1.062 4.472,-1.355 7.879,-0.871 2.504,0.359 4.453,1.008 4.535,1.035 0.215,0.074 0.328,0.301 0.258,0.516 m -3.024,2.641 c -0.015,0.05 -0.062,0.082 -0.113,0.082 -0.012,0 -0.027,0 -0.039,-0.004 -0.027,-0.008 -2.524,-0.805 -4.613,-0.528 -0.067,0.008 -0.129,-0.039 -0.137,-0.105 -0.012,-0.067 0.035,-0.129 0.101,-0.137 2.149,-0.285 4.618,0.504 4.723,0.539 0.063,0.02 0.098,0.09 0.078,0.153 m -5.875,-1.418 c -0.066,0.007 -0.125,-0.043 -0.133,-0.11 -0.007,-0.066 0.039,-0.125 0.106,-0.133 3.066,-0.339 6.187,0.641 6.219,0.653 0.066,0.019 0.101,0.086 0.078,0.152 -0.016,0.051 -0.063,0.082 -0.114,0.082 -0.011,0 -0.023,0 -0.039,-0.004 -0.031,-0.012 -3.101,-0.976 -6.117,-0.64 m 7.024,-0.317 c -0.02,0.047 -0.067,0.074 -0.114,0.074 -0.015,0 -0.031,0 -0.047,-0.007 -0.031,-0.012 -3.355,-1.336 -7.601,-0.731 -0.066,0.008 -0.125,-0.039 -0.137,-0.105 -0.008,-0.067 0.039,-0.129 0.106,-0.137 4.312,-0.613 7.691,0.734 7.726,0.746 0.063,0.027 0.09,0.098 0.067,0.16 m -6.496,4.692 c -0.184,0.316 -0.497,0.48 -0.696,0.363 -0.203,-0.113 -0.219,-0.465 -0.035,-0.785 0.184,-0.317 0.492,-0.481 0.695,-0.364 0.2,0.118 0.215,0.469 0.036,0.786 m -2.075,1.738 c -0.062,0.351 -0.273,0.609 -0.472,0.574 -0.2,-0.039 -0.313,-0.352 -0.25,-0.703 0.062,-0.352 0.277,-0.606 0.476,-0.57 0.199,0.035 0.309,0.347 0.246,0.699 m -0.976,-2.707 c 0.16,-0.391 0.48,-0.629 0.711,-0.535 0.234,0.097 0.293,0.488 0.133,0.879 -0.161,0.39 -0.477,0.632 -0.711,0.535 -0.231,-0.094 -0.289,-0.489 -0.133,-0.879 m -0.891,4.969 c -0.238,0.066 -0.515,-0.176 -0.617,-0.54 -0.098,-0.367 0.016,-0.714 0.258,-0.781 0.242,-0.066 0.519,0.176 0.621,0.543 0.098,0.364 -0.02,0.715 -0.262,0.778 M 60.5,57.465 c -0.18,-0.043 -0.238,-0.422 -0.137,-0.844 0.106,-0.422 0.332,-0.73 0.512,-0.687 0.176,0.043 0.238,0.421 0.133,0.843 -0.102,0.426 -0.332,0.731 -0.508,0.688 m -0.152,-3.66 c 0.183,-0.442 0.468,-0.746 0.636,-0.68 0.168,0.07 0.161,0.488 -0.019,0.93 -0.184,0.445 -0.469,0.75 -0.637,0.679 -0.168,-0.07 -0.16,-0.484 0.02,-0.929 m -0.664,-1.328 c -0.293,0.511 -0.657,0.851 -0.817,0.757 -0.16,-0.089 -0.051,-0.578 0.238,-1.086 0.293,-0.511 0.661,-0.851 0.817,-0.757 0.16,0.089 0.051,0.578 -0.238,1.086 m -0.457,7.746 c -0.18,0.039 -0.45,-0.465 -0.606,-1.125 -0.152,-0.664 -0.133,-1.235 0.043,-1.278 0.18,-0.043 0.449,0.461 0.606,1.125 0.152,0.664 0.132,1.235 -0.043,1.278 m -0.969,-3.496 c -0.18,-0.036 -0.223,-0.606 -0.098,-1.274 0.129,-0.668 0.379,-1.183 0.559,-1.148 0.179,0.031 0.222,0.601 0.093,1.273 -0.124,0.668 -0.374,1.18 -0.554,1.149 m 5.289,-10.309 c 0.469,-0.348 0.941,-0.512 1.051,-0.367 0.109,0.148 -0.188,0.551 -0.657,0.902 -0.472,0.348 -0.945,0.512 -1.054,0.367 -0.106,-0.148 0.187,-0.55 0.66,-0.902 m 2.648,0.047 c 0.512,-0.07 0.946,0.023 0.969,0.207 0.027,0.183 -0.367,0.39 -0.879,0.461 -0.508,0.07 -0.941,-0.024 -0.969,-0.207 -0.023,-0.188 0.368,-0.395 0.879,-0.461 m 0.055,-2.563 c 0.465,-0.234 0.906,-0.293 0.992,-0.129 0.082,0.161 -0.226,0.485 -0.691,0.723 -0.465,0.234 -0.91,0.293 -0.992,0.133 -0.086,-0.164 0.226,-0.488 0.691,-0.727 m 2.625,0.352 c 0.57,-0.043 1.047,0.133 1.066,0.391 0.02,0.253 -0.425,0.496 -0.996,0.539 -0.57,0.043 -1.047,-0.129 -1.066,-0.387 -0.02,-0.258 0.426,-0.5 0.996,-0.543 m 1.355,2.5 c 0.004,0.269 -0.386,0.492 -0.867,0.496 -0.48,0.004 -0.875,-0.207 -0.875,-0.477 -0.004,-0.269 0.383,-0.492 0.864,-0.496 0.48,-0.004 0.875,0.207 0.878,0.477 m -0.628,-4.188 c 0.511,-0.093 0.953,-0.023 0.988,0.161 0.031,0.179 -0.36,0.398 -0.871,0.492 -0.512,0.093 -0.957,0.023 -0.989,-0.157 -0.031,-0.183 0.356,-0.402 0.872,-0.496 m 3.382,4.696 c 0.004,0.3 -0.328,0.547 -0.742,0.55 -0.414,0.004 -0.754,-0.234 -0.758,-0.531 0,-0.301 0.332,-0.547 0.746,-0.551 0.415,-0.003 0.75,0.235 0.754,0.532 m -1.195,-2.574 c 0.457,-0.004 0.832,0.207 0.836,0.472 0,0.262 -0.367,0.481 -0.828,0.488 -0.457,0.004 -0.832,-0.207 -0.836,-0.472 0,-0.266 0.367,-0.485 0.828,-0.488 M 99.82,43.266 C 99.43,43.07 97.922,43.125 95.621,43.418 94.809,43.332 94,43.219 93.59,43.086 92.797,42.832 92.176,42.754 91.723,42.699 91.656,42.691 91.594,42.684 91.535,42.676 l -0.094,-0.012 c -0.675,-0.09 -2.734,-0.352 -4.406,-1.047 -1.476,-0.613 -2.613,-0.847 -3.683,-0.765 -0.512,0.043 -1.477,-0.11 -2.704,-0.305 -1.347,-0.215 -3.027,-0.481 -4.418,-0.52 -12.554,-0.363 -17.16,7.321 -18.273,9.684 -1.699,3.613 -2.242,6.684 -1.613,9.129 0.218,0.859 0.558,1.558 0.933,2.137 L 65.5,59.77 c -0.129,-0.438 -0.129,-0.872 0,-1.297 0.41,-1.325 2.109,-2.481 5.055,-3.442 2.039,-0.664 3.945,-0.996 4.164,-1.031 1.316,-0.344 3.015,-0.551 4.859,-0.664 -1.816,-0.594 -3.125,-1.559 -3.906,-2.891 -2.051,-3.48 0.277,-8.113 0.375,-8.308 0.101,-0.199 0.348,-0.278 0.547,-0.176 0.199,0.101 0.277,0.348 0.176,0.547 -0.024,0.043 -2.223,4.433 -0.399,7.531 1.16,1.973 3.715,3.039 7.59,3.168 0.004,0 0.012,0.004 0.016,0.004 4.738,0 9.269,0.363 10.121,0.465 1.558,0.191 3.968,0.027 4.644,-0.75 -0.254,-0.18 -1.074,-0.461 -2.027,-0.508 C 95.461,52.363 93.375,51.816 90.684,50.84 90.52,50.785 85.52,49.086 83.93,48.621 83.523,48.5 83.453,48.242 83.445,48.098 c -0.019,-0.551 0.645,-0.856 3.477,-1.914 0.949,-0.356 1.93,-0.723 2.633,-1.047 1.511,-0.696 2.316,-0.762 3.535,-0.86 0.176,-0.015 0.363,-0.031 0.558,-0.047 0.118,-0.007 0.239,-0.011 0.356,-0.019 0.469,-0.02 0.875,-0.039 1.078,-0.066 3.629,-0.5 4.383,-0.317 4.453,-0.297 0.231,0.117 0.606,0.34 0.582,0.566 -0.062,0.578 -1.926,1.508 -4.152,2.07 -1.813,0.457 -3.281,2.266 -3.375,2.379 l 0.371,0.555 c 0.004,-0.008 0.062,-0.078 0.664,-0.648 0.98,-0.918 1.844,-1.493 2.496,-1.657 0.461,-0.117 4.484,-1.175 4.641,-2.629 0.05,-0.472 -0.266,-0.882 -0.942,-1.218" /></g></g></svg>