<?xml version="1.0" encoding="UTF-8" standalone="no"?>
<svg
   xmlns:dc="http://purl.org/dc/elements/1.1/"
   xmlns:cc="http://creativecommons.org/ns#"
   xmlns:rdf="http://www.w3.org/1999/02/22-rdf-syntax-ns#"
   xmlns:svg="http://www.w3.org/2000/svg"
   xmlns="http://www.w3.org/2000/svg"
   xmlns:sodipodi="http://sodipodi.sourceforge.net/DTD/sodipodi-0.dtd"
   xmlns:inkscape="http://www.inkscape.org/namespaces/inkscape"
   version="1.1"
   id="Layer_1"
   x="0px"
   y="0px"
   width="560.68182"
   height="253.2034"
   viewBox="0 0 560.68183 253.2034"
   enable-background="new 0 0 1331 1007"
   xml:space="preserve"
   sodipodi:docname="ryba.svg"
   inkscape:export-filename="/home/thejoeejoee/mc/litovel-minicup/www/assets/img/logo@2x.png"
   inkscape:export-xdpi="144.0739"
   inkscape:export-ydpi="144.0739"
   inkscape:version="0.92.4 (33fec40, 2019-01-16)"><metadata
   id="metadata4157"><rdf:RDF><cc:Work
       rdf:about=""><dc:format>image/svg+xml</dc:format><dc:type
         rdf:resource="http://purl.org/dc/dcmitype/StillImage" /><dc:title /></cc:Work></rdf:RDF></metadata><defs
   id="defs4155" /><sodipodi:namedview
   pagecolor="#86ffff"
   bordercolor="#666666"
   borderopacity="1"
   objecttolerance="10"
   gridtolerance="10"
   guidetolerance="10"
   inkscape:pageopacity="0"
   inkscape:pageshadow="2"
   inkscape:window-width="1920"
   inkscape:window-height="1136"
   id="namedview4153"
   showgrid="false"
   fit-margin-top="0"
   fit-margin-left="0"
   fit-margin-right="0"
   fit-margin-bottom="0"
   inkscape:zoom="0.91757697"
   inkscape:cx="-19.674269"
   inkscape:cy="292.42764"
   inkscape:window-x="0"
   inkscape:window-y="27"
   inkscape:window-maximized="1"
   inkscape:current-layer="Layer_1" />

<path
   style="fill:#ffffff;fill-opacity:0.99705882;fill-rule:nonzero;stroke:none;stroke-width:8.47825146;stroke-miterlimit:4;stroke-dasharray:none;stroke-dashoffset:0;stroke-opacity:1"
   d="m 308.7832,28.363746 c -1.51667,-0.02067 -3.03456,-0.02207 -4.55468,0.002 C 255.51665,28.129047 205.11496,39.08031 168.25391,72.029297 137.48132,98.767049 121.78171,139.01678 114.93164,178.84766 153.11832,49.19809 236.75292,32.771031 307.36523,31.814918 c 1.90422,0.0178 3.82706,0.05506 5.76954,0.111328 13.76974,0.399021 30.39059,3.029488 43.74414,5.144531 12.1232,1.919078 21.69822,3.43715 26.74218,3.033203 10.61568,-0.849012 21.76728,-0.639229 36.38219,5.435472 16.54871,6.877008 37.0339,8.531955 43.735,9.394142 l 0.91211,0.117187 c 0.58605,0.07707 1.20137,0.153993 1.84766,0.234375 4.49669,0.560556 10.65377,1.332297 18.51953,3.859375 4.0545,1.300733 12.05785,2.412062 20.10351,3.271485 22.75933,-2.904521 37.69598,-3.45622 41.57618,-1.509766 v -0.002 c 6.68014,3.330824 9.81022,7.392707 9.30468,12.074219 -1.55216,14.389305 -41.38459,24.868314 -45.92187,26.015625 -6.48171,1.639136 -15.0278,7.318146 -24.71289,16.421876 -5.97314,5.61511 -6.55778,6.31265 -6.58008,6.40039 l -3.70117,-5.49414 c 0.93562,-1.12691 15.46855,-19.012209 33.41992,-23.552736 22.05317,-5.577884 40.49516,-14.763462 41.11133,-20.478515 0.24328,-2.255155 -3.46099,-4.477089 -5.73242,-5.615235 -0.73051,-0.220731 -8.1813,-2.019596 -44.11915,2.927735 -1.98937,0.273975 -6.01388,0.459549 -10.67382,0.673828 -1.14814,0.05282 -2.33254,0.107012 -3.50391,0.164062 -1.95114,0.174008 -3.78271,0.322877 -5.52148,0.464844 -12.06483,0.976559 -20.03572,1.621963 -35.00782,8.523438 -6.95651,3.207289 -16.6702,6.844276 -26.06445,10.359374 -28.07083,10.503135 -34.61391,13.510745 -34.41992,18.951175 0.051,1.42189 0.73965,3.98289 4.7793,5.17382 15.73895,4.63585 65.24692,21.43468 66.87695,21.98828 26.64002,9.65491 47.28825,15.05888 59.71289,15.63086 9.44901,0.43537 17.56772,3.22376 20.07422,5.00391 -6.6925,7.71979 -30.55244,9.33859 -45.97852,7.45508 -8.4433,-1.03083 -53.32318,-4.61067 -100.23047,-4.62305 -0.0465,-0.002 -0.0893,-0.0139 -0.13671,-0.0156 -38.36915,-1.30409 -63.65737,-11.86553 -75.16211,-31.39063 -18.06368,-30.655859 3.73466,-74.136335 3.95703,-74.572262 1.00819,-1.972185 0.22808,-4.387837 -1.74414,-5.398437 -1.9722,-1.009803 -4.3906,-0.230023 -5.40039,1.742187 -0.99092,1.935875 -24.03491,47.791345 -3.74805,82.273432 7.75593,13.18142 20.70798,22.73244 38.68555,28.58789 -18.25364,1.14827 -35.05897,3.20305 -48.08789,6.58399 -50.35983,14.89667 -82.2385,26.50691 7.2207,1.83984 14.81506,-3.05257 29.90815,-4.29688 44.93554,-5.49609 3.52684,-0.85767 1.57512,-5.09056 -1.20703,-5.45117 -17.94923,-5.24439 -35.08968,-17.01883 -42.1914,-34.89844 -8.6691,-23.553667 -3.15806,-50.276188 7.85156,-72.236327 2.08932,1.688949 -1.80446,4.325494 -1.76172,6.478516 -9.02613,21.971553 -13.68355,48.363721 -2.48633,70.462891 10.39923,19.37125 32.38397,28.84671 53.13282,32.27929 26.93289,4.53661 54.42799,1.8377 81.43164,3.9961 20.66299,0.62987 41.3226,3.80168 62.04492,3.78711 11.00686,-0.4533 23.5129,-1.46733 31.8164,-9.53907 2.27482,-2.49582 -0.51242,-5.30686 -3.09375,-5.80078 -13.64139,-6.20577 -29.35014,-3.56568 -43.27148,-8.72461 -33.1507,-9.20566 -65.17614,-22.24349 -98.1543,-31.89648 -2.1005,-1.03358 -8.53663,-1.66135 -5.60937,-5.08008 7.56815,-5.80377 17.31101,-8.042472 25.93945,-11.917965 14.70889,-5.266643 29.08114,-11.444842 43.60352,-17.140625 16.54402,-4.924092 33.88951,-3.401476 50.8164,-5.867188 -20.29632,4.71674 -42.63399,1.334118 -61.6875,11.482422 -15.73765,6.917675 -32.05907,12.368865 -48.00586,18.767576 2.92177,0.57139 9.02118,1.83539 9.61329,4.10547 -2.33849,1.5127 -8.69481,1.93263 -7.5293,6.0293 3.10483,2.87497 8.22034,2.35581 11.91406,4.30664 29.62674,9.24595 58.52992,21.31007 88.86328,28.27734 6.87138,1.4714 13.87637,2.20037 20.89258,2.47461 -5.41139,-5.9547 -10.82203,-11.91122 -16.23633,-17.86328 -0.98548,1.349 -1.17518,6.0091 -3.15625,5.64648 -2.11569,-2.03784 -2.9686,-8.04578 -7.07031,-5.95508 -1.79081,0.73807 -3.10623,4.24172 -4.32422,4.09375 -2.17363,-3.57312 -2.96225,-8.66654 -6.59375,-11.26953 -1.11602,-0.80216 -3.86892,0.62237 -1.2207,-1.28515 9.3989,-9.37847 20.32641,-18.35587 33.83789,-20.66797 13.9935,-4.624054 29.56974,-9.20437 39.07031,-21.24414 4.23167,-6.76329 0.66121,-15.979281 -6.25781,-19.259766 -6.7205,-4.774934 -15.58921,-2.997087 -23.30469,-2.9375 -13.3703,1.102818 -27.15577,3.833247 -40.23828,-0.429687 -11.70067,-3.702062 -23.91809,-4.57216 -35.95898,-6.47461 -15.13208,-2.36699 -29.30343,-4.74141 -43.58399,-10.067867 -10.27107,-3.322527 -21.16113,-3.164981 -31.78516,-3.34961 -22.51512,-2.586655 -44.8944,-7.680168 -67.64453,-7.990234 z m 68.72266,19.27102 c -9.72476,0.107105 -16.06761,6.175417 -16.9707,16.232422 -0.18523,2.05946 0.63194,4.08019 2.19531,5.43164 0.67025,0.579412 16.60998,14.178976 34.2793,13.984375 11.33567,-0.124851 20.97722,-5.870343 27.88281,-16.617187 1.3748,-2.139182 1.35751,-4.888329 -0.0449,-7.009766 -1.21392,-1.838551 -3.26828,-2.904623 -5.42578,-2.880859 -0.33335,0.0034 -0.67069,0.0306 -1.00586,0.08789 h -0.002 c -0.004,3.73e-4 -1.29639,0.199909 -3.36133,0.222657 -3.72585,0.04104 -9.36838,-0.471778 -15.0957,-3.148438 -9.21468,-4.306343 -16.55897,-6.367627 -22.45117,-6.302734 z m -99.41602,2.148437 c -5.09838,0.05613 -9.20656,2.226231 -9.17773,4.847656 0.0289,2.620619 4.18288,4.69873 9.28125,4.642579 5.09757,-0.05613 9.20851,-2.227037 9.17969,-4.847657 -0.0289,-2.621424 -4.18565,-4.698721 -9.28321,-4.642578 z m 109.36328,2.888672 c -2.09221,2.058534 -2.0047,0.243709 0,0 z m -109.53906,0.568359 c 0.55559,-0.01117 1.10751,-0.0017 1.64649,0.01563 1.35554,0.111146 6.04976,0.881513 2.61523,1.919922 -2.66698,1.303475 -8.02046,1.302188 -9.09766,-0.935547 1.47114,-0.748381 3.16918,-0.966493 4.83594,-1 z m -25.57617,0.34961 c -0.39393,-0.01238 -0.80475,-0.01141 -1.22851,0.002 -1.13006,0.03535 -2.35675,0.163055 -3.62696,0.392578 -5.08086,0.918101 -8.93751,3.108433 -8.61523,4.892578 0.32227,1.783349 4.70394,2.484841 9.7832,1.568359 5.08084,-0.918897 8.93751,-3.108432 8.61523,-4.892578 -0.21255,-1.170839 -2.17024,-1.876243 -4.92773,-1.96289 z m 125.23828,0.464844 c 1.14617,-0.01263 2.346,0.08373 3.57617,0.263671 -1.76202,2.404339 -2.80284,5.367772 -2.76757,8.570313 0.0547,4.962718 2.65272,9.309459 6.53515,11.824219 -10.21143,-3.554439 -17.99023,-10.271484 -17.99023,-10.271485 0.69141,-7.702651 5.04726,-10.325057 10.64648,-10.386718 z m 10.81836,2.089843 c 3.09882,1.046351 6.14794,2.351825 8.84375,3.611328 1.03282,0.482311 2.06133,0.898651 3.08008,1.269532 0.11652,0.522099 0.18156,1.061759 0.1875,1.617187 0.0476,4.328639 -3.43503,7.89178 -7.76367,7.939453 -4.32783,0.04765 -7.88985,-3.436986 -7.9375,-7.765625 -0.0307,-2.789972 1.40754,-5.254286 3.58984,-6.671875 z m 15.01172,2.613281 c 0.94065,1.691984 -0.34602,0.821206 0,0 z m -7.95898,3.523438 c -1.28743,0.01416 -2.3169,1.06803 -2.30274,2.355469 0.0142,1.286625 1.06609,2.316918 2.35352,2.302734 1.28743,-0.01416 2.31884,-1.066881 2.30468,-2.353515 -0.0142,-1.28744 -1.06802,-2.318864 -2.35546,-2.304688 z m 11.4707,0.527344 c 3.18924,0.579768 6.03509,0.723143 8.20703,0.699218 2.70249,-0.02976 4.36523,-0.3125 4.36523,-0.3125 -6.52677,10.15748 -14.65315,13.579012 -22.55273,13.666016 -0.67582,0.0076 -1.34801,-0.01552 -2.01953,-0.05469 6.7832,-1.08776 11.96202,-6.952001 12,-13.998047 z m -11.30078,0.669922 c 3.14898,2.200224 -3.38969,2.546587 -0.33399,0.05469 0.10467,-0.04095 0.22058,-0.0722 0.33399,-0.05469 z m -173.75781,1.523437 c -1.89359,-0.01704 -4.69114,0.759663 -7.56641,2.220703 -4.60443,2.338513 -7.6682,5.54365 -6.84766,7.160156 0.82213,1.615693 5.2175,1.031857 9.82031,-1.30664 4.60203,-2.339285 7.6682,-5.543651 6.84766,-7.160156 -0.30831,-0.605585 -1.11777,-0.903847 -2.2539,-0.914063 z m 114.61328,2.214844 c -1.28715,0.0613 -2.52222,0.738939 -3.24219,1.921875 -0.53933,0.884943 -13.0901,21.935891 -3.06055,42.648438 8.8138,18.19811 31.90903,29.71071 68.64453,34.21484 0.18087,0.0226 0.35972,0.0309 0.53711,0.0293 1.98011,-0.0218 3.68808,-1.50538 3.93555,-3.52539 0.26957,-2.20006 -1.29603,-4.20193 -3.49609,-4.4707 -33.81041,-4.14703 -54.795,-14.13638 -62.36914,-29.68946 -8.14497,-16.725234 2.54182,-34.832523 2.66796,-35.041012 1.14714,-1.892652 0.54733,-4.356645 -1.34375,-5.507813 -0.70976,-0.432281 -1.50115,-0.616839 -2.27343,-0.580078 z m 205.31836,2.779297 c 1.6473,-0.136301 6.32497,2.15336 3.04687,3.566406 -13.21066,11.071998 -30.98232,12.849215 -46.34375,19.371094 -11.05602,5.409434 -20.18741,14.027496 -27.91016,23.484376 3.92872,2.04887 3.69411,9.25675 8.7168,9.43555 -1.69757,2.73846 -4.67461,1.31457 -5.01172,-1.50391 -2.2577,-3.5122 -3.0682,-9.01931 -7.29883,-10.7832 -4.49873,-0.11887 -5.16145,6.00972 -8.28906,8.21484 -1.87552,2.0817 -1.2463,-3.07056 -2.14648,-4.26367 -0.39113,-3.32786 -4.12315,-7.46596 -7.2793,-4.21289 -1.91977,1.19106 -2.54202,5.08779 -4.62891,5.21093 -2.49153,-2.48753 -2.3951,-9.42205 -7.3164,-8.29687 -2.75611,0.76062 -4.65794,3.7517 -7.16797,4.4375 -1.51765,-3.21731 -4.51537,-9.11052 -8.93555,-6.30078 -1.66973,0.65043 -2.87337,4.85789 -4.15039,1.36133 -2.00817,-1.74787 1.89295,-1.75642 1.92578,-3.89258 0.86744,-1.69289 1.14407,-4.67762 2.33008,-5.53906 3.10524,2.73134 5.31764,7.26098 9.45508,8.64453 3.63923,-0.0927 3.16137,-4.79557 4.33594,-7.22461 0.53819,-2.20392 0.79403,-4.491452 1.61523,-6.617189 4.32353,4.213773 8.64743,8.428539 12.9707,12.642579 3.03362,-6.4495 6.06452,-12.899881 9.09766,-19.349611 4.01852,6.228853 8.0365,12.459681 12.05664,18.687501 2.71278,-7.975633 5.42283,-15.951816 8.13477,-23.927735 3.62255,4.541079 7.24493,9.081735 10.86718,13.623047 2.28276,-5.053403 4.21915,-10.894101 6.61329,-15.503906 2.44473,2.511392 6.23806,8.453166 10.23242,5.070312 3.02566,-2.26193 4.17869,-6.50956 7.1582,-8.572266 1.57418,2.637535 5.15425,5.783351 8.09961,2.892579 1.61851,-1.409784 2.64897,-3.329148 3.87305,-5.060547 2.49697,2.684333 7.4894,5.744592 10.30078,1.708984 1.18792,-3.004512 4.42471,-4.678449 5.64844,-7.302734 z m -205.18164,0.611328 c 1.74675,1.159864 -1.47146,3.808427 -1.59571,5.355469 -7.1347,14.87673 -4.99901,34.978799 8.5,45.587889 14.81144,12.72974 34.92167,17.08411 53.72266,19.30664 1.1446,-0.59752 4.32367,1.96346 1.40039,1.51172 -15.34149,-1.52854 -30.64426,-5.15348 -44.50195,-12.05859 -13.90193,-6.73539 -25.34621,-20.7419 -24.44532,-36.837894 0.18655,-8.029463 2.54908,-16.151625 6.91993,-22.865234 z m -94.24805,0.03125 c -0.66912,-0.01162 -1.35963,0.0078 -2.06445,0.06055 -5.63623,0.419292 -10.05068,2.820688 -9.86133,5.363281 0.18934,2.540983 4.91457,4.259941 10.55078,3.839844 5.6362,-0.420903 10.05067,-2.822298 9.86133,-5.363282 -0.16569,-2.224769 -3.80246,-3.818998 -8.48633,-3.90039 z m 293.84765,0.826172 -4.34375,4.710937 -4.28711,-3.882812 c 3.55316,-0.487873 6.38342,-0.735135 8.63086,-0.828125 z m -12.57617,1.423828 -4.05078,5.429687 -4.48242,-3.878906 c 0.85237,-0.157899 1.71091,-0.317165 2.59766,-0.488281 2.14436,-0.414544 4.1142,-0.764693 5.93554,-1.0625 z M 387.9375,72.998047 c 1.58233,0.624484 3.27765,1.090699 4.98828,1.044922 -1.29057,0.33255 -2.74944,1.684509 -3.125,1.386719 -0.34756,-0.967703 -1.22454,-1.792803 -1.86328,-2.431641 z m -146.58398,1.115234 c 0.7709,-0.0097 1.53317,0.0043 2.27148,0.01172 2.02473,0.0404 4.29489,0.722491 1.21875,1.527344 -3.17159,1.240375 -7.34824,1.571221 -10.19531,-0.05859 2.00729,-1.215741 4.39236,-1.451443 6.70508,-1.480469 z m 27.7832,0.875 c -4.54375,0.05002 -8.20469,2.215215 -8.17578,4.839844 0.0289,2.623027 3.73555,4.710178 8.27929,4.660156 4.54455,-0.05002 8.20274,-2.21877 8.17383,-4.841797 -0.0289,-2.624629 -3.7328,-4.708259 -8.27734,-4.658203 z m 242.46875,0.08594 -7.34766,8.898437 -7.47461,-6.654297 c 4.31121,-0.539564 9.17873,-1.250803 14.82227,-2.24414 z M 389.69922,77.625 c 0.16922,1.739064 5.27232,2.496726 1.83789,1.927734 -2.01758,-0.418508 -4.02258,-0.909263 -5.99219,-1.521484 1.48566,0.287341 3.66067,0.742517 4.1543,-0.40625 z m 104.41992,0.01563 -5.17969,12.525391 -8.93554,-11.203125 c 0.23981,-0.01865 0.46596,-0.03714 0.70898,-0.05664 3.90183,-0.315908 8.23837,-0.67007 13.40625,-1.265626 z m -223.39062,0.701172 c 2.05818,-0.02125 4.53486,1.907208 1.14062,2.328125 -2.08304,0.714639 -6.54934,0.960973 -6.95703,-1.232422 1.80469,-1.153416 3.82879,-0.961742 5.81641,-1.095703 z m 206.01367,0.894531 -6.83399,20.097656 -10.87109,-16.853515 c 6.21988,-2.015942 11.28776,-2.682991 17.70508,-3.244141 z m -19.13281,3.71875 -8.94336,19.021487 -10.99805,-10.716799 c 3.92271,-1.554759 7.58917,-3.080973 10.75195,-4.539063 3.44552,-1.58723 6.44178,-2.810609 9.18946,-3.765625 z m -139.53321,0.650391 c -0.55977,-0.0017 -1.06039,0.390698 -1.17773,0.960937 -0.19279,0.935702 -4.57625,23.121299 8.375,41.988289 8.58003,12.49722 22.71517,20.45567 42.01367,23.65234 0.0716,0.011 0.14303,0.0164 0.21289,0.0156 0.57229,-0.006 1.07477,-0.4212 1.17188,-1.00587 0.10836,-0.65622 -0.33597,-1.2764 -0.99219,-1.38477 -18.61654,-3.08457 -32.21061,-10.69597 -40.40625,-22.62108 -12.37504,-18.00558 -8.06251,-39.938574 -8.01758,-40.158211 0.13411,-0.650893 -0.28466,-1.287757 -0.93555,-1.421875 -0.0814,-0.01687 -0.16417,-0.02522 -0.24414,-0.02539 z M 196.51172,87.95313 c -1.98612,0.0076 -5.48393,1.574718 -8.98633,4.173828 -4.6715,3.464688 -7.58321,7.456614 -6.50195,8.912112 1.08046,1.4555 5.74062,-0.1771 10.41211,-3.642581 4.66988,-3.466282 7.58241,-7.456606 6.50195,-8.912109 -0.27011,-0.363471 -0.76374,-0.533785 -1.42578,-0.53125 z m 48.51562,2.765625 c -4.76608,0.05248 -8.60542,2.252965 -8.57617,4.912109 0.0293,2.65995 3.91556,4.773186 8.68164,4.720706 4.76527,-0.0525 8.60542,-2.252162 8.57617,-4.912112 -0.0292,-2.659144 -3.91636,-4.773184 -8.68164,-4.720703 z m -27.66406,1.617188 c -1.11702,-0.0178 -2.3331,0.0555 -3.5957,0.228515 -5.05205,0.690605 -8.94196,2.732614 -8.69141,4.5625 0.24892,1.828301 4.54563,2.752762 9.59766,2.060547 5.05204,-0.690604 8.94194,-2.734567 8.6914,-4.564453 -0.18729,-1.371222 -2.65091,-2.233782 -6.00195,-2.287109 z m 216.74805,0.314453 -3.60742,12.203124 -8.11719,-7.765624 c 3.93249,-1.470579 7.9094,-2.961793 11.72461,-4.4375 z m -187.36524,1.410156 c 1.52513,0.0011 4.94731,1.67506 1.78516,2.261719 -2.44972,0.926975 -7.33348,1.324138 -8.09375,-1.082032 1.8492,-1.203879 4.21118,-1.01548 6.30859,-1.179687 z m 26.76368,1.162109 c -4.09748,0.0451 -7.39389,2.473672 -7.36133,5.425779 0.0325,2.95131 3.38103,5.30878 7.47851,5.26367 4.09668,-0.0451 7.3938,-2.47447 7.36133,-5.42578 -0.0326,-2.952108 -3.38184,-5.308773 -7.47851,-5.263669 z m 0.875,3.335938 c 3.20418,-0.148908 4.32471,3.768101 0.43945,3.845701 -2.01194,1.04557 -7.36224,-1.37677 -3.87891,-3.224607 1.07038,-0.524148 2.27681,-0.55259 3.43946,-0.621094 z m 143.71093,0.138672 -2.52148,6.455079 -6.21289,-3.12109 c 2.93105,-1.14327 5.9252,-2.277955 8.73437,-3.333989 z m -6.14843,9.972659 4.53515,5.4707 c -3.32091,-1.09206 -6.56611,-2.15277 -9.625,-3.14258 z m 12.06835,2.4082 4.22071,6.94921 c -3.1583,-1.05051 -6.37221,-2.11576 -9.54492,-3.1621 z m -213.82031,1.42383 c -19.91927,-8.4e-4 -36.20302,3.62682 -48.61523,10.85743 -1.89115,1.1021 -2.55023,3.51774 -1.48242,5.42773 0.28826,0.51699 7.25433,12.76649 23.67968,23.96679 12.96443,8.83985 34.24241,18.46927 65.17774,18.12695 4.86882,-0.0537 9.9822,-0.35381 15.33398,-0.94336 2.20324,-0.24341 3.79419,-2.22644 3.55078,-4.42969 -0.24262,-2.20325 -2.21924,-3.79588 -4.42968,-3.55078 -36.68394,4.04042 -60.89861,-6.24682 -74.75,-15.58984 -9.97749,-6.73023 -16.18478,-13.95792 -19.2461,-18.08399 40.40313,-19.48108 111.81192,4.08134 112.55078,4.33008 2.10049,0.70414 4.37514,-0.428 5.08008,-2.5293 0.70573,-2.10211 -0.42409,-4.37513 -2.52539,-5.08007 -0.81055,-0.27283 -20.14237,-6.71286 -44.92969,-10.24805 -10.53417,-1.50276 -20.34032,-2.25338 -29.39453,-2.2539 z m 228.16407,1.09375 4.64453,9.3711 c -3.91499,-1.31511 -8.29607,-2.78242 -12.8418,-4.29688 z m 13.71484,2.25 4.49414,11.69531 c -2.4962,-0.84587 -6.81335,-2.30446 -12.12305,-4.08984 z m -241.89063,0.0488 c 24.9649,0.40572 50.2776,4.68203 73.68164,12.80274 -1.32081,2.17473 -4.30653,-1.11282 -6.32421,-0.91211 -31.06155,-8.62358 -64.30053,-14.56859 -96.24805,-7.34961 -5.91911,1.49977 -11.63133,3.75076 -17.04297,6.57226 18.35078,27.09812 52.11789,39.87272 83.98047,39.29102 5.3602,0.30867 11.23391,-1.37885 16.22265,-0.37695 -2.43122,2.2661 -6.47523,0.50079 -9.55078,1.42773 -32.22529,2.03221 -67.61644,-8.63246 -88.24609,-34.99023 -1.35478,-1.88523 -5.3873,-5.46636 -1.70117,-6.98829 13.87225,-7.40837 29.69026,-9.39901 45.22851,-9.47656 z m 256.49024,1.39453 8.91992,15.64649 8.96289,-7.54883 7.58008,13.61133 c -9.55827,-2.55821 -20.77102,-6.14507 -33.21094,-10.6543 l -0.0742,-0.0293 c -0.14182,-0.0482 -0.50632,-0.17082 -1.05664,-0.35742 z m -252.46485,11.22852 c -7.19974,-0.0116 -14.88365,0.44236 -22.89062,1.58008 -0.65883,0.0931 -1.11464,0.70366 -1.02148,1.36328 0.0931,0.65723 0.70011,1.11706 1.36132,1.02148 42.03538,-5.97216 74.9246,7.116 75.25196,7.24805 0.15322,0.0625 0.31108,0.0915 0.46679,0.0898 0.47035,-0.005 0.91516,-0.28831 1.10352,-0.75195 0.25009,-0.61525 -0.046,-1.31747 -0.66211,-1.56836 -0.27057,-0.10986 -22.41051,-8.9322 -53.60938,-8.98242 z m 284.02735,3.98828 5.89844,9.12109 3.76953,-6.05273 7.14843,7.86523 c -5.708,-0.41236 -13.37054,-1.89954 -22.59375,-4.35547 z M 212.8418,139.0918 c -4.65236,-0.0249 -9.40917,0.18242 -14.1543,0.71093 -0.66065,0.0731 -1.13838,0.66944 -1.06445,1.33008 0.0739,0.66144 0.67417,1.12914 1.33007,1.0625 29.84609,-3.32534 60.27443,6.24872 60.57813,6.34571 0.12647,0.0404 0.25485,0.0583 0.38086,0.0566 0.50486,-0.006 0.97062,-0.32922 1.13281,-0.83594 0.20253,-0.63398 -0.1461,-1.31033 -0.7793,-1.51367 -0.26099,-0.0832 -22.30114,-7.02169 -47.42382,-7.15625 z m -61.85742,2.10156 c -1.78642,0.1106 -4.8707,3.23789 -7.39844,7.6543 -2.88884,5.04892 -3.95451,9.87129 -2.38086,10.77148 1.57364,0.89939 5.18572,-2.46243 8.07617,-7.50976 2.88883,-5.04893 3.95568,-9.87163 2.38281,-10.77344 -0.1968,-0.11233 -0.42448,-0.15838 -0.67968,-0.14258 z m 68.7207,7.58594 c -3.37677,-0.01 -6.77675,0.1689 -10.09961,0.60937 -0.65888,0.0883 -1.12385,0.69463 -1.03711,1.35352 0.0883,0.65968 0.70266,1.1226 1.35352,1.03515 20.71887,-2.74878 45.43742,5.15443 45.68554,5.23438 0.12729,0.0412 0.25715,0.0603 0.38477,0.0586 0.50245,-0.006 0.96785,-0.32691 1.13086,-0.83203 0.20496,-0.6324 -0.14104,-1.31262 -0.77344,-1.51758 -0.86937,-0.28099 -18.40996,-5.88886 -36.64453,-5.9414 z m -58.21485,9.67382 c -1.68789,0.17775 -4.03834,2.96253 -5.60937,6.8086 -1.79386,4.39708 -1.88782,8.51371 -0.20898,9.19922 1.67883,0.68391 4.49242,-2.32326 6.2871,-6.71875 1.79385,-4.39709 1.88784,-8.51566 0.20899,-9.20117 -0.20985,-0.0855 -0.43662,-0.11326 -0.67774,-0.0879 z m 18.625,11.98438 c -2.16753,-0.12197 -4.74996,2.11822 -6.13085,5.5 -1.57734,3.8665 -0.98934,7.76201 1.31445,8.70312 2.30295,0.93873 5.4492,-1.43232 7.02734,-5.29882 1.57894,-3.86652 0.98933,-7.7628 -1.31445,-8.70313 -0.28808,-0.11733 -0.58685,-0.18375 -0.89649,-0.20117 z m -0.49804,3.63086 c 0.99124,2.46202 -1.04635,6.24171 -3.04688,7.03711 -0.51407,-2.63491 0.84544,-5.78166 3.04688,-7.03711 z m 22.98047,3.30859 c -0.14507,-0.01 -0.2939,-0.008 -0.44336,0.002 -1.7936,0.11939 -3.86648,1.6217 -5.22461,3.98047 -1.80605,3.14413 -1.65406,6.6239 0.34375,7.77148 1.9954,1.14763 5.07941,-0.47106 6.88867,-3.61524 1.80762,-3.14656 1.65408,-6.6262 -0.34375,-7.77539 -0.37414,-0.21488 -0.7855,-0.3345 -1.2207,-0.36328 z m -0.59571,3.5293 c 0.39292,1.88933 -1.50712,4.61188 -2.94726,4.89648 -0.0504,-2.03962 1.21087,-3.97024 2.94726,-4.89648 z"
   id="path7087-0"
   inkscape:connector-curvature="0"
   sodipodi:nodetypes="scccccccccccccccccccccccccccccccccccccccccccccccccccccccccccccccccccccccccccccccccccscccscccccccscccccccccccccccccccccccccccccccccccccccccccccccccccccccccccccscccccccccccccccccccccccccccccccccccccccccccccccccccccccccccccccccccccccccccccccccccccccccccccccccccccccccccccccccccccccccccccccccccccsccsccccccccccccccccccccccccccccccccccccccccccccccccccccccccccccccccccccccccccccccccccccsccccsccccccccccccccccccccccccccccccccccccccccccccc" /></svg>