<svg version="1.1" id="Layer_1" xmlns="http://www.w3.org/2000/svg"  x="0px" y="0px"
			 width="75px" height="75px" viewBox="0 0 75 75" enable-background="new 0 0 75 75" xml:space="preserve">
		<rect x="74" y="12.583" opacity="0.3" enable-background="new    " width="1" height="49.834"/>
		<g>
			<path opacity="0.3" d="M42.584,30.903V36H26.667v-6.561c2.123,1.455,4.69,2.311,7.458,2.311c2.532,0,4.89-0.722,6.899-1.958
				c-0.745-0.684-1.353-1.512-1.776-2.444c-1.507,0.884-3.252,1.402-5.123,1.402c-2.772,0-5.283-1.117-7.124-2.917h11.741
				c-0.111-0.514-0.173-1.046-0.173-1.593c0-0.481,0.05-0.95,0.137-1.407h-13.04c-1.104,0-2,0.896-2,2v25.334c0,1.104,0.896,2,2,2
				h17.917c1.104,0,2-0.896,2-2V31.758C44.507,31.683,43.49,31.385,42.584,30.903z M27.866,49.167
				c1.853-1.876,4.421-3.042,7.259-3.042c2.838,0,5.408,1.166,7.259,3.042H27.866z M42.584,45.436
				c-2.123-1.455-4.69-2.311-7.458-2.311c-3.219,0-6.167,1.154-8.458,3.067v-7.193h15.917V45.436z"/>
		</g>
		<g opacity="0.3">
			<circle cx="46.116" cy="24.24" r="4.545"/>
		</g>
</svg>